<svg width="36" height="36" viewBox="0 0 36 36" fill="none" xmlns="http://www.w3.org/2000/svg">
<rect width="36" height="36" rx="15" fill="#3200C1"/>
<path fill-rule="evenodd" clip-rule="evenodd" d="M17.5829 10.5341C18.3266 10.5341 19.0041 10.9629 19.3243 11.6351L21.8756 17.0023C21.8756 17.0023 21.8756 17.0049 21.8729 17.0049C21.8729 17.0049 21.8729 17.0023 21.8756 17.0023C22.4737 16.2692 22.9077 15.4064 23.093 14.4801C23.302 13.4347 24.3183 12.7599 25.3637 12.9663C25.6122 13.0159 25.8485 13.1141 26.0591 13.2551C26.2697 13.3961 26.4504 13.5772 26.591 13.788C26.7316 13.9989 26.8293 14.2354 26.8784 14.484C26.9276 14.7327 26.9273 14.9885 26.8775 15.237C26.4488 17.3781 25.2525 19.2915 23.6328 20.6968L24.5591 22.6447C25.0726 23.7245 24.5353 25.0451 23.3973 25.3838L23.3629 25.3944C23.1935 25.4421 23.0189 25.4659 22.8495 25.4659C22.127 25.4659 21.4362 25.0583 21.1054 24.3649L20.2823 22.6341L18.6071 19.1089L17.784 17.3781C17.7661 17.3406 17.738 17.3089 17.7029 17.2868C17.6677 17.2646 17.6271 17.2528 17.5855 17.2528C17.544 17.2528 17.5033 17.2646 17.4682 17.2868C17.4331 17.3089 17.4049 17.3406 17.387 17.3781L16.5454 19.146C15.2619 18.8734 13.9704 18.0794 13.2399 17.1134L15.8415 11.6404C15.9963 11.3094 16.2425 11.0294 16.5509 10.8335C16.8594 10.6375 17.2174 10.5337 17.5829 10.5341ZM10.2917 15.2926C11.2788 14.893 12.4036 15.3694 12.8032 16.3592C12.9065 16.6159 13.0547 16.8673 13.2373 17.1081L13.2399 17.1108L13.3273 17.2219C13.3352 17.2325 13.3431 17.2404 13.3511 17.251L13.3749 17.2801C13.3881 17.2934 13.3987 17.3093 13.4119 17.3225C13.4146 17.3251 13.4172 17.3278 13.4172 17.3304L13.4119 17.3225C13.4622 17.3834 13.5178 17.4416 13.5734 17.4998C13.576 17.5025 13.576 17.5051 13.5787 17.5051C13.7613 17.6957 13.9651 17.8756 14.1847 18.0423C14.2879 18.1217 14.3938 18.1958 14.5023 18.27C14.5129 18.2752 14.5208 18.2832 14.5314 18.2885C15.1428 18.6907 15.8441 18.9925 16.5428 19.1407C16.8392 19.2042 17.1356 19.2386 17.4241 19.2412H17.4611C17.8449 19.2412 18.2286 19.1936 18.6044 19.1036L20.2797 22.6288C19.3746 22.9331 18.4245 23.0999 17.4611 23.0999C16.5931 23.0999 15.7144 22.949 14.8622 22.6764L14.0603 24.3623C13.9484 24.5977 13.7898 24.808 13.5942 24.9805C13.3987 25.1529 13.1702 25.2839 12.9226 25.3656C12.6749 25.4472 12.4133 25.4778 12.1535 25.4554C11.8938 25.4331 11.6412 25.3583 11.4112 25.2356C10.4902 24.746 10.1541 23.5921 10.6013 22.65L11.48 20.8027C10.4875 19.9637 9.69621 18.9448 9.23836 17.8386L9.22513 17.8042C8.82815 16.817 9.30452 15.6922 10.2917 15.2926Z" fill="black"/>
<path fill-rule="evenodd" clip-rule="evenodd" d="M17.5829 10.5341C18.3266 10.5341 19.0041 10.9629 19.3243 11.6351L21.8756 17.0023C21.8756 17.0023 21.8756 17.0049 21.8729 17.0049C21.8729 17.0049 21.8729 17.0023 21.8756 17.0023C22.4737 16.2692 22.9077 15.4064 23.093 14.4801C23.302 13.4347 24.3183 12.7599 25.3637 12.9663C25.6122 13.0159 25.8485 13.1141 26.0591 13.2551C26.2697 13.3961 26.4504 13.5772 26.591 13.788C26.7316 13.9989 26.8293 14.2354 26.8784 14.484C26.9276 14.7327 26.9273 14.9885 26.8775 15.237C26.4488 17.3781 25.2525 19.2915 23.6328 20.6968L24.5591 22.6447C25.0726 23.7245 24.5353 25.0451 23.3973 25.3838L23.3629 25.3944C23.1935 25.4421 23.0189 25.4659 22.8495 25.4659C22.127 25.4659 21.4362 25.0583 21.1054 24.3649L20.2823 22.6341L18.6071 19.1089L17.784 17.3781C17.7661 17.3406 17.738 17.3089 17.7029 17.2868C17.6677 17.2646 17.6271 17.2528 17.5855 17.2528C17.544 17.2528 17.5033 17.2646 17.4682 17.2868C17.4331 17.3089 17.4049 17.3406 17.387 17.3781L16.5454 19.146C15.2619 18.8734 13.9704 18.0794 13.2399 17.1134L15.8415 11.6404C15.9963 11.3094 16.2425 11.0294 16.5509 10.8335C16.8594 10.6375 17.2174 10.5337 17.5829 10.5341ZM10.2917 15.2926C11.2788 14.893 12.4036 15.3694 12.8032 16.3592C12.9065 16.6159 13.0547 16.8673 13.2373 17.1081L13.2399 17.1108L13.3273 17.2219C13.3352 17.2325 13.3431 17.2404 13.3511 17.251L13.3749 17.2801C13.3881 17.2934 13.3987 17.3093 13.4119 17.3225C13.4146 17.3251 13.4172 17.3278 13.4172 17.3304L13.4119 17.3225C13.4622 17.3834 13.5178 17.4416 13.5734 17.4998C13.576 17.5025 13.576 17.5051 13.5787 17.5051C13.7613 17.6957 13.9651 17.8756 14.1847 18.0423C14.2879 18.1217 14.3938 18.1958 14.5023 18.27C14.5129 18.2752 14.5208 18.2832 14.5314 18.2885C15.1428 18.6907 15.8441 18.9925 16.5428 19.1407C16.8392 19.2042 17.1356 19.2386 17.4241 19.2412H17.4611C17.8449 19.2412 18.2286 19.1936 18.6044 19.1036L20.2797 22.6288C19.3746 22.9331 18.4245 23.0999 17.4611 23.0999C16.5931 23.0999 15.7144 22.949 14.8622 22.6764L14.0603 24.3623C13.9484 24.5977 13.7898 24.808 13.5942 24.9805C13.3987 25.1529 13.1702 25.2839 12.9226 25.3656C12.6749 25.4472 12.4133 25.4778 12.1535 25.4554C11.8938 25.4331 11.6412 25.3583 11.4112 25.2356C10.4902 24.746 10.1541 23.5921 10.6013 22.65L11.48 20.8027C10.4875 19.9637 9.69621 18.9448 9.23836 17.8386L9.22513 17.8042C8.82815 16.817 9.30452 15.6922 10.2917 15.2926Z" fill="white"/>
<path d="M21.8756 17.0023L19.3243 11.6351C19.0041 10.9629 18.3266 10.5341 17.5829 10.5341C17.2174 10.5337 16.8594 10.6375 16.5509 10.8335C16.2425 11.0294 15.9963 11.3094 15.8415 11.6404L13.2399 17.1134C13.9704 18.0794 15.2619 18.8734 16.5454 19.146L17.387 17.3781C17.4049 17.3406 17.4331 17.3089 17.4682 17.2868C17.5033 17.2646 17.544 17.2528 17.5855 17.2528C17.6271 17.2528 17.6677 17.2646 17.7029 17.2868C17.738 17.3089 17.7661 17.3406 17.784 17.3781L18.6071 19.1089M21.8756 17.0023C21.8756 17.0023 21.8756 17.0049 21.8729 17.0049C21.8729 17.0049 21.8729 17.0023 21.8756 17.0023ZM21.8756 17.0023C22.4737 16.2692 22.9077 15.4064 23.093 14.4801C23.302 13.4347 24.3183 12.7599 25.3637 12.9663C25.6122 13.0159 25.8485 13.1141 26.0591 13.2551C26.2697 13.3961 26.4504 13.5772 26.591 13.788C26.7316 13.9989 26.8293 14.2354 26.8784 14.484C26.9276 14.7327 26.9273 14.9885 26.8775 15.237C26.4488 17.3781 25.2525 19.2915 23.6328 20.6968L24.5591 22.6447C25.0726 23.7245 24.5353 25.0451 23.3973 25.3838L23.3629 25.3944C23.1935 25.4421 23.0189 25.4659 22.8495 25.4659C22.127 25.4659 21.4362 25.0583 21.1054 24.3649L20.2823 22.6341L18.6071 19.1089M18.6071 19.1089H18.6124M13.4119 17.3225C13.3987 17.3093 13.3881 17.2934 13.3749 17.2801L13.3511 17.251C13.3431 17.2404 13.3352 17.2325 13.3273 17.2219L13.2399 17.1108L13.2373 17.1081C13.0547 16.8673 12.9065 16.6159 12.8032 16.3592C12.4036 15.3694 11.2788 14.893 10.2917 15.2926C9.30452 15.6922 8.82815 16.817 9.22513 17.8042L9.23836 17.8386C9.69621 18.9448 10.4875 19.9637 11.48 20.8027L10.6013 22.65C10.1541 23.5921 10.4902 24.746 11.4112 25.2356C11.6412 25.3583 11.8938 25.4331 12.1535 25.4554C12.4133 25.4778 12.6749 25.4472 12.9226 25.3656C13.1702 25.2839 13.3987 25.1529 13.5942 24.9805C13.7898 24.808 13.9484 24.5977 14.0603 24.3623L14.8622 22.6764C15.7144 22.949 16.5931 23.0999 17.4611 23.0999C18.4245 23.0999 19.3746 22.9331 20.2797 22.6288L18.6044 19.1036C18.2286 19.1936 17.8449 19.2412 17.4611 19.2412H17.4241C17.1356 19.2386 16.8392 19.2042 16.5428 19.1407C15.8441 18.9925 15.1428 18.6907 14.5314 18.2885C14.5208 18.2832 14.5129 18.2752 14.5023 18.27C14.3938 18.1958 14.2879 18.1217 14.1847 18.0423C13.9651 17.8756 13.7613 17.6957 13.5787 17.5051C13.576 17.5051 13.576 17.5025 13.5734 17.4998C13.5178 17.4416 13.4622 17.3834 13.4119 17.3225ZM13.4119 17.3225C13.4146 17.3251 13.4172 17.3278 13.4172 17.3304L13.4119 17.3225Z" stroke="white" stroke-width="3" stroke-linejoin="round"/>
<path fill-rule="evenodd" clip-rule="evenodd" d="M14.8623 22.6764L16.5428 19.1407C15.2592 18.8681 13.9677 18.0741 13.2373 17.1081L11.48 20.8027C12.4566 21.631 13.629 22.2821 14.8623 22.6764Z" fill="#1A007F"/>
<path fill-rule="evenodd" clip-rule="evenodd" d="M21.8756 17.0023C21.0314 18.0371 19.8589 18.8045 18.6045 19.1036L20.2797 22.6288C21.5024 22.2159 22.6457 21.549 23.6329 20.6942L21.8756 17.0023Z" fill="#4E000A"/>
<path fill-rule="evenodd" clip-rule="evenodd" d="M11.4801 20.8027L10.6014 22.65C10.1542 23.5895 10.4903 24.746 11.4113 25.2356C12.3879 25.7544 13.5894 25.3494 14.0605 24.3623L14.8624 22.6764C13.624 22.2772 12.4753 21.6408 11.4801 20.8027Z" fill="#1A007F"/>
<path fill-rule="evenodd" clip-rule="evenodd" d="M25.3636 12.9689C25.1151 12.9192 24.8592 12.9189 24.6106 12.968C24.362 13.0172 24.1255 13.1148 23.9146 13.2554C23.7038 13.396 23.5227 13.5768 23.3817 13.7873C23.2407 13.9979 23.1425 14.2342 23.0929 14.4828C22.9076 15.409 22.4736 16.2718 21.8755 17.0049L23.6301 20.6995C25.2498 19.2942 26.4461 17.3807 26.8748 15.2397C27.0839 14.1916 26.4064 13.1754 25.3636 12.9689Z" fill="#FF9396"/>
<path fill-rule="evenodd" clip-rule="evenodd" d="M18.6044 19.1036C18.2286 19.1936 17.8449 19.2412 17.4611 19.2412C17.1621 19.2412 16.8524 19.2068 16.5428 19.1407C15.2592 18.8681 13.9677 18.0741 13.2373 17.1081C13.0547 16.8673 12.9065 16.6159 12.8032 16.3592C12.4036 15.372 11.2788 14.8956 10.2917 15.2926C9.30452 15.6922 8.82815 16.817 9.22513 17.8042C9.67769 18.9263 10.4769 19.9558 11.48 20.8027C12.4742 21.6408 13.6221 22.2772 14.8596 22.6764C15.7091 22.949 16.5904 23.0999 17.4585 23.0999C18.4218 23.0999 19.3719 22.9331 20.277 22.6288L18.6044 19.1036Z" fill="#002DC8"/>
<path fill-rule="evenodd" clip-rule="evenodd" d="M24.5566 22.642L23.6303 20.6942L21.8756 17.0023L21.873 17.0049C21.873 17.0049 21.873 17.0023 21.8756 17.0023L19.3244 11.6351C19.1678 11.3058 18.9211 11.0276 18.6129 10.8328C18.3047 10.6379 17.9476 10.5344 17.583 10.5341C16.8393 10.5341 16.1618 10.9629 15.8415 11.6351L13.24 17.1081C13.9704 18.0741 15.2619 18.8681 16.5455 19.1407L17.3871 17.3728C17.4665 17.206 17.7047 17.206 17.7841 17.3728L18.6072 19.1036L20.2824 22.6288L21.1055 24.3596C21.262 24.6895 21.509 24.9682 21.8178 25.1631C22.1266 25.358 22.4844 25.4612 22.8496 25.4606C23.0216 25.4606 23.1936 25.4368 23.363 25.3891C24.5248 25.0689 25.0753 23.7324 24.5566 22.642Z" fill="#FF536A"/>
<path fill-rule="evenodd" clip-rule="evenodd" d="M14.8622 22.6764L16.5428 19.1407C15.2592 18.8681 13.9677 18.0741 13.2373 17.1081L11.48 20.8027C12.4566 21.631 13.629 22.2821 14.8622 22.6764Z" fill="#1A007F"/>
<path fill-rule="evenodd" clip-rule="evenodd" d="M21.8756 17.0023C21.0314 18.0371 19.8589 18.8045 18.6045 19.1036L20.2797 22.6288C21.5024 22.2159 22.6457 21.549 23.6329 20.6942L21.8756 17.0023Z" fill="#4E000A"/>
<path fill-rule="evenodd" clip-rule="evenodd" d="M11.4801 20.8027L10.6014 22.65C10.1542 23.5895 10.4903 24.746 11.4113 25.2356C12.3878 25.7544 13.5894 25.3494 14.0605 24.3623L14.8624 22.6764C13.624 22.2772 12.4753 21.6408 11.4801 20.8027Z" fill="#1A007F"/>
<path fill-rule="evenodd" clip-rule="evenodd" d="M25.3636 12.9689C25.1151 12.9192 24.8592 12.9189 24.6106 12.968C24.362 13.0172 24.1255 13.1148 23.9146 13.2554C23.7038 13.396 23.5227 13.5768 23.3817 13.7873C23.2407 13.9979 23.1425 14.2342 23.0929 14.4828C22.9076 15.409 22.4736 16.2718 21.8755 17.0049L23.6301 20.6995C25.2498 19.2942 26.4461 17.3807 26.8748 15.2397C27.0839 14.1916 26.4064 13.1754 25.3636 12.9689Z" fill="#FF9396"/>
<path fill-rule="evenodd" clip-rule="evenodd" d="M18.6044 19.1036C18.2286 19.1936 17.8449 19.2412 17.4611 19.2412C17.1621 19.2412 16.8524 19.2068 16.5428 19.1407C15.2592 18.8681 13.9677 18.0741 13.2373 17.1081C13.0547 16.8673 12.9065 16.6159 12.8032 16.3592C12.4036 15.372 11.2788 14.8956 10.2917 15.2926C9.30452 15.6922 8.82815 16.817 9.22513 17.8042C9.67769 18.9263 10.4769 19.9558 11.48 20.8027C12.4742 21.6408 13.6221 22.2772 14.8596 22.6764C15.7091 22.949 16.5904 23.0999 17.4585 23.0999C18.4218 23.0999 19.3719 22.9331 20.277 22.6288L18.6044 19.1036Z" fill="#002DC8"/>
<path fill-rule="evenodd" clip-rule="evenodd" d="M24.5566 22.642L23.6303 20.6942L21.8756 17.0023L21.873 17.0049C21.873 17.0049 21.873 17.0023 21.8756 17.0023L19.3244 11.6351C19.1678 11.3058 18.9211 11.0276 18.6129 10.8328C18.3047 10.6379 17.9476 10.5344 17.5829 10.5341C16.8393 10.5341 16.1618 10.9629 15.8415 11.6351L13.24 17.1081C13.9704 18.0741 15.2619 18.8681 16.5455 19.1407L17.3871 17.3728C17.4665 17.206 17.7047 17.206 17.7841 17.3728L18.6072 19.1036L20.2824 22.6288L21.1055 24.3596C21.262 24.6895 21.509 24.9682 21.8178 25.1631C22.1266 25.358 22.4844 25.4612 22.8495 25.4606C23.0216 25.4606 23.1936 25.4368 23.363 25.3891C24.5248 25.0689 25.0753 23.7324 24.5566 22.642Z" fill="#FF536A"/>
</svg>
