<svg width="36" height="36" viewBox="0 0 36 36" fill="none" xmlns="http://www.w3.org/2000/svg">
<g clip-path="url(#clip0_24_164)">
<rect width="36" height="36" rx="10" fill="white"/>
<rect width="36" height="36" rx="10" fill="url(#paint0_radial_24_164)"/>
<g filter="url(#filter0_i_24_164)">
<path d="M13.4984 15.2487C13.7337 14.1492 13.8513 13.5995 14.1553 13.2261C14.4226 12.8977 14.7874 12.6626 15.1969 12.5547C15.6625 12.4321 16.2117 12.552 17.3102 12.7918L20.7834 13.5501C21.8736 13.7881 22.4187 13.9071 22.7896 14.2101C23.1158 14.4765 23.3495 14.8392 23.4575 15.2463C23.5802 15.7092 23.4635 16.2547 23.2301 17.3459L22.5016 20.751C22.2664 21.8506 22.1487 22.4004 21.8447 22.7738C21.5774 23.1022 21.2126 23.3373 20.803 23.4452C20.3374 23.5678 19.7881 23.4478 18.6896 23.2079L15.2163 22.4493C14.1262 22.2112 13.5811 22.0921 13.2103 21.7892C12.8842 21.5227 12.6504 21.1601 12.5425 20.7529C12.4198 20.2901 12.5365 19.7446 12.7699 18.6535L13.4984 15.2487Z" fill="#33373A"/>
</g>
</g>
<defs>
<filter id="filter0_i_24_164" x="12.4929" y="12.506" width="11.0142" height="10.9878" filterUnits="userSpaceOnUse" color-interpolation-filters="sRGB">
<feFlood flood-opacity="0" result="BackgroundImageFix"/>
<feBlend mode="normal" in="SourceGraphic" in2="BackgroundImageFix" result="shape"/>
<feColorMatrix in="SourceAlpha" type="matrix" values="0 0 0 0 0 0 0 0 0 0 0 0 0 0 0 0 0 0 127 0" result="hardAlpha"/>
<feOffset/>
<feGaussianBlur stdDeviation="2"/>
<feComposite in2="hardAlpha" operator="arithmetic" k2="-1" k3="1"/>
<feColorMatrix type="matrix" values="0 0 0 0 0 0 0 0 0 0 0 0 0 0 0 0 0 0 0.25 0"/>
<feBlend mode="normal" in2="shape" result="effect1_innerShadow_24_164"/>
</filter>
<radialGradient id="paint0_radial_24_164" cx="0" cy="0" r="1" gradientUnits="userSpaceOnUse" gradientTransform="translate(7 2.5) rotate(48.5763) scale(34.0074 34.0221)">
<stop stop-color="#F5FAF8"/>
<stop offset="1" stop-color="#9DADBC"/>
</radialGradient>
<clipPath id="clip0_24_164">
<rect width="36" height="36" rx="10" fill="white"/>
</clipPath>
</defs>
</svg>
