<svg width="36" height="36" viewBox="0 0 36 36" fill="none" xmlns="http://www.w3.org/2000/svg">
<rect width="36" height="36" rx="15" fill="white"/>
<path d="M26.5269 14.4701L25.9102 12.7951L26.3391 11.8335C26.3661 11.7729 26.3741 11.7055 26.362 11.6402C26.35 11.5749 26.3186 11.5148 26.2718 11.4677L25.1056 10.2889C24.8553 10.0349 24.538 9.85721 24.1905 9.77656C23.8431 9.69591 23.48 9.71561 23.1433 9.83337L22.8167 9.94691L21.0352 8.01682L18.0132 8H17.9936L14.952 8.02383L13.1719 9.96934L12.8551 9.8572C12.5163 9.73805 12.1505 9.71801 11.8007 9.79945C11.4509 9.88088 11.1315 10.0604 10.8802 10.3169L9.69296 11.5182C9.6557 11.5557 9.63067 11.6037 9.62117 11.6557C9.61166 11.7077 9.61812 11.7614 9.6397 11.8097L10.0868 12.8077L9.4729 14.4813L9.86957 15.9909L11.6791 22.8702C11.8876 23.6627 12.3672 24.3571 13.0345 24.8326C13.0345 24.8326 15.2309 26.3814 17.3979 27.7887C17.5693 27.9255 17.782 28 18.0013 28C18.2206 28 18.4334 27.9255 18.6047 27.7887C21.0394 26.1936 22.9653 24.827 22.9653 24.827C23.6321 24.3512 24.1112 23.6569 24.3193 22.8646L26.119 15.9825L26.5269 14.4701Z" fill="#F1562B"/>
<path d="M18.4981 20.3977C18.3828 20.3461 18.2638 20.303 18.1421 20.2688H17.9277C17.806 20.303 17.687 20.3461 17.5716 20.3977L17.032 20.622C16.861 20.6935 16.5863 20.821 16.4223 20.9023L15.4299 21.4195C15.394 21.4312 15.3623 21.4533 15.3391 21.4831C15.3159 21.5129 15.3021 21.549 15.2995 21.5867C15.2969 21.6244 15.3057 21.662 15.3247 21.6946C15.3437 21.7273 15.372 21.7535 15.4061 21.7699L16.2681 22.3783C16.4195 22.4848 16.6578 22.6726 16.7979 22.7988L17.0404 23.0076C17.1806 23.1281 17.409 23.3286 17.5478 23.4519L17.7777 23.6552C17.8487 23.7143 17.9382 23.7467 18.0307 23.7467C18.1231 23.7467 18.2127 23.7143 18.2837 23.6552L18.5248 23.4449L19.0322 23.002L19.2761 22.7889C19.4162 22.667 19.6531 22.4792 19.8045 22.3684L20.6665 21.7517C20.7006 21.7353 20.729 21.7091 20.7479 21.6763C20.7668 21.6435 20.7754 21.6058 20.7725 21.5681C20.7696 21.5304 20.7554 21.4944 20.7318 21.4649C20.7081 21.4354 20.6761 21.4137 20.6399 21.4027L19.6489 20.8995C19.4835 20.8154 19.2088 20.6893 19.0364 20.6192L18.4981 20.3977Z" fill="white"/>
<path d="M24.6094 14.8443L24.6375 14.7546C24.6391 14.6346 24.6316 14.5146 24.615 14.3958C24.5316 14.1835 24.4244 13.9813 24.2955 13.7931L23.7348 12.9703C23.6311 12.8161 23.4545 12.5722 23.3353 12.4278L22.584 11.4873C22.5155 11.3957 22.4411 11.3086 22.3612 11.2266H22.3458C22.3458 11.2266 22.1944 11.2533 22.0122 11.2883L20.8642 11.5098L20.361 11.6065C20.1939 11.6143 20.0269 11.5901 19.869 11.535L18.9621 11.242C18.7855 11.1846 18.494 11.1019 18.3132 11.0626C18.1226 11.0424 17.9304 11.0424 17.7399 11.0626C17.5591 11.1047 17.2675 11.186 17.0909 11.2434L16.184 11.5378C16.0261 11.5929 15.8591 11.6171 15.6921 11.6093L15.1889 11.514L14.0395 11.2939C13.8573 11.2589 13.7073 11.2308 13.7059 11.2322H13.6905C13.6106 11.3142 13.5362 11.4013 13.4676 11.4929L12.7177 12.4335C12.6028 12.5736 12.422 12.8231 12.3183 12.9759L11.7576 13.7987C11.6608 13.9406 11.5723 14.088 11.4927 14.2402C11.4447 14.4099 11.4192 14.5852 11.417 14.7616L11.445 14.8513C11.4585 14.9089 11.4758 14.9656 11.4969 15.0209C11.6132 15.1611 11.8123 15.3938 11.9398 15.5297L13.9021 17.6154C13.9673 17.6915 14.0109 17.7836 14.0284 17.8822C14.0459 17.9808 14.0367 18.0822 14.0017 18.1761L13.6807 18.9372C13.6077 19.1388 13.6023 19.3587 13.6653 19.5637L13.7297 19.7403C13.8351 20.0272 14.0157 20.2804 14.2526 20.4734L14.5609 20.7243C14.641 20.7821 14.7345 20.8186 14.8326 20.8303C14.9306 20.8421 15.0301 20.8288 15.1216 20.7916L16.2177 20.2687C16.4189 20.168 16.6071 20.0433 16.7784 19.8973L17.6558 19.1054C17.6907 19.0738 17.719 19.0356 17.7389 18.9929C17.7588 18.9502 17.7699 18.904 17.7716 18.8569C17.7733 18.8099 17.7656 18.7629 17.7488 18.7189C17.732 18.6749 17.7066 18.6348 17.674 18.6008L15.6935 17.2664C15.6185 17.2132 15.5651 17.1348 15.5429 17.0456C15.5208 16.9563 15.5315 16.8621 15.5729 16.78L16.341 15.3363C16.3847 15.2479 16.4105 15.1518 16.417 15.0534C16.4235 14.9551 16.4106 14.8564 16.3789 14.763C16.2835 14.5849 16.1295 14.4453 15.943 14.3677L13.5349 13.4581C13.3611 13.3922 13.3709 13.3179 13.5545 13.3067L14.9688 13.1665C15.1906 13.1524 15.4132 13.1723 15.629 13.2254L16.8596 13.5688C16.947 13.5951 17.0219 13.6523 17.0703 13.7296C17.1188 13.8069 17.1376 13.8992 17.1232 13.9893L16.6396 16.63C16.6072 16.7763 16.5992 16.9269 16.6158 17.0758C16.6354 17.1388 16.8008 17.2159 16.9816 17.2608L17.7315 17.4206C17.9493 17.4606 18.1725 17.4606 18.3903 17.4206L19.0645 17.2678C19.2453 17.2271 19.4093 17.1416 19.4303 17.0786C19.4464 16.9296 19.4379 16.779 19.4051 16.6328L18.9187 13.9921C18.9043 13.902 18.9231 13.8097 18.9715 13.7324C19.02 13.6551 19.0948 13.5979 19.1822 13.5716L20.4129 13.2268C20.6286 13.1737 20.8513 13.1538 21.073 13.1679L22.4873 13.2997C22.6723 13.3165 22.6808 13.3852 22.5083 13.4511L20.1017 14.3635C19.9152 14.4411 19.7612 14.5807 19.6658 14.7588C19.6019 14.9474 19.6156 15.1536 19.7036 15.3321L20.4731 16.7758C20.5146 16.8579 20.5252 16.9521 20.5031 17.0414C20.481 17.1306 20.4276 17.209 20.3526 17.2622L18.3734 18.5994C18.3409 18.6334 18.3154 18.6735 18.2987 18.7175C18.2819 18.7615 18.2741 18.8085 18.2758 18.8555C18.2775 18.9026 18.2887 18.9488 18.3086 18.9915C18.3285 19.0342 18.3567 19.0724 18.3917 19.104L19.2705 19.8959C19.4418 20.0414 19.63 20.1657 19.8312 20.2659L20.9273 20.7874C21.0189 20.8244 21.1184 20.8375 21.2165 20.8254C21.3145 20.8134 21.408 20.7767 21.4879 20.7187L21.7963 20.4664C22.0334 20.273 22.2141 20.0193 22.3191 19.7319L22.3836 19.5553C22.4466 19.3503 22.4412 19.1304 22.3682 18.9288L22.0458 18.1677C22.0108 18.0738 22.0016 17.9723 22.0191 17.8737C22.0366 17.7752 22.0802 17.683 22.1453 17.607L24.1076 15.5185C24.2352 15.3783 24.4328 15.1541 24.5492 15.0097C24.5729 14.956 24.593 14.9007 24.6094 14.8443Z" fill="white"/>
</svg>
