<svg width="36" height="36" viewBox="0 0 36 36" fill="none" xmlns="http://www.w3.org/2000/svg">
<rect width="36" height="36" rx="15" fill="#00C2E4"/>
<g clip-path="url(#clip0_52_200)">
<path d="M27.9851 24.33C27.9851 24.69 27.9051 25.06 27.7351 25.42C27.5651 25.78 27.3451 26.12 27.0551 26.44C26.5651 26.98 26.0251 27.37 25.4151 27.62C24.8151 27.87 24.1651 28 23.4651 28C22.4451 28 21.3551 27.76 20.2051 27.27C19.0551 26.78 17.9051 26.12 16.7651 25.29C15.6151 24.45 14.5251 23.52 13.4851 22.49C12.4551 21.45 11.5251 20.36 10.6951 19.22C9.87514 18.08 9.21514 16.94 8.73514 15.81C8.25514 14.67 8.01514 13.58 8.01514 12.54C8.01514 11.86 8.13514 11.21 8.37514 10.61C8.61514 10 8.99514 9.44 9.52514 8.94C10.1651 8.31 10.8651 8 11.6051 8C11.8851 8 12.1651 8.06 12.4151 8.18C12.6751 8.3 12.9051 8.48 13.0851 8.74L15.4051 12.01C15.5851 12.26 15.7151 12.49 15.8051 12.71C15.8951 12.92 15.9451 13.13 15.9451 13.32C15.9451 13.56 15.8751 13.8 15.7351 14.03C15.6051 14.26 15.4151 14.5 15.1751 14.74L14.4151 15.53C14.3051 15.64 14.2551 15.77 14.2551 15.93C14.2551 16.01 14.2651 16.08 14.2851 16.16C14.3151 16.24 14.3451 16.3 14.3651 16.36C14.5451 16.69 14.8551 17.12 15.2951 17.64C15.7451 18.16 16.2251 18.69 16.7451 19.22C17.2851 19.75 17.8051 20.24 18.3351 20.69C18.8551 21.13 19.2851 21.43 19.6251 21.61C19.6751 21.63 19.7351 21.66 19.8051 21.69C19.8851 21.72 19.9651 21.73 20.0551 21.73C20.2251 21.73 20.3551 21.67 20.4651 21.56L21.2251 20.81C21.4751 20.56 21.7151 20.37 21.9451 20.25C22.1751 20.11 22.4051 20.04 22.6551 20.04C22.8451 20.04 23.0451 20.08 23.2651 20.17C23.4851 20.26 23.7151 20.39 23.9651 20.56L27.2751 22.91C27.5351 23.09 27.7151 23.3 27.8251 23.55C27.9251 23.8 27.9851 24.05 27.9851 24.33Z" fill="white"/>
</g>
<defs>
<clipPath id="clip0_52_200">
<rect width="20" height="20" fill="white" transform="translate(8 8)"/>
</clipPath>
</defs>
</svg>
