<svg width="36" height="36" viewBox="0 0 36 36" fill="none" xmlns="http://www.w3.org/2000/svg">
<rect width="36" height="36" rx="10" fill="#2AC111"/>
<path fill-rule="evenodd" clip-rule="evenodd" d="M14.5 11C11.4624 11 9 13.4624 9 16.5C9 19.5376 11.4624 22 14.5 22H19L23 26V21.793C25.3085 21.14 27 19.0176 27 16.5C27 13.4624 24.5376 11 21.5 11H14.5Z" fill="white"/>
<path d="M19 22L19.7071 21.2929C19.5196 21.1054 19.2652 21 19 21V22ZM23 26L22.2929 26.7071C22.5789 26.9931 23.009 27.0787 23.3827 26.9239C23.7564 26.7691 24 26.4045 24 26H23ZM23 21.793L22.7278 20.8307C22.2973 20.9525 22 21.3455 22 21.793H23ZM10 16.5C10 14.0147 12.0147 12 14.5 12V10C10.9101 10 8 12.9101 8 16.5H10ZM14.5 21C12.0147 21 10 18.9853 10 16.5H8C8 20.0899 10.9101 23 14.5 23V21ZM19 21H14.5V23H19V21ZM23.7071 25.2929L19.7071 21.2929L18.2929 22.7071L22.2929 26.7071L23.7071 25.2929ZM22 21.793V26H24V21.793H22ZM26 16.5C26 18.5584 24.6171 20.2964 22.7278 20.8307L23.2722 22.7552C25.9999 21.9837 28 19.4767 28 16.5H26ZM21.5 12C23.9853 12 26 14.0147 26 16.5H28C28 12.9101 25.0898 10 21.5 10V12ZM14.5 12H21.5V10H14.5V12Z" fill="white"/>
</svg>
