<svg width="36" height="36" viewBox="0 0 36 36" fill="none" xmlns="http://www.w3.org/2000/svg">
<g clip-path="url(#clip0_52_418)">
<rect width="36" height="36" rx="15" fill="black"/>
<path fill-rule="evenodd" clip-rule="evenodd" d="M18 10H36V36H13L15.0324 25.4314C12.0834 24.2528 10 21.3696 10 18C10 13.5818 13.5818 10 18 10Z" fill="#FCC30F"/>
<path fill-rule="evenodd" clip-rule="evenodd" d="M11.8909 12.8345L-2.33845 1.94592L-15.8083 25.2765L11.0525 40.7846L23.8627 23.4431C25.1889 22.0153 25.9999 20.1023 25.9999 18C25.9999 13.5818 22.4182 10 17.9999 10C15.5506 10 13.3584 11.1007 11.8909 12.8345Z" fill="#229B45"/>
<path fill-rule="evenodd" clip-rule="evenodd" d="M0 -12H36L36.0002 10H18.0002C22.4183 10.0001 26 13.5818 26 18C26 22.4182 22.4182 25.9999 18 25.9999C15.0283 25.9999 12.435 24.3796 11.0555 21.9743L11.0535 21.976L-1.20799 2.38653L-2.5 -1L0 -12Z" fill="#E53729"/>
<path d="M26 18.0001C26 22.4183 22.4182 26 18 26C13.5818 26 10 22.4183 10 18.0001C10 13.5819 13.5818 10.0001 18 10.0001C22.4182 10.0001 26 13.5819 26 18.0001Z" fill="white"/>
<path d="M24.5 18.0001C24.5 21.5899 21.5898 24.5001 18 24.5001C14.4102 24.5001 11.5 21.5899 11.5 18.0001C11.5 14.4103 14.4102 11.5001 18 11.5001C21.5898 11.5001 24.5 14.4103 24.5 18.0001Z" fill="#1474E9"/>
</g>
<defs>
<clipPath id="clip0_52_418">
<rect width="36" height="36" rx="15" fill="white"/>
</clipPath>
</defs>
</svg>
