<svg width="36" height="36" viewBox="0 0 36 36" fill="none" xmlns="http://www.w3.org/2000/svg">
<g clip-path="url(#clip0_24_521)">
<rect width="36" height="36" rx="15" fill="#3EA9F5"/>
<rect width="36" height="36" rx="15" fill="black" fill-opacity="0.8"/>
<g filter="url(#filter0_d_24_521)">
<path d="M14.9998 26.5C13.1396 25.9544 11.8125 25.8554 10.1908 25.1595C8.90732 24.6087 7.45628 23.7923 6.68778 23.0237C6.22115 22.557 5.7691 21.7479 6.06758 21.1388C6.29706 20.6706 7.18873 20.1625 8.06992 19.9128C9.22646 19.585 11.0889 19.4152 12.2601 19.3965C14.0914 19.3671 16.0664 19.5596 17.7274 19.773C19.2308 19.9661 21.7402 20.4176 23.2285 20.6427C23.8613 20.7384 26.2488 21.0985 27.1762 21.0865C28.0084 21.0757 28.436 20.821 28.3809 20.4309C28.2787 19.707 27.1171 18.6234 26.5005 18.1235C24.9587 16.8736 22.9663 15.7207 21.1931 14.5615C19.6649 13.5624 17.935 12.4778 16.7993 11.3272C16.427 10.95 15.9523 10.3402 16.1872 9.82283C16.231 9.72625 16.4981 9.60564 16.711 9.5879C16.7689 9.58307 16.9327 9.61382 17.0052 9.61805" stroke="url(#paint0_radial_24_521)" stroke-opacity="0.75" stroke-width="2.16" stroke-linecap="round" shape-rendering="crispEdges"/>
</g>
<mask id="mask0_24_521" style="mask-type:alpha" maskUnits="userSpaceOnUse" x="12" y="8" width="14" height="20">
<path d="M19.5268 22.6983L23.9137 13.321C24.1984 12.7122 24.3408 12.4079 24.3311 12.1199C24.3226 11.8666 24.2341 11.6226 24.0783 11.4227C23.9012 11.1955 23.5969 11.0531 22.9881 10.7683L21.249 9.9547C20.6403 9.66992 20.3359 9.52753 20.048 9.53723C19.7947 9.54576 19.5506 9.63425 19.3508 9.79002C19.1235 9.96711 18.9811 10.2715 18.6963 10.8802L14.2837 20.3126C14.2264 20.4353 14.1977 20.4966 14.1762 20.5603C14.157 20.6169 14.1422 20.6748 14.1317 20.7336C14.1199 20.7998 14.1156 20.8674 14.1068 21.0025L14.1068 21.0025L13.9536 23.3765C13.8623 24.7911 13.8167 25.4984 14.0771 25.8511C14.3032 26.1572 14.6611 26.338 15.0417 26.3382C15.4801 26.3385 16.0222 25.8819 17.1065 24.9687L19.0245 23.3533C19.1452 23.2517 19.2055 23.2009 19.2582 23.1433C19.305 23.0921 19.3473 23.0369 19.3846 22.9784C19.4266 22.9126 19.46 22.8412 19.5268 22.6983Z" fill="white" stroke="white" stroke-width="1.8"/>
</mask>
<g mask="url(#mask0_24_521)">
<rect x="8.3999" y="8.39999" width="19.2" height="19.2" fill="url(#paint1_radial_24_521)"/>
<g filter="url(#filter1_b_24_521)">
<rect x="8.3999" y="8.39999" width="19.2" height="19.2" fill="url(#paint2_radial_24_521)" fill-opacity="0.01"/>
</g>
</g>
</g>
<defs>
<filter id="filter0_d_24_521" x="-3.40845" y="2.93312" width="41.1741" height="34.2212" filterUnits="userSpaceOnUse" color-interpolation-filters="sRGB">
<feFlood flood-opacity="0" result="BackgroundImageFix"/>
<feColorMatrix in="SourceAlpha" type="matrix" values="0 0 0 0 0 0 0 0 0 0 0 0 0 0 0 0 0 0 127 0" result="hardAlpha"/>
<feOffset dy="2"/>
<feGaussianBlur stdDeviation="4"/>
<feComposite in2="hardAlpha" operator="out"/>
<feColorMatrix type="matrix" values="0 0 0 0 0 0 0 0 0 0 0 0 0 0 0 0 0 0 0.1 0"/>
<feBlend mode="normal" in2="BackgroundImageFix" result="effect1_dropShadow_24_521"/>
<feBlend mode="normal" in="SourceGraphic" in2="effect1_dropShadow_24_521" result="shape"/>
</filter>
<filter id="filter1_b_24_521" x="3.5999" y="3.59999" width="28.8" height="28.8" filterUnits="userSpaceOnUse" color-interpolation-filters="sRGB">
<feFlood flood-opacity="0" result="BackgroundImageFix"/>
<feGaussianBlur in="BackgroundImageFix" stdDeviation="2.4"/>
<feComposite in2="SourceAlpha" operator="in" result="effect1_backgroundBlur_24_521"/>
<feBlend mode="normal" in="SourceGraphic" in2="effect1_backgroundBlur_24_521" result="shape"/>
</filter>
<radialGradient id="paint0_radial_24_521" cx="0" cy="0" r="1" gradientUnits="userSpaceOnUse" gradientTransform="translate(18.3113 9.89249) rotate(128.464) scale(18.0864 32.125)">
<stop stop-color="#87D4FF" stop-opacity="0"/>
<stop offset="1" stop-color="#87D4FF"/>
</radialGradient>
<radialGradient id="paint1_radial_24_521" cx="0" cy="0" r="1" gradientUnits="userSpaceOnUse" gradientTransform="translate(14.125 8.39999) rotate(88.1356) scale(19.2102)">
<stop stop-color="#00A3FF"/>
<stop offset="0.0001" stop-color="#00A3FF"/>
<stop offset="0.340278" stop-color="#00A3FF"/>
<stop offset="1" stop-color="#00FF75"/>
</radialGradient>
<radialGradient id="paint2_radial_24_521" cx="0" cy="0" r="1" gradientUnits="userSpaceOnUse" gradientTransform="translate(19.1999 8.4) rotate(104.036) scale(22.2648)">
<stop stop-color="#FA00FF"/>
<stop offset="0.340278" stop-color="#BD00FF"/>
<stop offset="1" stop-color="#FF9900"/>
</radialGradient>
<clipPath id="clip0_24_521">
<rect width="36" height="36" rx="15" fill="white"/>
</clipPath>
</defs>
</svg>
