<svg width="36" height="36" viewBox="0 0 36 36" fill="none" xmlns="http://www.w3.org/2000/svg">
<rect width="36" height="36" rx="15" fill="#D7254F"/>
<g clip-path="url(#clip0_24_150)">
<path d="M11.8333 22.5C11.8333 24.7091 13.6002 26.5 15.7799 26.5C17.9596 26.5 19.7266 24.7091 19.7266 22.5C19.7266 20.2909 17.9596 18.5 15.7799 18.5C13.6002 18.5 11.8333 20.2909 11.8333 22.5Z" fill="white"/>
<path d="M19.7266 22.5L19.7266 12.6956C19.7266 11.1898 19.7266 10.4369 20.036 10.0469C20.3052 9.70763 20.7137 9.50878 21.1467 9.50622C21.6446 9.50329 22.2371 9.96774 23.4223 10.8966L24.1666 11.48M19.7266 22.5C19.7266 24.7091 17.9596 26.5 15.7799 26.5C13.6002 26.5 11.8333 24.7091 11.8333 22.5C11.8333 20.2909 13.6002 18.5 15.7799 18.5C17.9596 18.5 19.7266 20.2909 19.7266 22.5Z" stroke="white" stroke-width="3" stroke-linecap="round"/>
</g>
<defs>
<clipPath id="clip0_24_150">
<rect width="20" height="20" fill="white" transform="translate(8 8)"/>
</clipPath>
</defs>
</svg>
