<svg width="36" height="36" viewBox="0 0 36 36" fill="none" xmlns="http://www.w3.org/2000/svg">
<rect width="36" height="36" rx="15" fill="#606060"/>
<path d="M9.88608 19.9289C9.33935 18.982 9.18981 18.6994 9.13088 18.4222C9.07172 18.1438 9.07172 17.8562 9.13088 17.5778C9.18981 17.3006 9.33935 17.018 9.88607 16.071L12.2726 11.9375C12.8193 10.9906 12.9893 10.7198 13.1999 10.5301C13.4113 10.3397 13.6605 10.1959 13.9311 10.1079C14.2006 10.0204 14.5201 10.0086 15.6136 10.0086L20.3866 10.0086C21.48 10.0086 21.7996 10.0204 22.0691 10.1079C22.3397 10.1959 22.5888 10.3397 22.8003 10.5301C23.0109 10.7198 23.1809 10.9906 23.7276 11.9375L26.1141 16.071C26.6608 17.018 26.8104 17.3006 26.8693 17.5778C26.9285 17.8562 26.9285 18.1438 26.8693 18.4222C26.8104 18.6994 26.6608 18.982 26.1141 19.9289L23.7276 24.0625C23.1809 25.0094 23.0109 25.2802 22.8003 25.4699C22.5888 25.6603 22.3397 25.8041 22.0691 25.892C21.7996 25.9796 21.48 25.9914 20.3866 25.9914L15.6136 25.9914C14.5202 25.9914 14.2006 25.9796 13.9311 25.892C13.6605 25.8041 13.4113 25.6603 13.1999 25.4699C12.9893 25.2802 12.8193 25.0094 12.2726 24.0625L9.88608 19.9289Z" fill="white" stroke="white" stroke-width="2.03048"/>
<rect x="14.9543" y="14.9543" width="6.09143" height="6.09143" rx="3.04571" fill="#606060"/>
</svg>
