<svg width="36" height="36" viewBox="0 0 36 36" fill="none" xmlns="http://www.w3.org/2000/svg">
<g clip-path="url(#clip0_24_363)">
<rect x="8" width="4" height="4" fill="#76C954"/>
<rect x="12" width="4" height="4" fill="#91DB6C"/>
<rect x="20" width="4" height="4" fill="#5AAE3B"/>
<rect y="4" width="4" height="4" fill="#5CAD3E"/>
<rect x="4" y="4" width="4" height="4" fill="#734A34"/>
<rect x="12" y="4" width="4" height="4" fill="#44912B"/>
<rect x="16" y="4" width="4" height="4" fill="#5BAC3D"/>
<rect x="20" y="4" width="4" height="4" fill="#76C955"/>
<rect x="32" width="4" height="4" fill="#76C955"/>
<rect x="24" y="4" width="4" height="4" fill="#724B32"/>
<rect x="28" y="4" width="4" height="4" fill="#77C854"/>
<rect y="8" width="4" height="4" fill="#724B31"/>
<rect x="8" y="8" width="4" height="4" fill="#724B32"/>
<rect x="12" y="8" width="4" height="4" fill="#704B32"/>
<rect width="4" height="4" fill="#91DB6E"/>
<rect x="4" width="4" height="4" fill="#5AAE3C"/>
<rect x="16" width="4" height="4" fill="#74C954"/>
<rect x="32" y="4" width="4" height="4" fill="#5AAE3B"/>
<rect x="24" width="4" height="4" fill="#76C954"/>
<rect x="28" width="4" height="4" fill="#5BAE3B"/>
<rect x="8" y="4" width="4" height="4" fill="#5AAE3C"/>
<rect x="16" y="8" width="4" height="4" fill="#76C954"/>
<rect x="20" y="8" width="4" height="4" fill="#724B36"/>
<rect x="32" y="8" width="4" height="4" fill="#724B36"/>
<rect x="24" y="8" width="4" height="4" fill="#8C6043"/>
<rect x="28" y="8" width="4" height="4" fill="#59AD3A"/>
<rect y="12" width="4" height="4" fill="#A27150"/>
<rect x="4" y="12" width="4" height="4" fill="#8C6040"/>
<rect x="8" y="12" width="4" height="4" fill="#A27150"/>
<rect x="16" y="12" width="4" height="4" fill="#714B32"/>
<rect x="20" y="12" width="4" height="4" fill="#8C6043"/>
<rect x="32" y="12" width="4" height="4" fill="#8C6043"/>
<rect x="24" y="12" width="4" height="4" fill="#A27050"/>
<rect x="28" y="12" width="4" height="4" fill="#724B32"/>
<rect y="16" width="4" height="4" fill="#8C6043"/>
<rect y="32" width="4" height="4" fill="#8C6043"/>
<rect x="4" y="16" width="4" height="4" fill="#724832"/>
<rect x="4" y="32" width="4" height="4" fill="#724832"/>
<rect x="8" y="16" width="4" height="4" fill="#724A31"/>
<rect x="8" y="32" width="4" height="4" fill="#724A31"/>
<rect x="12" y="16" width="4" height="4" fill="#A2714E"/>
<rect x="12" y="32" width="4" height="4" fill="#A2714E"/>
<rect x="16" y="16" width="4" height="4" fill="#8C6044"/>
<rect x="16" y="32" width="4" height="4" fill="#8C6044"/>
<rect x="20" y="32" width="4" height="4" fill="#B8845C"/>
<rect x="32" y="16" width="4" height="4" fill="#B8845C"/>
<rect x="32" y="32" width="4" height="4" fill="#B8845C"/>
<rect x="24" y="16" width="4" height="4" fill="#704C34"/>
<rect x="24" y="32" width="4" height="4" fill="#704C34"/>
<rect x="28" y="16" width="4" height="4" fill="#724B32"/>
<rect x="28" y="32" width="4" height="4" fill="#724B32"/>
<rect x="4" y="20" width="4" height="4" fill="#8C5F43"/>
<rect x="8" y="20" width="4" height="4" fill="#724B32"/>
<rect x="12" y="20" width="4" height="4" fill="#724B32"/>
<rect x="20" y="20" width="4" height="4" fill="#8C6043"/>
<rect x="32" y="20" width="4" height="4" fill="#8C6043"/>
<rect x="24" y="20" width="4" height="4" fill="#A27150"/>
<rect x="28" y="20" width="4" height="4" fill="#8C6040"/>
<rect y="24" width="4" height="4" fill="#8A5F43"/>
<rect x="4" y="24" width="4" height="4" fill="#A17052"/>
<rect x="8" y="24" width="4" height="4" fill="#714A2F"/>
<rect x="16" y="24" width="4" height="4" fill="#A0714D"/>
<rect x="32" y="24" width="4" height="4" fill="#B6845E"/>
<rect x="24" y="24" width="4" height="4" fill="#8B6041"/>
<rect x="28" y="24" width="4" height="4" fill="#A17252"/>
<rect y="28" width="4" height="4" fill="#6F4B33"/>
<rect x="4" y="28" width="4" height="4" fill="#8A6143"/>
<rect x="4" y="8" width="4" height="4" fill="#A09B95"/>
<rect x="16" y="20" width="4" height="4" fill="#A39B96"/>
<rect x="8" y="28" width="4" height="4" fill="#A39B96"/>
<rect x="12" y="28" width="4" height="4" fill="#8C603F"/>
<rect x="16" y="28" width="4" height="4" fill="#8C6043"/>
<rect x="20" y="28" width="4" height="4" fill="#A27150"/>
<rect x="32" y="28" width="4" height="4" fill="#A27150"/>
<rect x="24" y="28" width="4" height="4" fill="#724B32"/>
<rect x="12" y="12" width="4" height="4" fill="#B5855E"/>
<rect x="20" y="16" width="4" height="4" fill="#B8845C"/>
<rect y="20" width="4" height="4" fill="#B7845B"/>
<rect x="12" y="24" width="4" height="4" fill="#B5855E"/>
<rect x="20" y="24" width="4" height="4" fill="#B6845E"/>
<rect x="28" y="28" width="4" height="4" fill="#B6855C"/>
</g>
<defs>
<clipPath id="clip0_24_363">
<rect width="36" height="36" rx="15" fill="white"/>
</clipPath>
</defs>
</svg>
