<svg width="36" height="36" viewBox="0 0 36 36" fill="none" xmlns="http://www.w3.org/2000/svg">
<rect width="36" height="36" rx="15" fill="#2F2F2F"/>
<path d="M15 14.8C15 13.1198 15 12.2798 14.673 11.638C14.3854 11.0735 13.9265 10.6146 13.362 10.327C12.7202 10 11.8802 10 10.2 10H0V26H10.2C11.8802 26 12.7202 26 13.362 25.673C13.9265 25.3854 14.3854 24.9265 14.673 24.362C15 23.7202 15 22.8802 15 21.2V14.8Z" fill="#636363"/>
<path d="M18 9V27" stroke="#E43C3C" stroke-width="1.5" stroke-linecap="round"/>
<path d="M18 7C16.8954 7 16 7.89543 16 9C16 10.1046 16.8954 11 18 11C19.1046 11 20 10.1046 20 9C20 7.89543 19.1046 7 18 7ZM17.625 27C17.625 27.2071 17.7929 27.375 18 27.375C18.2071 27.375 18.375 27.2071 18.375 27H17.625ZM17.625 9V27H18.375V9H17.625Z" fill="#E43C3C"/>
<path d="M21 14.8C21 13.1198 21 12.2798 21.327 11.638C21.6146 11.0735 22.0735 10.6146 22.638 10.327C23.2798 10 24.1198 10 25.8 10H36V26H25.8C24.1198 26 23.2798 26 22.638 25.673C22.0735 25.3854 21.6146 24.9265 21.327 24.362C21 23.7202 21 22.8802 21 21.2V14.8Z" fill="#636363"/>
</svg>
