<svg width="36" height="36" viewBox="0 0 36 36" fill="none" xmlns="http://www.w3.org/2000/svg">
<rect width="36" height="36" rx="10" fill="#DBBA46"/>
<g clip-path="url(#clip0_24_95)">
<mask id="mask0_24_95" style="mask-type:luminance" maskUnits="userSpaceOnUse" x="10" y="8" width="16" height="20">
<path d="M12.5 8H23.9259C24.6519 8 25.0149 8 25.2922 8.14129C25.5361 8.26557 25.7344 8.46388 25.8587 8.70779C26 8.98508 26 9.34808 26 10.0741V25.9259C26 26.6519 26 27.0149 25.8587 27.2922C25.7344 27.5361 25.5361 27.7344 25.2922 27.8587C25.0149 28 24.6519 28 23.9259 28H12.5C11.837 28 11.2011 27.7366 10.7322 27.2678C10.2634 26.7989 10 26.163 10 25.5V10.5C10 9.83696 10.2634 9.20107 10.7322 8.73223C11.2011 8.26339 11.837 8 12.5 8Z" fill="white"/>
</mask>
<g mask="url(#mask0_24_95)">
<path d="M24.4 8C24.9601 8 25.2401 8 25.454 8.10899C25.6422 8.20487 25.7951 8.35785 25.891 8.54601C26 8.75992 26 9.03995 26 9.6V26.4C26 26.9601 26 27.2401 25.891 27.454C25.7951 27.6422 25.6422 27.7951 25.454 27.891C25.2401 28 24.9601 28 24.4 28H14.8C13.1198 28 12.2798 28 11.638 27.673C11.0735 27.3854 10.6146 26.9265 10.327 26.362C10 25.7202 10 24.8802 10 23.2V12.8C10 11.1198 10 10.2798 10.327 9.63803C10.6146 9.07354 11.0735 8.6146 11.638 8.32698C12.2798 8 13.1198 8 14.8 8H24.4Z" fill="#382F0F"/>
<path d="M24.4002 22.9998C24.9603 22.9998 25.2403 22.9998 25.4542 23.1088C25.6424 23.2046 25.7954 23.3576 25.8913 23.5458C26.0002 23.7597 26.0002 24.0397 26.0002 24.5998V26.4C26.0002 26.96 26.0002 27.24 25.8913 27.4539C25.7954 27.6421 25.6424 27.7951 25.4542 27.891C25.2403 28 24.9603 28 24.4002 28H12.5003C11.1196 28 10.0002 26.8806 10.0002 25.4999C10.0002 24.1191 11.1196 22.9998 12.5003 22.9998H24.4002Z" fill="white"/>
<path d="M14 23V8" stroke="#6D6136" stroke-width="2"/>
</g>
</g>
<defs>
<clipPath id="clip0_24_95">
<rect width="20" height="20" fill="white" transform="translate(8 8)"/>
</clipPath>
</defs>
</svg>
