<svg width="36" height="36" viewBox="0 0 36 36" fill="none" xmlns="http://www.w3.org/2000/svg">
<rect width="36" height="36" rx="15" fill="#5865F2"/>
<mask id="mask0_40_179" style="mask-type:alpha" maskUnits="userSpaceOnUse" x="8" y="10" width="20" height="16">
<path d="M24.9419 11.6904C23.6279 11.0888 22.2407 10.662 20.8158 10.421C20.6208 10.7695 20.4444 11.1282 20.2872 11.4954C18.7694 11.2666 17.2259 11.2666 15.708 11.4954C15.5508 11.1282 15.3744 10.7696 15.1795 10.421C13.7536 10.6641 12.3655 11.0919 11.0502 11.6936C8.43887 15.557 7.73099 19.3245 8.08493 23.0385C9.61417 24.1684 11.3258 25.0277 13.1455 25.5791C13.5552 25.028 13.9178 24.4433 14.2293 23.8314C13.6376 23.6104 13.0665 23.3377 12.5226 23.0165C12.6657 22.9127 12.8057 22.8057 12.941 22.7019C14.5237 23.4462 16.251 23.8321 18 23.8321C19.7489 23.8321 21.4763 23.4462 23.059 22.7019C23.1958 22.8136 23.3358 22.9206 23.4774 23.0165C22.9324 23.3382 22.3603 23.6114 21.7675 23.8329C22.0786 24.4446 22.4412 25.0288 22.8513 25.5791C24.6726 25.0299 26.3855 24.171 27.915 23.0401C28.3303 18.7331 27.2056 15.0002 24.9419 11.6904ZM14.6777 20.7545C13.6913 20.7545 12.8765 19.8594 12.8765 18.7582C12.8765 17.6571 13.663 16.7541 14.6745 16.7541C15.686 16.7541 16.4946 17.6571 16.4773 18.7582C16.4599 19.8594 15.6829 20.7545 14.6777 20.7545ZM21.3223 20.7545C20.3344 20.7545 19.5227 19.8594 19.5227 18.7582C19.5227 17.6571 20.3092 16.7541 21.3223 16.7541C22.3354 16.7541 23.1376 17.6571 23.1203 18.7582C23.103 19.8594 22.3275 20.7545 21.3223 20.7545Z" fill="white"/>
</mask>
<g mask="url(#mask0_40_179)">
<path d="M24.9419 11.6904C23.6279 11.0888 22.2407 10.662 20.8158 10.421C20.6208 10.7695 20.4444 11.1282 20.2872 11.4954C18.7694 11.2666 17.2259 11.2666 15.708 11.4954C15.5508 11.1282 15.3744 10.7696 15.1795 10.421C13.7536 10.6641 12.3655 11.0919 11.0502 11.6936C8.43887 15.557 7.73099 19.3245 8.08493 23.0385C9.61417 24.1684 11.3258 25.0277 13.1455 25.5791C13.5552 25.028 13.9178 24.4433 14.2293 23.8314C13.6376 23.6104 13.0665 23.3377 12.5226 23.0165C12.6657 22.9127 12.8057 22.8057 12.941 22.7019C14.5237 23.4462 16.251 23.8321 18 23.8321C19.7489 23.8321 21.4763 23.4462 23.059 22.7019C23.1958 22.8136 23.3358 22.9206 23.4774 23.0165C22.9324 23.3382 22.3603 23.6114 21.7675 23.8329C22.0786 24.4446 22.4412 25.0288 22.8513 25.5791C24.6726 25.0299 26.3855 24.171 27.915 23.0401C28.3303 18.7331 27.2056 15.0002 24.9419 11.6904ZM14.6777 20.7545C13.6913 20.7545 12.8765 19.8594 12.8765 18.7582C12.8765 17.6571 13.663 16.7541 14.6745 16.7541C15.686 16.7541 16.4946 17.6571 16.4773 18.7582C16.4599 19.8594 15.6829 20.7545 14.6777 20.7545ZM21.3223 20.7545C20.3344 20.7545 19.5227 19.8594 19.5227 18.7582C19.5227 17.6571 20.3092 16.7541 21.3223 16.7541C22.3354 16.7541 23.1376 17.6571 23.1203 18.7582C23.103 19.8594 22.3275 20.7545 21.3223 20.7545Z" fill="white"/>
</g>
</svg>
