<svg width="36" height="36" viewBox="0 0 36 36" fill="none" xmlns="http://www.w3.org/2000/svg">
<rect width="36" height="36" rx="10" fill="white"/>
<path d="M28.0034 19.5999V18.4C28.0034 16.1598 28.0034 15.0397 27.5675 14.184C27.184 13.4314 26.5721 12.8195 25.8194 12.436C24.9638 12 23.8436 12 21.6034 12H20.0459C19.8953 12 19.82 12 19.7474 11.9865C19.683 11.9745 19.6203 11.9546 19.5608 11.9274C19.4936 11.8966 19.4321 11.8533 19.3089 11.7666L18.2922 11.0506C17.7382 10.6604 17.4611 10.4653 17.1591 10.327C16.891 10.2042 16.6088 10.1148 16.3189 10.0609C15.9923 10.0001 15.6535 10.0001 14.9759 10.0001H14.4005C12.1603 10.0001 11.0402 10.0001 10.1845 10.436C9.43188 10.8195 8.81996 11.4315 8.43646 12.1841C8.00049 13.0398 8.00049 14.1599 8.00049 16.4001V19.5999C8.00049 21.8401 8.00049 22.9602 8.43646 23.8159C8.81996 24.5685 9.43188 25.1804 10.1845 25.5639C11.0402 25.9999 12.1603 25.9999 14.4005 25.9999H21.6034C23.8436 25.9999 24.9638 25.9999 25.8194 25.5639C26.5721 25.1804 27.184 24.5685 27.5675 23.8159C28.0034 22.9602 28.0034 21.8401 28.0034 19.5999Z" fill="#0A69AE"/>
<path d="M27.9996 19.5999V17.76C27.9996 15.7438 27.9996 14.7357 27.6072 13.9656C27.2621 13.2882 26.7113 12.7375 26.034 12.3924C25.2639 12 24.2558 12 22.2396 12H20.0106C19.8583 12 19.7821 12 19.7088 12.0138C19.6437 12.0261 19.5803 12.0464 19.5202 12.0742C19.4525 12.1056 19.3905 12.1499 19.2666 12.2384L19.2666 12.2384L18.3025 12.9271L18.3024 12.9271C17.7447 13.3255 17.4659 13.5247 17.1611 13.666C16.8907 13.7914 16.6057 13.8827 16.3127 13.9379C15.9826 14 15.6399 14 14.9545 14H13.7604C11.7443 14 10.7362 14 9.96611 14.3924C9.28873 14.7375 8.738 15.2883 8.39286 15.9656C8.00049 16.7357 8.00049 17.7438 8.00049 19.76V20.2399C8.00049 22.2561 8.00049 23.2642 8.39286 24.0343C8.738 24.7117 9.28873 25.2624 9.96611 25.6075C10.7362 25.9999 11.7443 25.9999 13.7604 25.9999H21.5996C23.8398 25.9999 24.9599 25.9999 25.8156 25.5639C26.5682 25.1804 27.1801 24.5685 27.5636 23.8159C27.9996 22.9602 27.9996 21.8401 27.9996 19.5999Z" fill="#3EA9F5"/>
</svg>
