<svg width="36" height="36" viewBox="0 0 36 36" fill="none" xmlns="http://www.w3.org/2000/svg">
<rect width="36" height="36" rx="15" fill="#2C2C2C"/>
<path d="M3.32759 18.9818C3.21699 18.65 3.16169 18.4841 3.19485 18.352C3.22388 18.2364 3.29603 18.1363 3.39652 18.0722C3.51131 17.999 3.68619 17.999 4.03594 17.999H31.9641C32.3138 17.999 32.4887 17.999 32.6035 18.0722C32.704 18.1363 32.7761 18.2364 32.8052 18.352C32.8383 18.4841 32.783 18.65 32.6724 18.9818L32.1702 20.4885C32.109 20.6721 32.0784 20.7639 32.0216 20.8317C31.9715 20.8917 31.9072 20.938 31.8344 20.9666C31.7521 20.999 31.6554 20.999 31.4618 20.999H4.53817C4.34464 20.999 4.24788 20.999 4.16555 20.9666C4.09285 20.938 4.02849 20.8917 3.97837 20.8317C3.92161 20.7639 3.89101 20.6721 3.82982 20.4885L3.32759 18.9818Z" fill="#999999" fill-opacity="0.5"/>
<rect x="5" y="15.001" width="5" height="5" rx="0.933333" fill="#FF7272"/>
<rect x="12" y="15.001" width="5" height="5" rx="0.933333" fill="#67ADFF"/>
<rect x="19" y="15.001" width="5" height="5" rx="0.933333" fill="#EF8AFF"/>
<rect x="26" y="15.001" width="5" height="5" rx="0.933333" fill="#88FF86"/>
</svg>
