<svg width="36" height="36" viewBox="0 0 36 36" fill="none" xmlns="http://www.w3.org/2000/svg">
<rect width="36" height="36" rx="10" fill="#303030"/>
<path d="M10.7335 14.2353L9.05418 18.3398C8.97713 18.5281 8.9375 18.7296 8.9375 18.9331C8.9375 19.7985 9.63902 20.5 10.5044 20.5H25.4956C26.361 20.5 27.0625 19.7985 27.0625 18.9331C27.0625 18.7296 27.0229 18.5281 26.9459 18.3398L25.267 14.2356C24.8997 13.3377 24.7161 12.8887 24.4129 12.5587C24.145 12.267 23.8116 12.0432 23.4403 11.9057C23.02 11.75 22.5349 11.75 21.5648 11.75H14.4356C13.4655 11.75 12.9805 11.75 12.5603 11.9056C12.1889 12.0432 11.8556 12.267 11.5877 12.5586C11.2845 12.8886 11.1008 13.3375 10.7335 14.2353L10.7335 14.2353Z" fill="#B0B0B0" stroke="#B0B0B0" stroke-width="1.875" stroke-linecap="round" stroke-linejoin="round"/>
<path d="M23.3127 24.25H12.6877C11.5229 24.25 10.9405 24.25 10.481 24.0597C9.86847 23.806 9.38178 23.3193 9.12805 22.7067C8.93774 22.2473 8.93774 21.6649 8.93774 20.5C8.93774 19.3352 8.93774 18.7527 9.12805 18.2933C9.38178 17.6807 9.86847 17.1941 10.481 16.9403C10.9405 16.75 11.5229 16.75 12.6877 16.75H23.3127C24.4776 16.75 25.06 16.75 25.5195 16.9403C26.132 17.1941 26.6187 17.6807 26.8724 18.2933C27.0627 18.7527 27.0627 19.3352 27.0627 20.5C27.0627 21.6649 27.0627 22.2473 26.8724 22.7067C26.6187 23.3193 26.132 23.806 25.5195 24.0597C25.06 24.25 24.4776 24.25 23.3127 24.25Z" fill="#505050" stroke="#505050" stroke-width="1.875" stroke-linecap="round" stroke-linejoin="round"/>
<path d="M12.5627 20.375H12.5711" stroke="#97FF82" stroke-width="1.875" stroke-linecap="round" stroke-linejoin="round"/>
<path d="M16.188 20.375H16.1963" stroke="#FF6B90" stroke-width="1.875" stroke-linecap="round" stroke-linejoin="round"/>
</svg>
