<svg width="36" height="36" viewBox="0 0 36 36" fill="none" xmlns="http://www.w3.org/2000/svg">
<rect width="36" height="36" rx="10" fill="#5C80FE"/>
<path d="M24.9561 17.9921C24.9561 21.8293 21.8455 24.9399 18.0083 24.9399C14.1712 24.9399 11.0605 21.8293 11.0605 17.9921C11.0605 14.1549 14.1712 11.0443 18.0083 11.0443C21.8455 11.0443 24.9561 14.1549 24.9561 17.9921Z" fill="#DCE4FF"/>
<path d="M29.3465 15.5456C29.5512 16.4322 24.6656 18.3171 18.4342 19.7557C12.2029 21.1943 6.98543 21.6419 6.78076 20.7553C6.57608 19.8688 11.4617 17.9838 17.693 16.5452C23.9244 15.1066 29.1418 14.659 29.3465 15.5456Z" fill="#9CB2FF"/>
<path d="M18.0059 10.9399C14.1684 10.9399 11.0574 14.1287 11.0574 18.0622C11.0574 18.2058 11.0616 18.3485 11.0698 18.49C12.8999 17.8433 15.195 17.1739 17.7091 16.579C20.1918 15.9914 22.5136 15.5652 24.4216 15.3224C23.3744 12.7488 20.8962 10.9399 18.0059 10.9399Z" fill="white"/>
<path d="M17.7091 16.579C15.195 17.1739 12.8999 17.8433 11.0698 18.49C11.0899 18.8381 11.1344 19.1794 11.2015 19.5123C13.1267 19.2716 15.4832 18.8411 18.0059 18.2441C20.5636 17.6389 22.8945 16.9565 24.7399 16.2995C24.6565 15.9636 24.5498 15.6373 24.4216 15.3224C22.5136 15.5652 20.1918 15.9914 17.7091 16.579Z" fill="white"/>
</svg>
