<svg width="36" height="36" viewBox="0 0 36 36" fill="none" xmlns="http://www.w3.org/2000/svg">
<g clip-path="url(#clip0_24_3075)">
<rect width="36" height="36" rx="15" fill="#001D48"/>
<g style="mix-blend-mode:plus-lighter">
<g filter="url(#filter0_bdd_24_3075)">
<ellipse cx="18.0002" cy="18" rx="2.54878" ry="12" transform="rotate(-150 18.0002 18)" fill="#AFCFFF" fill-opacity="0.4" shape-rendering="crispEdges"/>
<path d="M16.2259 16.9756C17.8707 14.1267 19.5981 11.702 21.0537 10.0849C21.7843 9.27323 22.4283 8.68542 22.9443 8.34605C23.203 8.17584 23.4061 8.08394 23.5539 8.04728C23.6989 8.01128 23.7458 8.03816 23.7502 8.0407C23.7546 8.04324 23.8013 8.07039 23.8427 8.21404C23.8848 8.36037 23.9068 8.58213 23.8887 8.89132C23.8528 9.50783 23.6658 10.3595 23.3281 11.3981C22.6555 13.4672 21.4193 16.1755 19.7745 19.0244C18.1297 21.8733 16.4024 24.298 14.9467 25.9151C14.2161 26.7267 13.5721 27.3146 13.0561 27.6539C12.7974 27.8241 12.5944 27.916 12.4466 27.9527C12.3015 27.9887 12.2546 27.9618 12.2502 27.9593C12.2458 27.9567 12.1991 27.9296 12.1577 27.7859C12.1156 27.6396 12.0937 27.4179 12.1117 27.1087C12.1476 26.4921 12.3346 25.6405 12.6723 24.6019C13.3449 22.5328 14.5811 19.8245 16.2259 16.9756Z" stroke="white" stroke-opacity="0.1" shape-rendering="crispEdges"/>
</g>
<g filter="url(#filter1_bdd_24_3075)">
<ellipse cx="18" cy="18" rx="2.54878" ry="12" transform="rotate(-120 18 18)" fill="#AFCFFF" fill-opacity="0.4" shape-rendering="crispEdges"/>
<path d="M16.9756 16.2257C19.8245 14.5809 22.5328 13.3447 24.6019 12.6721C25.6405 12.3344 26.4922 12.1474 27.1087 12.1115C27.4179 12.0935 27.6396 12.1154 27.7859 12.1575C27.9296 12.1989 27.9567 12.2456 27.9593 12.25C27.9618 12.2544 27.9887 12.3013 27.9527 12.4464C27.916 12.5941 27.8241 12.7972 27.6539 13.0559C27.3146 13.5719 26.7268 14.2159 25.9151 14.9465C24.298 16.4021 21.8733 18.1295 19.0244 19.7743C16.1755 21.4191 13.4672 22.6553 11.3981 23.3279C10.3595 23.6656 9.50784 23.8526 8.89133 23.8885C8.58213 23.9065 8.36037 23.8846 8.21404 23.8425C8.07039 23.8011 8.04324 23.7544 8.0407 23.75C8.03816 23.7456 8.01129 23.6987 8.04728 23.5536C8.08394 23.4058 8.17585 23.2028 8.34605 22.9441C8.68543 22.4281 9.27324 21.7841 10.0849 21.0535C11.702 19.5978 14.1267 17.8705 16.9756 16.2257Z" stroke="white" stroke-opacity="0.1" shape-rendering="crispEdges"/>
</g>
<g filter="url(#filter2_bdd_24_3075)">
<ellipse cx="18" cy="18" rx="2.54878" ry="12" transform="rotate(-90 18 18)" fill="#AFCFFF" fill-opacity="0.4" shape-rendering="crispEdges"/>
<path d="M18 15.9512C21.2896 15.9512 24.2531 16.2348 26.3814 16.6868C27.4496 16.9137 28.2807 17.1776 28.8326 17.4547C29.1094 17.5937 29.2905 17.7236 29.3961 17.8332C29.4998 17.9409 29.5 17.9949 29.5 18C29.5 18.0051 29.4998 18.0591 29.3961 18.1667C29.2905 18.2764 29.1094 18.4063 28.8326 18.5453C28.2807 18.8224 27.4496 19.0863 26.3814 19.3132C24.2531 19.7652 21.2896 20.0488 18 20.0488C14.7104 20.0488 11.7469 19.7652 9.6186 19.3132C8.55037 19.0863 7.71928 18.8224 7.1674 18.5453C6.89062 18.4063 6.70953 18.2764 6.60387 18.1667C6.50016 18.0591 6.5 18.0051 6.5 18C6.5 17.9949 6.50016 17.9409 6.60387 17.8332C6.70953 17.7236 6.89062 17.5937 7.1674 17.4547C7.71928 17.1776 8.55037 16.9137 9.6186 16.6868C11.7469 16.2348 14.7104 15.9512 18 15.9512Z" stroke="white" stroke-opacity="0.1" shape-rendering="crispEdges"/>
</g>
<g filter="url(#filter3_bdd_24_3075)">
<ellipse cx="18.0002" cy="18" rx="2.54878" ry="12" transform="rotate(-60 18.0002 18)" fill="#AFCFFF" fill-opacity="0.4" shape-rendering="crispEdges"/>
<path d="M19.0246 16.2257C21.8735 17.8705 24.2982 19.5978 25.9153 21.0535C26.7269 21.7841 27.3148 22.4281 27.6541 22.9441C27.8243 23.2028 27.9162 23.4058 27.9529 23.5536C27.9889 23.6987 27.962 23.7456 27.9595 23.75C27.9569 23.7544 27.9298 23.8011 27.7861 23.8425C27.6398 23.8846 27.4181 23.9065 27.1089 23.8885C26.4923 23.8526 25.6407 23.6656 24.6021 23.3279C22.533 22.6553 19.8247 21.4191 16.9758 19.7743C14.1269 18.1295 11.7022 16.4021 10.0851 14.9465C9.27343 14.2159 8.68562 13.5719 8.34625 13.0559C8.17604 12.7972 8.08414 12.5941 8.04748 12.4464C8.01148 12.3013 8.03836 12.2544 8.0409 12.25C8.04344 12.2456 8.07059 12.1989 8.21424 12.1575C8.36057 12.1154 8.58233 12.0935 8.89152 12.1115C9.50803 12.1474 10.3597 12.3344 11.3983 12.6721C13.4674 13.3447 16.1757 14.5809 19.0246 16.2257Z" stroke="white" stroke-opacity="0.1" shape-rendering="crispEdges"/>
</g>
<g filter="url(#filter4_bdd_24_3075)">
<ellipse cx="18.0003" cy="18" rx="2.54878" ry="12" transform="rotate(-30 18.0003 18)" fill="#AFCFFF" fill-opacity="0.4" shape-rendering="crispEdges"/>
<path d="M19.7746 16.9756C21.4194 19.8245 22.6556 22.5328 23.3282 24.6019C23.6658 25.6405 23.8529 26.4922 23.8888 27.1087C23.9068 27.4179 23.8849 27.6396 23.8428 27.7859C23.8014 27.9296 23.7547 27.9567 23.7503 27.9593C23.7459 27.9618 23.699 27.9887 23.5539 27.9527C23.4061 27.916 23.2031 27.8241 22.9444 27.6539C22.4284 27.3146 21.7843 26.7268 21.0537 25.9151C19.5981 24.298 17.8708 21.8733 16.226 19.0244C14.5812 16.1755 13.345 13.4672 12.6723 11.3981C12.3347 10.3595 12.1477 9.50784 12.1118 8.89133C12.0937 8.58213 12.1157 8.36037 12.1578 8.21404C12.1992 8.07039 12.2459 8.04324 12.2503 8.0407C12.2547 8.03816 12.3015 8.01129 12.4466 8.04728C12.5944 8.08394 12.7974 8.17585 13.0562 8.34605C13.5721 8.68543 14.2162 9.27324 14.9468 10.0849C16.4024 11.702 18.1298 14.1267 19.7746 16.9756Z" stroke="white" stroke-opacity="0.1" shape-rendering="crispEdges"/>
</g>
<g filter="url(#filter5_bdd_24_3075)">
<ellipse cx="18" cy="18" rx="2.54878" ry="12" fill="#AFCFFF" fill-opacity="0.4" shape-rendering="crispEdges"/>
<path d="M20.0487 18C20.0487 21.2896 19.7652 24.2531 19.3131 26.3814C19.0862 27.4496 18.8224 28.2807 18.5452 28.8326C18.4062 29.1094 18.2764 29.2905 18.1667 29.3961C18.0591 29.4998 18.005 29.5 18 29.5C17.9949 29.5 17.9408 29.4998 17.8332 29.3961C17.7235 29.2905 17.5937 29.1094 17.4547 28.8326C17.1775 28.2807 16.9137 27.4496 16.6868 26.3814C16.2347 24.2531 15.9512 21.2896 15.9512 18C15.9512 14.7104 16.2347 11.7469 16.6868 9.6186C16.9137 8.55037 17.1775 7.71928 17.4547 7.1674C17.5937 6.89062 17.7235 6.70953 17.8332 6.60387C17.9408 6.50016 17.9949 6.5 18 6.5C18.005 6.5 18.0591 6.50016 18.1667 6.60387C18.2764 6.70953 18.4062 6.89062 18.5452 7.1674C18.8224 7.71928 19.0862 8.55037 19.3131 9.6186C19.7652 11.7469 20.0487 14.7104 20.0487 18Z" stroke="white" stroke-opacity="0.1" shape-rendering="crispEdges"/>
</g>
</g>
</g>
<defs>
<filter id="filter0_bdd_24_3075" x="-0.88258" y="-4.95903" width="37.7654" height="45.9181" filterUnits="userSpaceOnUse" color-interpolation-filters="sRGB">
<feFlood flood-opacity="0" result="BackgroundImageFix"/>
<feGaussianBlur in="BackgroundImageFix" stdDeviation="1.95122"/>
<feComposite in2="SourceAlpha" operator="in" result="effect1_backgroundBlur_24_3075"/>
<feColorMatrix in="SourceAlpha" type="matrix" values="0 0 0 0 0 0 0 0 0 0 0 0 0 0 0 0 0 0 127 0" result="hardAlpha"/>
<feOffset/>
<feGaussianBlur stdDeviation="6.2439"/>
<feComposite in2="hardAlpha" operator="out"/>
<feColorMatrix type="matrix" values="0 0 0 0 0.341667 0 0 0 0 0.8815 0 0 0 0 1 0 0 0 0.1 0"/>
<feBlend mode="normal" in2="effect1_backgroundBlur_24_3075" result="effect2_dropShadow_24_3075"/>
<feColorMatrix in="SourceAlpha" type="matrix" values="0 0 0 0 0 0 0 0 0 0 0 0 0 0 0 0 0 0 127 0" result="hardAlpha"/>
<feOffset dy="3.90244"/>
<feGaussianBlur stdDeviation="1.95122"/>
<feComposite in2="hardAlpha" operator="out"/>
<feColorMatrix type="matrix" values="0 0 0 0 0 0 0 0 0 0 0 0 0 0 0 0 0 0 0.1 0"/>
<feBlend mode="normal" in2="effect2_dropShadow_24_3075" result="effect3_dropShadow_24_3075"/>
<feBlend mode="normal" in="SourceGraphic" in2="effect3_dropShadow_24_3075" result="shape"/>
</filter>
<filter id="filter1_bdd_24_3075" x="-4.959" y="-0.882671" width="45.918" height="37.7653" filterUnits="userSpaceOnUse" color-interpolation-filters="sRGB">
<feFlood flood-opacity="0" result="BackgroundImageFix"/>
<feGaussianBlur in="BackgroundImageFix" stdDeviation="1.95122"/>
<feComposite in2="SourceAlpha" operator="in" result="effect1_backgroundBlur_24_3075"/>
<feColorMatrix in="SourceAlpha" type="matrix" values="0 0 0 0 0 0 0 0 0 0 0 0 0 0 0 0 0 0 127 0" result="hardAlpha"/>
<feOffset/>
<feGaussianBlur stdDeviation="6.2439"/>
<feComposite in2="hardAlpha" operator="out"/>
<feColorMatrix type="matrix" values="0 0 0 0 0.341667 0 0 0 0 0.8815 0 0 0 0 1 0 0 0 0.1 0"/>
<feBlend mode="normal" in2="effect1_backgroundBlur_24_3075" result="effect2_dropShadow_24_3075"/>
<feColorMatrix in="SourceAlpha" type="matrix" values="0 0 0 0 0 0 0 0 0 0 0 0 0 0 0 0 0 0 127 0" result="hardAlpha"/>
<feOffset dy="3.90244"/>
<feGaussianBlur stdDeviation="1.95122"/>
<feComposite in2="hardAlpha" operator="out"/>
<feColorMatrix type="matrix" values="0 0 0 0 0 0 0 0 0 0 0 0 0 0 0 0 0 0 0.1 0"/>
<feBlend mode="normal" in2="effect2_dropShadow_24_3075" result="effect3_dropShadow_24_3075"/>
<feBlend mode="normal" in="SourceGraphic" in2="effect3_dropShadow_24_3075" result="shape"/>
</filter>
<filter id="filter2_bdd_24_3075" x="-6.4878" y="2.9634" width="48.9756" height="30.0732" filterUnits="userSpaceOnUse" color-interpolation-filters="sRGB">
<feFlood flood-opacity="0" result="BackgroundImageFix"/>
<feGaussianBlur in="BackgroundImageFix" stdDeviation="1.95122"/>
<feComposite in2="SourceAlpha" operator="in" result="effect1_backgroundBlur_24_3075"/>
<feColorMatrix in="SourceAlpha" type="matrix" values="0 0 0 0 0 0 0 0 0 0 0 0 0 0 0 0 0 0 127 0" result="hardAlpha"/>
<feOffset/>
<feGaussianBlur stdDeviation="6.2439"/>
<feComposite in2="hardAlpha" operator="out"/>
<feColorMatrix type="matrix" values="0 0 0 0 0.341667 0 0 0 0 0.8815 0 0 0 0 1 0 0 0 0.1 0"/>
<feBlend mode="normal" in2="effect1_backgroundBlur_24_3075" result="effect2_dropShadow_24_3075"/>
<feColorMatrix in="SourceAlpha" type="matrix" values="0 0 0 0 0 0 0 0 0 0 0 0 0 0 0 0 0 0 127 0" result="hardAlpha"/>
<feOffset dy="3.90244"/>
<feGaussianBlur stdDeviation="1.95122"/>
<feComposite in2="hardAlpha" operator="out"/>
<feColorMatrix type="matrix" values="0 0 0 0 0 0 0 0 0 0 0 0 0 0 0 0 0 0 0.1 0"/>
<feBlend mode="normal" in2="effect2_dropShadow_24_3075" result="effect3_dropShadow_24_3075"/>
<feBlend mode="normal" in="SourceGraphic" in2="effect3_dropShadow_24_3075" result="shape"/>
</filter>
<filter id="filter3_bdd_24_3075" x="-4.95875" y="-0.882671" width="45.918" height="37.7653" filterUnits="userSpaceOnUse" color-interpolation-filters="sRGB">
<feFlood flood-opacity="0" result="BackgroundImageFix"/>
<feGaussianBlur in="BackgroundImageFix" stdDeviation="1.95122"/>
<feComposite in2="SourceAlpha" operator="in" result="effect1_backgroundBlur_24_3075"/>
<feColorMatrix in="SourceAlpha" type="matrix" values="0 0 0 0 0 0 0 0 0 0 0 0 0 0 0 0 0 0 127 0" result="hardAlpha"/>
<feOffset/>
<feGaussianBlur stdDeviation="6.2439"/>
<feComposite in2="hardAlpha" operator="out"/>
<feColorMatrix type="matrix" values="0 0 0 0 0.341667 0 0 0 0 0.8815 0 0 0 0 1 0 0 0 0.1 0"/>
<feBlend mode="normal" in2="effect1_backgroundBlur_24_3075" result="effect2_dropShadow_24_3075"/>
<feColorMatrix in="SourceAlpha" type="matrix" values="0 0 0 0 0 0 0 0 0 0 0 0 0 0 0 0 0 0 127 0" result="hardAlpha"/>
<feOffset dy="3.90244"/>
<feGaussianBlur stdDeviation="1.95122"/>
<feComposite in2="hardAlpha" operator="out"/>
<feColorMatrix type="matrix" values="0 0 0 0 0 0 0 0 0 0 0 0 0 0 0 0 0 0 0.1 0"/>
<feBlend mode="normal" in2="effect2_dropShadow_24_3075" result="effect3_dropShadow_24_3075"/>
<feBlend mode="normal" in="SourceGraphic" in2="effect3_dropShadow_24_3075" result="shape"/>
</filter>
<filter id="filter4_bdd_24_3075" x="-0.882336" y="-4.95903" width="37.7654" height="45.9181" filterUnits="userSpaceOnUse" color-interpolation-filters="sRGB">
<feFlood flood-opacity="0" result="BackgroundImageFix"/>
<feGaussianBlur in="BackgroundImageFix" stdDeviation="1.95122"/>
<feComposite in2="SourceAlpha" operator="in" result="effect1_backgroundBlur_24_3075"/>
<feColorMatrix in="SourceAlpha" type="matrix" values="0 0 0 0 0 0 0 0 0 0 0 0 0 0 0 0 0 0 127 0" result="hardAlpha"/>
<feOffset/>
<feGaussianBlur stdDeviation="6.2439"/>
<feComposite in2="hardAlpha" operator="out"/>
<feColorMatrix type="matrix" values="0 0 0 0 0.341667 0 0 0 0 0.8815 0 0 0 0 1 0 0 0 0.1 0"/>
<feBlend mode="normal" in2="effect1_backgroundBlur_24_3075" result="effect2_dropShadow_24_3075"/>
<feColorMatrix in="SourceAlpha" type="matrix" values="0 0 0 0 0 0 0 0 0 0 0 0 0 0 0 0 0 0 127 0" result="hardAlpha"/>
<feOffset dy="3.90244"/>
<feGaussianBlur stdDeviation="1.95122"/>
<feComposite in2="hardAlpha" operator="out"/>
<feColorMatrix type="matrix" values="0 0 0 0 0 0 0 0 0 0 0 0 0 0 0 0 0 0 0.1 0"/>
<feBlend mode="normal" in2="effect2_dropShadow_24_3075" result="effect3_dropShadow_24_3075"/>
<feBlend mode="normal" in="SourceGraphic" in2="effect3_dropShadow_24_3075" result="shape"/>
</filter>
<filter id="filter5_bdd_24_3075" x="2.96337" y="-6.4878" width="30.0733" height="48.9756" filterUnits="userSpaceOnUse" color-interpolation-filters="sRGB">
<feFlood flood-opacity="0" result="BackgroundImageFix"/>
<feGaussianBlur in="BackgroundImageFix" stdDeviation="1.95122"/>
<feComposite in2="SourceAlpha" operator="in" result="effect1_backgroundBlur_24_3075"/>
<feColorMatrix in="SourceAlpha" type="matrix" values="0 0 0 0 0 0 0 0 0 0 0 0 0 0 0 0 0 0 127 0" result="hardAlpha"/>
<feOffset/>
<feGaussianBlur stdDeviation="6.2439"/>
<feComposite in2="hardAlpha" operator="out"/>
<feColorMatrix type="matrix" values="0 0 0 0 0.341667 0 0 0 0 0.8815 0 0 0 0 1 0 0 0 0.1 0"/>
<feBlend mode="normal" in2="effect1_backgroundBlur_24_3075" result="effect2_dropShadow_24_3075"/>
<feColorMatrix in="SourceAlpha" type="matrix" values="0 0 0 0 0 0 0 0 0 0 0 0 0 0 0 0 0 0 127 0" result="hardAlpha"/>
<feOffset dy="3.90244"/>
<feGaussianBlur stdDeviation="1.95122"/>
<feComposite in2="hardAlpha" operator="out"/>
<feColorMatrix type="matrix" values="0 0 0 0 0 0 0 0 0 0 0 0 0 0 0 0 0 0 0.1 0"/>
<feBlend mode="normal" in2="effect2_dropShadow_24_3075" result="effect3_dropShadow_24_3075"/>
<feBlend mode="normal" in="SourceGraphic" in2="effect3_dropShadow_24_3075" result="shape"/>
</filter>
<clipPath id="clip0_24_3075">
<rect width="36" height="36" rx="15" fill="white"/>
</clipPath>
</defs>
</svg>
