<svg width="36" height="36" viewBox="0 0 36 36" fill="none" xmlns="http://www.w3.org/2000/svg">
<rect width="36" height="36" rx="10" fill="#001033"/>
<g clip-path="url(#clip0_74_3686)">
<path d="M13.447 19.7095L14.0771 21.4563L15.0239 22.7338L17.2465 23.158L18.3099 23.2484L20.1254 22.7947L20.9075 22.0452L13.447 19.7095Z" fill="#09204D"/>
<path d="M22.8523 17.1343L22.6296 16.3958L21.9933 15.1949L21.2654 14.4275L20.4926 13.8756L19.8217 13.6124L19.0166 13.326L17.6911 13.2416L16.8551 13.3923L16.1731 13.6021L14.963 14.3104L14.2067 15.1544L13.5092 16.2872L13.2349 17.2512L13.1836 18.714L13.4452 19.7113L14.0222 20.8466L14.4289 21.3949L14.9916 21.911L15.6942 22.3863L16.5607 22.7632L18.0106 22.9333L18.7679 22.9544L19.8883 22.6389L20.89 22.089L21.5343 21.5391L22.0341 20.9431L22.7406 19.56L22.8964 18.6138L22.8523 17.1343Z" fill="#09204D"/>
<path d="M17.7175 13.9063L17.1238 14.4952L18.0922 14.8879L18.8126 13.9943L17.7175 13.9063Z" fill="#0E56D7"/>
<path d="M18.0916 14.8868L19.9664 14.8298L18.812 13.9933L18.0916 14.8868Z" fill="#1053D1"/>
<path d="M19.8281 13.9863L18.813 13.9925L19.9674 14.8291L21.0349 14.7594L19.8281 13.9863Z" fill="#0B4FBF"/>
<path d="M21.0332 14.7604L20.4263 13.9236L21.2662 14.4268L21.0332 14.7604Z" fill="#0B48B0"/>
<path d="M21.8382 15.2739L21.0347 14.7614L21.2677 14.4278L21.8382 15.2739Z" fill="#0C45A7"/>
<path d="M21.0331 14.7604L20.8987 15.3338L21.6336 15.6277L21.0331 14.7604Z" fill="#0F46AF"/>
<path d="M21.0332 14.7604L21.8367 15.2729L21.6336 15.6277L21.0332 14.7604Z" fill="#0C47AD"/>
<path d="M19.9675 14.8301L21.035 14.7604L20.9006 15.3338L19.9675 14.8301Z" fill="#0E4FC3"/>
<path d="M19.9675 14.8301L19.124 15.5939L20.2096 16.1254L19.9675 14.8301Z" fill="#174DCA"/>
<path d="M18.0916 14.8868L19.9664 14.8298L19.1229 15.5936L18.0916 14.8868Z" fill="#1650D4"/>
<path d="M20.8989 15.3333L21.4093 16.3236L21.6338 15.6271L20.8989 15.3333Z" fill="#1246B2"/>
<path d="M21.4099 16.3241L21.6344 15.6277L22.1693 16.8997L21.4099 16.3241Z" fill="#133EA1"/>
<path d="M21.6343 15.6274L22.4494 16.2245L22.1692 16.8995L21.6343 15.6274Z" fill="#103D98"/>
<path d="M21.8381 15.2739L21.9955 15.1952L22.4502 16.2258L21.8381 15.2739Z" fill="#0B3785"/>
<path d="M22.4498 16.226L22.6314 16.3963L21.9951 15.1955L22.4498 16.226Z" fill="#0B3685"/>
<path d="M22.4496 16.226L21.8376 15.2742L21.6345 15.6289L22.4496 16.226ZM21.2671 14.4281L21.8376 15.2742L21.995 15.1967L21.2671 14.4281Z" fill="#0C3B91"/>
<path d="M22.8135 17.7097L22.6318 16.3943L22.8545 17.1328L22.8107 17.7097H22.8135Z" fill="#0B3279"/>
<path d="M22.4497 16.226L22.813 17.7118L22.6314 16.3963L22.4497 16.226Z" fill="#0F388D"/>
<path d="M22.1685 16.8995L22.812 17.7102L22.4487 16.2245L22.1685 16.8995Z" fill="#0D3481"/>
<path d="M22.811 17.7097L22.8549 17.1328L22.899 18.6123L22.8139 17.7097H22.811Z" fill="#0B2E71"/>
<path d="M22.7051 18.8812L22.8981 18.6144L22.8129 17.7118L22.7051 18.8812Z" fill="#0E2F77"/>
<path d="M22.7412 19.5598L22.5869 19.6341L22.8971 18.6136L22.7412 19.5598Z" fill="#0E2969"/>
<path d="M22.5864 19.6346L22.8966 18.6141L22.7036 18.8809L22.5864 19.6346Z" fill="#0C2A69"/>
<path d="M22.7051 18.8812L22.813 17.7118L22.4824 18.1017L22.7051 18.8812Z" fill="#123180"/>
<path d="M22.5864 19.6346L22.7035 18.8809L22.0659 19.9525L22.5864 19.6346Z" fill="#112B70"/>
<path d="M22.1685 16.8995L22.812 17.7102L22.4814 18.1001L22.1685 16.8995Z" fill="#12378C"/>
<path d="M22.7051 18.8812L22.4825 18.1017L22.1462 19.0615L22.7051 18.8812Z" fill="#122E7B"/>
<path d="M22.0342 20.9428L22.5864 19.6341L22.0698 20.5881L22.0342 20.9428Z" fill="#11296C"/>
<path d="M22.0703 20.5868L22.5869 19.6328L22.0664 19.9507L22.0703 20.5868Z" fill="#142A72"/>
<path d="M22.5865 19.6346L22.0343 20.9426L22.7408 19.5595L22.5865 19.6346ZM21.5347 21.5394L22.0343 20.9434L22.0699 20.5886L21.5347 21.5394ZM20.8896 22.0893L21.5347 21.5394L20.8535 21.8527L20.8896 22.0893Z" fill="#112768"/>
<path d="M17.129 22.4704L16.478 22.6299L16.4979 22.1752L17.129 22.4704Z" fill="#1C226A"/>
<path d="M13.5116 16.2854L13.6912 16.2188L13.2373 17.2494L13.5116 16.2854Z" fill="#182B7A"/>
<path d="M13.2354 17.2504L13.579 17.1864L13.6892 16.2198L13.2354 17.2504Z" fill="#1F308D"/>
<path d="M13.256 18.489L13.2354 17.2512L13.579 17.1872L13.256 18.489Z" fill="#1E2B7F"/>
<path d="M20.8991 15.3332L20.2081 16.1249L21.4095 16.3236L20.8991 15.3332ZM14.8689 14.5215L15.7508 13.9179L14.9636 14.3096L14.8689 14.5215Z" fill="#1346B5"/>
<path d="M14.9644 14.3089L16.1745 13.6006L15.7516 13.9177L14.9644 14.3089Z" fill="#1244AC"/>
<path d="M15.7512 13.9192L16.8561 13.3923L16.1741 13.6021L15.7512 13.9192Z" fill="#0E4AB6"/>
<path d="M19.9673 14.8301L20.2094 16.1254L20.9004 15.3338L19.9673 14.8301ZM16.4246 13.8571L17.4541 13.4442L16.8565 13.3905L16.4246 13.8571Z" fill="#0E4BBA"/>
<path d="M17.6917 13.2406L16.8557 13.3913L17.4533 13.445L17.6917 13.2406Z" fill="#0A4EBC"/>
<path d="M18.4839 13.4341L17.4548 13.4442L17.6933 13.2398" fill="#0C54CC"/>
<path d="M20.4267 13.9244L19.8267 13.9881L21.0335 14.7622L20.4267 13.9244ZM18.4829 13.4365L19.8229 13.613L19.0178 13.3265L18.4829 13.4365Z" fill="#0B4BB4"/>
<path d="M20.4268 13.9244L19.823 13.6124L20.4939 13.8756L20.4268 13.9244Z" fill="#0C3889"/>
<path d="M13.4469 19.7094L13.844 20.0353L13.2583 18.4872L13.4469 19.7094ZM18.9146 22.7878L19.2629 21.9677L17.9937 22.3086L18.9146 22.7878ZM19.2629 21.9677L20.324 22.2621L20.3882 21.4416L19.2629 21.9677Z" fill="#202575"/>
<path d="M20.855 21.8511L20.3879 21.4429L21.5163 20.6931L20.855 21.8511Z" fill="#1B2773"/>
<path d="M21.5156 20.6926L20.8542 21.8506L21.5355 21.5373L22.0706 20.5865L21.5156 20.6926Z" fill="#15276D"/>
<path d="M20.4939 13.8754L20.4268 13.9241L21.2667 14.4273L20.4939 13.8754ZM19.8269 13.9879L20.4268 13.9241L19.823 13.6122L19.8269 13.9879Z" fill="#0C409D"/>
<path d="M17.6917 13.2406L18.4823 13.4349L19.0172 13.325L17.6917 13.2406ZM19.8222 13.6114L18.4823 13.4349L19.8261 13.9871L19.8222 13.6114Z" fill="#0B4CB7"/>
<path d="M18.4836 13.4341L18.8124 13.9925L19.8275 13.9863L18.4836 13.4341Z" fill="#0B55CE"/>
<path d="M18.4839 13.4341L18.8126 13.9925L17.7175 13.9045L18.4839 13.4341Z" fill="#0A52C5"/>
<path d="M17.4541 13.4445L17.7168 13.9048L18.4831 13.4344L17.4541 13.4445Z" fill="#0951C4"/>
<path d="M16.4246 13.8573L17.4541 13.4455L17.7168 13.9058L16.4246 13.8573Z" fill="#0B50C4"/>
<path d="M15.7512 13.9192L16.4242 13.8578L16.8561 13.3934L15.7512 13.9192ZM16.4242 13.8578L17.1227 14.4952L17.7161 13.9063L16.4242 13.8578Z" fill="#0F4DBF"/>
<path d="M16.4247 13.8573L15.2876 14.9237L15.7518 13.9187L16.4247 13.8573Z" fill="#1546B6"/>
<path d="M15.2869 14.923L16.0124 15.0435L16.424 13.8565L15.2869 14.923Z" fill="#1549BD"/>
<path d="M16.012 15.0442L16.4235 13.8573L17.122 14.4946L16.012 15.0442Z" fill="#144BC3"/>
<path d="M14.2083 15.1526L14.2524 15.5815L14.8698 14.521L14.2083 15.1526Z" fill="#173794"/>
<path d="M13.6897 16.2209L14.2076 15.1547L14.2517 15.5835L13.6897 16.2209Z" fill="#192F84"/>
<path d="M14.252 15.5835L14.8694 14.523L15.2872 14.9245L14.252 15.5835Z" fill="#1A389B"/>
<path d="M14.2133 16.5021L14.2507 15.5825L13.6887 16.2198L14.2133 16.5021Z" fill="#1D3089"/>
<path d="M14.2134 16.5021L14.2508 15.5825L14.9802 16.1747L14.2134 16.5021Z" fill="#1E389F"/>
<path d="M14.9824 16.1744L15.2882 14.9232L14.2529 15.5822L14.9824 16.1744Z" fill="#1C40AF"/>
<path d="M14.9824 16.1744L15.2882 14.9232L16.0138 15.0437L14.9824 16.1744Z" fill="#1E41B7"/>
<path d="M13.5786 17.1859L13.6888 16.2193L14.2134 16.5016L13.5786 17.1859Z" fill="#192C7D"/>
<path d="M18.9148 22.7903L19.8904 22.6389L20.3242 22.2647L18.9148 22.7903ZM13.1865 18.7134L13.2585 18.4884L13.2379 17.2499L13.1865 18.7134ZM13.5816 17.1867L13.2585 18.4884L13.8442 20.0366L13.5576 18.2433L13.5816 17.1867Z" fill="#162467"/>
<path d="M13.8418 20.0372L14.3251 20.105L13.9866 19.3149L13.8418 20.0372Z" fill="#1A236A"/>
<path d="M20.8549 21.8511L20.3237 22.264L19.8899 22.6381L20.8916 22.0882L20.8549 21.8511ZM18.0114 22.932L18.7688 22.9532L19.8891 22.6376L18.9135 22.7891L18.0114 22.932ZM14.2932 20.9343L14.801 21.0319L14.3255 20.103L14.2932 20.9343Z" fill="#132668"/>
<path d="M16.4995 22.1762L15.6394 21.5141L15.2821 21.8581L16.4796 22.6309L16.4995 22.1762ZM13.4469 19.7108L14.0239 20.8461L13.8433 20.0366L13.4469 19.7108ZM13.1853 18.7135L13.4469 19.7108L13.2573 18.4885L13.1853 18.7135ZM17.9924 22.3104L16.4984 22.176L17.1296 22.4712L16.4786 22.6306L15.6949 22.3865L16.5614 22.7635L18.0113 22.9336L18.9144 22.7906L17.9924 22.3104ZM14.3258 20.1042L13.8435 20.0364L14.2946 20.9349L14.3258 20.1042ZM13.5566 18.2426L13.8435 20.0364L13.9883 19.3139L13.5566 18.2426ZM14.8014 21.0319L14.2935 20.9343L14.0242 20.8453L14.4308 21.3936L14.9936 21.9097L15.6954 22.386L15.2826 21.8583L14.8014 21.0319Z" fill="#1B2268"/>
<path d="M13.5786 17.1859L14.2606 18.241L14.2134 16.5016L13.5786 17.1859Z" fill="#212A81"/>
<path d="M13.5579 18.2438L13.9885 19.3154L14.2631 18.2428L13.5579 18.2438Z" fill="#21267A"/>
<path d="M13.9863 19.3147L14.2609 18.242L14.6017 19.0897L13.9863 19.3147Z" fill="#262781"/>
<path d="M14.3269 20.1042L15.6346 20.9147L14.6038 19.0891L14.3269 20.1042Z" fill="#272379"/>
<path d="M14.0249 20.8448L14.295 20.9338L13.8442 20.0353L14.0249 20.8448ZM16.9122 21.311L16.4994 22.1749L17.9934 22.3094L16.9122 21.311ZM14.3268 20.1032L14.8023 21.0321L15.2825 21.8578L15.6399 21.5139L15.6345 20.9147L14.3268 20.1032Z" fill="#1E226D"/>
<path d="M20.388 21.4434L20.3237 22.264L20.855 21.8511L20.388 21.4434ZM18.1016 21.3255L17.9929 22.3104L19.2627 21.9695L19.2175 20.8623L18.1016 21.3255Z" fill="#222475"/>
<path d="M13.5579 18.2438H14.2631L13.5811 17.1888L13.5579 18.2438ZM19.2191 20.8629L19.2642 21.9701L20.3895 21.4439L19.2191 20.8629Z" fill="#23277D"/>
<path d="M19.2166 20.8629L19.9408 20.2069L20.387 21.4439L19.2166 20.8629Z" fill="#1E2776"/>
<path d="M20.388 21.4434L20.9356 19.785L19.9419 20.2064L20.388 21.4434Z" fill="#222B86"/>
<path d="M21.5156 20.6926L20.3872 21.4424L20.9347 19.784L21.5156 20.6926Z" fill="#192974"/>
<path d="M22.0678 19.952L20.9358 19.7856L21.5166 20.6941L22.0716 20.588L22.0678 19.952Z" fill="#172A75"/>
<path d="M22.1453 19.0592L20.9346 19.784L22.0666 19.9504L22.7041 18.8786L22.1453 19.0592Z" fill="#172D7D"/>
<path d="M13.6896 16.2209L14.2074 15.1547L13.5107 16.2875L13.6896 16.2209ZM21.6937 17.5407L22.1452 19.0613L22.4807 18.1014L21.6937 17.5407Z" fill="#18338A"/>
<path d="M22.4806 18.0993L22.1676 16.8987L21.6929 17.5386L22.4806 18.0993Z" fill="#153791"/>
<path d="M20.9351 19.7843L22.1457 19.0595L20.9725 18.5372L20.9351 19.7843Z" fill="#1B318B"/>
<path d="M20.935 19.7843L19.8379 18.6758L19.9414 20.2056L20.935 19.7843Z" fill="#242D8D"/>
<path d="M19.2165 20.8629L18.374 20.1169L19.9408 20.2069L19.2165 20.8629Z" fill="#2A2B8F"/>
<path d="M14.3268 20.1042L14.6037 19.0891L13.9883 19.3141L14.3268 20.1042ZM18.3753 20.1158L18.1018 21.3255L19.2173 20.8623L18.3753 20.1158Z" fill="#27267F"/>
<path d="M16.6311 20.3648L15.8203 19.9525L15.6338 20.9157L16.9121 21.3131L18.1019 21.3265L16.6311 20.3648Z" fill="#2D2381"/>
<path d="M18.1019 21.3247L18.3749 20.1156L16.6311 20.3631L18.1019 21.3247Z" fill="#2F2485"/>
<path d="M14.2623 18.2413L14.6119 17.1245L14.2151 16.5019L14.2623 18.2413Z" fill="#233196"/>
<path d="M14.9824 16.1744L16.5177 15.727L15.7067 17.3838L14.9824 16.1744Z" fill="#293CB7"/>
<path d="M20.935 19.7843L19.8379 18.6758L20.9725 18.5372L20.935 19.7843Z" fill="#25339C"/>
<path d="M22.1452 19.0592L21.6936 17.5386L20.9719 18.537L22.1452 19.0592Z" fill="#19348F"/>
<path d="M19.9416 20.2074L18.6868 18.9942L19.8381 18.6776L19.9416 20.2074Z" fill="#2A309A"/>
<path d="M18.3755 20.1171L19.9423 20.2072L18.6874 18.9939L18.3755 20.1171Z" fill="#302B96"/>
<path d="M18.3755 20.1171L17.5176 19.4184L18.6875 18.9939L18.3755 20.1171Z" fill="#3630A7"/>
<path d="M14.8686 14.523L14.9633 14.3107L14.207 15.1547L14.8686 14.523ZM21.4097 16.3251L21.6935 17.5407L22.1683 16.9008L21.4097 16.3251Z" fill="#173DA2"/>
<path d="M14.9823 16.1744L15.7066 17.3838L14.6123 17.1245L14.9823 16.1744Z" fill="#2A36A8"/>
<path d="M14.6108 17.124L15.7052 17.3833L14.9651 18.5488L14.6108 17.124Z" fill="#312E9F"/>
<path d="M16.5176 15.728L17.1237 14.4952L16.0137 15.0448L16.5176 15.728Z" fill="#184DCD"/>
<path d="M14.2625 18.2413L14.9664 18.5493L14.6033 19.0889L14.2625 18.2413Z" fill="#272986"/>
<path d="M14.9668 18.5509L14.6038 19.0904L15.6346 20.916L15.8212 19.9528L14.9668 18.5509Z" fill="#2C2584"/>
<path d="M15.8209 19.952L15.9349 18.256L14.9666 18.5501L15.8209 19.952Z" fill="#32268B"/>
<path d="M15.8208 19.952L17.5174 19.4181L15.9349 18.256L15.8208 19.952Z" fill="#372999"/>
<path d="M17.5161 19.4179L17.3507 18.1066L15.9336 18.2557L17.5161 19.4179Z" fill="#392DA5"/>
<path d="M17.3511 18.1071L18.5478 17.6597L18.6864 18.9939L17.3511 18.1071Z" fill="#3338BC"/>
<path d="M16.6311 20.3649L18.3749 20.1174L17.5169 19.4187L16.6311 20.3649Z" fill="#362896"/>
<path d="M16.631 20.3649L15.8203 19.9525L17.5169 19.4187L16.631 20.3649Z" fill="#35268F"/>
<path d="M16.5176 15.728L17.5567 15.838L17.1237 14.4952L16.5176 15.728Z" fill="#2648D3"/>
<path d="M18.0914 14.8868L17.123 14.4941L17.556 15.8369L18.0914 14.8868Z" fill="#1057DC"/>
<path d="M18.0916 14.8868L19.1229 15.5936L17.5562 15.8369L18.0916 14.8868Z" fill="#1653DA"/>
<path d="M17.5549 15.8364L19.0918 16.6515L18.5471 17.6581L17.5549 15.8364Z" fill="#2B46D5"/>
<path d="M19.0927 16.6518L19.1227 15.5933L17.5559 15.8367L19.0927 16.6518Z" fill="#244AD7"/>
<path d="M19.0928 16.6518L19.1227 15.5933L20.2082 16.1249L19.0928 16.6518Z" fill="#2547CF"/>
<path d="M17.5549 15.8364L18.547 17.6581L16.8071 16.7865L17.5549 15.8364Z" fill="#333CC5"/>
<path d="M17.351 18.1071L18.5478 17.6597L16.8079 16.788L17.351 18.1071Z" fill="#3833B6"/>
<path d="M18.5483 17.6581L20.0829 17.3776L19.093 16.6515L18.5483 17.6581Z" fill="#2A41C6"/>
<path d="M20.2075 16.1254L20.0818 17.3784L19.092 16.6523L20.2075 16.1254Z" fill="#2045C1"/>
<path d="M20.2074 16.1254L20.9317 17.1093L20.0818 17.3784L20.2074 16.1254Z" fill="#1B43B7"/>
<path d="M21.4099 16.3241L20.2085 16.1254L20.9328 17.1093L21.4099 16.3241Z" fill="#1742AF"/>
<path d="M15.2893 14.923L15.7538 13.9167L14.8718 14.5202L15.2893 14.923ZM21.4124 16.3236L20.9353 17.1088L21.697 17.5392L21.4124 16.3236Z" fill="#1740A9"/>
<path d="M20.9738 18.538L21.6955 17.5397L20.9338 17.1093L20.9738 18.538Z" fill="#1B3CA4"/>
<path d="M20.9737 18.538L20.9337 17.1093L20.0837 17.3784L20.9737 18.538Z" fill="#1F3DAD"/>
<path d="M14.9824 16.1744L16.5177 15.727L16.0138 15.0437L14.9824 16.1744ZM18.5484 17.6586L19.8386 18.6763L20.0832 17.3781L18.5484 17.6586Z" fill="#2543C3"/>
<path d="M18.6876 18.9921L19.839 18.6755L18.5491 17.6579L18.6876 18.9921Z" fill="#2E37B2"/>
<path d="M16.5176 15.728L16.8089 16.788L17.5567 15.8379L16.5176 15.728Z" fill="#2D40C7"/>
<path d="M16.5175 15.728L15.7065 17.3848L16.8089 16.788L16.5175 15.728Z" fill="#3537B8"/>
<path d="M16.8093 16.7885L15.9353 18.2567L17.3524 18.1076L16.8093 16.7885Z" fill="#3931B0"/>
<path d="M17.3511 18.1071L17.5165 19.4184L18.6864 18.9939L17.3511 18.1071ZM15.9334 18.2562L16.8074 16.788L15.7051 17.3849L15.9334 18.2562Z" fill="#3735B8"/>
<path d="M14.9668 18.5509L15.7068 17.3854L15.9352 18.2567L14.9668 18.5509Z" fill="#342892"/>
<path d="M15.6944 22.3878L16.478 22.6329L15.2805 21.8601L15.6944 22.3878ZM15.6379 21.5162L16.4979 22.1783L16.9108 21.3144L15.6325 20.917L15.6379 21.5162ZM17.9919 22.3127L18.1005 21.3278L16.9108 21.3144L17.9919 22.3127ZM19.2612 21.9708L18.9128 22.7909L20.3222 22.2653L19.2612 21.9708Z" fill="#232372"/>
<path d="M14.2625 18.2413L14.6121 17.1245L14.9664 18.5493L14.2625 18.2413Z" fill="#2A2F96"/>
<path d="M14.6107 17.124L14.9807 16.1739L14.2141 16.5026L14.6107 17.124ZM20.081 17.3776L19.8364 18.6758L20.9717 18.5372L20.081 17.3776Z" fill="#2636A5"/>
<path d="M22.9194 18.6154V18.6133L22.8745 17.1338V17.1286L22.6521 16.3904V16.3888L22.0158 15.188L21.2824 14.4128H21.2809L20.5084 13.8614H20.5053L19.8344 13.5982H19.8297L19.0247 13.3118H19.0193L17.6937 13.2274H17.6881L16.852 13.3784H16.849L16.1675 13.5879H16.1631L14.9529 14.2918L14.1969 15.1353L13.5002 16.2678V16.2707L13.2257 17.2347V17.2383L13.1741 18.7011V18.708L13.4355 19.7045V19.7079L14.0122 20.8432V20.845L14.4111 21.407V21.4083L14.9736 21.9244H14.9751L15.6777 22.3997H15.6793L16.5458 22.7764H16.5512L18.0011 22.9465H18.0031L18.7602 22.9676H18.7661L19.8865 22.6518H19.8904L20.8915 22.1022L20.8933 22.1009H20.8946L21.5397 21.5513L22.0393 20.955L22.0411 20.9524L22.7475 19.5693V19.5639L22.9024 18.6182V18.6159L22.9194 18.6154ZM15.0056 21.895L14.8598 21.7613L15.1875 22.0181L15.0056 21.895ZM17.1323 22.4505L16.6201 22.2111L17.8328 22.3202L17.1323 22.4505ZM17.3188 18.0898L15.9745 18.2312L16.8035 16.8378L17.3188 18.0898ZM16.8497 16.835L18.4924 17.6578L17.3624 18.0795L16.8497 16.835ZM17.3312 18.1324L17.4876 19.3709L15.991 18.2725L17.3312 18.1324ZM17.468 19.4117L15.8424 19.9231L15.9515 18.2975L17.468 19.4117ZM17.3777 18.153L18.6371 18.9893L17.5338 19.3897L17.3777 18.153ZM17.3978 18.1138L18.528 17.6911L18.6588 18.9514L17.3978 18.1138ZM19.1341 16.6582L20.1814 16.1638L20.0632 17.3402L19.1341 16.6582ZM20.0274 17.3681L18.5876 17.6313L19.099 16.6861L20.0274 17.3681ZM18.5465 17.615L17.6099 15.8927L19.0629 16.6631L18.5465 17.615ZM18.4949 17.6101L16.8415 16.7818L17.5521 15.8787L18.4949 17.6101ZM15.9417 18.2015L15.7309 17.397L16.7483 16.8463L15.9417 18.2015ZM15.8024 19.8834L14.9984 18.5646L15.9092 18.2877L15.8024 19.8834ZM17.4432 19.4656L16.6258 20.3388L15.8775 19.9584L17.4432 19.4656ZM18.6536 19.0303L18.362 20.0805L17.5583 19.4272L18.6536 19.0303ZM18.5747 17.7102L19.79 18.6688L18.7063 18.9674L18.5747 17.7102ZM18.5989 17.6736L20.0545 17.4078L19.8222 18.6389L18.5989 17.6736ZM20.1071 17.3498L20.2237 16.1863L20.8962 17.0997L20.1071 17.3498ZM20.9109 17.1407L20.948 18.473L20.1182 17.3921L20.9109 17.1407ZM19.1152 16.6193L19.1431 15.6305L20.1574 16.1272L19.1152 16.6193ZM19.0714 16.6193L17.6238 15.8514L19.0995 15.6222L19.0714 16.6193ZM16.8172 16.7423L16.546 15.7551L17.5139 15.8583L16.8172 16.7423ZM16.7819 16.7792L15.7546 17.3343L16.5102 15.791L16.7819 16.7792ZM15.9069 18.2428L15.0154 18.5137L15.6968 17.4401L15.9069 18.2428ZM15.7456 19.8743L14.6319 19.0858L14.964 18.5927L15.7456 19.8743ZM15.8354 19.9863L16.5837 20.3667L15.6636 20.875L15.8354 19.9863ZM17.518 19.4496L18.3215 20.104L16.6887 20.3362L17.518 19.4496ZM18.6972 19.0368L19.8842 20.1835L18.4033 20.0986L18.6972 19.0368ZM18.7287 19.0063L19.8171 18.707L19.9149 20.1535L18.7287 19.0063ZM20.0942 17.4323L20.931 18.5225L19.8643 18.6515L20.0942 17.4323ZM20.9547 17.1485L21.661 17.5487L20.9901 18.4748L20.9547 17.1485ZM20.9622 17.1026L21.4009 16.3824L21.661 17.4981L20.9622 17.1026ZM20.93 17.0711L20.257 16.1571L21.3735 16.3416L20.93 17.0711ZM19.1607 15.5895L19.951 14.8739L20.1778 16.088L19.1607 15.5895ZM17.5965 15.8098L18.0981 14.9199L19.0642 15.582L17.5965 15.8098ZM16.5494 15.7107L17.117 14.5548L17.5232 15.814L16.5494 15.7107ZM15.703 17.3402L15.0141 16.1899L16.4743 15.7642L15.703 17.3402ZM14.9738 18.497L14.6405 17.1565L15.67 17.4003L14.9738 18.497ZM14.6067 19.0445L14.3012 18.2859L14.932 18.562L14.6067 19.0445ZM15.7949 19.9631L15.623 20.8541L14.6683 19.1655L15.7949 19.9631ZM16.6167 20.3979L16.8781 21.2809L15.6881 20.9108L16.6167 20.3979ZM18.3455 20.1442L18.0862 21.292L16.6905 20.379L18.3455 20.1442ZM19.887 20.2271L19.2161 20.8347L18.4356 20.1437L19.887 20.2271ZM19.8628 18.7354L20.8949 19.7794L19.959 20.1762L19.8628 18.7354ZM19.8839 18.6946L20.9488 18.5656L20.9127 19.7355L19.8839 18.6946ZM21.685 17.5905L22.1102 19.0228L21.0048 18.531L21.685 17.5905ZM21.4437 16.3798L22.1376 16.9059L21.7038 17.4906L21.4437 16.3798ZM20.2495 16.1122L20.8946 15.3745L21.3702 16.2972L20.2495 16.1122ZM20.2204 16.079L19.9951 14.8732L20.8637 15.342L20.2204 16.079ZM19.1199 15.568L18.1579 14.909L19.9064 14.8559L19.1199 15.568ZM17.5606 15.7848L17.1573 14.5344L18.0591 14.9L17.5606 15.7848ZM16.512 15.6873L16.0452 15.0541L17.074 14.5444L16.512 15.6873ZM16.4797 15.7172L15.0492 16.1342L16.0101 15.0806L16.4797 15.7172ZM15.6594 17.3529L14.6402 17.1113L14.9849 16.2265L15.6594 17.3529ZM14.9328 18.514L14.2877 18.2314L14.6085 17.2078L14.9328 18.514ZM14.5731 19.0783L14.0181 19.2814L14.2655 18.3138L14.5731 19.0783ZM15.5714 20.853L14.3504 20.0962L14.6085 19.1482L15.5714 20.853ZM16.8149 21.3072L15.6597 21.4904L15.6548 20.9465L16.8149 21.3072ZM16.6678 20.4167L18.0261 21.3049L16.9271 21.2925L16.6678 20.4167ZM18.3871 20.1587L19.1754 20.8569L18.1314 21.2904L18.3871 20.1587ZM19.9322 20.2469L20.3489 21.4019L19.2559 20.86L19.9322 20.2469ZM19.9693 20.2211L20.8982 19.8269L20.3858 21.3789L19.9693 20.2211ZM20.9937 18.5739L22.0989 19.0657L20.9586 19.7484L20.9937 18.5739ZM21.7335 17.5969L22.456 18.1112L22.1463 18.9919L21.7335 17.5969ZM21.7255 17.5373L22.1598 16.9521L22.4459 18.0503L21.7255 17.5373ZM21.4355 16.3184L21.6352 15.6927L22.1154 16.8352L21.4355 16.3184ZM21.4053 16.2696L20.9444 15.3779L21.606 15.6424L21.4053 16.2696ZM20.0436 14.8505L21.0058 14.7875L20.8846 15.3036L20.0436 14.8505ZM18.1386 14.8672L18.8159 14.0268L19.9017 14.8136L18.1386 14.8672ZM18.0986 14.8471L17.7497 13.9334L18.769 14.0155L18.0986 14.8471ZM18.0532 14.8512L17.1622 14.49L17.7085 13.9481L18.0532 14.8512ZM16.0514 15.0043L16.4346 13.8988L17.0851 14.4923L16.0514 15.0043ZM15.0236 16.1001L15.3041 14.9516L15.9701 15.0623L15.0236 16.1001ZM14.6072 17.0806L14.2475 16.5158L14.9426 16.2191L14.6072 17.0806ZM14.5881 17.1322L14.2805 18.1128L14.2392 16.5837L14.5881 17.1322ZM14.2338 18.2676L13.983 19.2481L13.5895 18.2676H14.2338ZM13.5794 18.2247L13.6003 17.2625L14.2219 18.224L13.5794 18.2247ZM14.5708 19.1278L14.3202 20.0405L14.0158 19.3291L14.5708 19.1278ZM15.5709 20.9052L14.8141 21.0122L14.3817 20.168L15.5709 20.9052ZM15.6122 20.9434L15.6171 21.4795L14.8688 21.0489L15.6122 20.9434ZM16.8742 21.3438L16.49 22.1442L15.6917 21.5296L16.8742 21.3438ZM16.9191 21.3518L17.9301 22.2854L16.5313 22.1595L16.9191 21.3518ZM16.9687 21.3381L18.0782 21.3508L17.9771 22.2686L16.9687 21.3381ZM19.1968 20.8995L19.2391 21.9363L18.1518 21.3307L19.1968 20.8995ZM19.2409 20.9034L20.3375 21.4478L19.2832 21.9406L19.2409 20.9034ZM20.9418 19.8408L21.4863 20.6923L20.4284 21.3952L20.9418 19.8408ZM20.9798 19.8186L22.0279 19.9734L21.5162 20.6572L20.9798 19.8186ZM20.9991 19.7773L22.1205 19.1064L22.0475 19.9321L20.9991 19.7773ZM22.4802 18.1775L22.6781 18.8703L22.1814 19.0308L22.4802 18.1775ZM22.2155 16.9957L22.7832 17.711L22.4916 18.0552L22.2155 16.9957ZM21.6839 15.6929L22.4217 16.2333L22.168 16.844L21.6839 15.6929ZM20.9238 15.3216L21.0427 14.8146L21.5738 15.5815L20.9238 15.3216ZM19.9838 14.8092L19.8548 14.0351L20.9643 14.7457L19.9838 14.8092ZM19.935 14.7834L18.8771 14.0173L19.806 14.0113L19.935 14.7834ZM17.7843 13.8911L18.4746 13.4674L18.771 13.9706L17.7843 13.8911ZM17.1214 14.467L16.4823 13.8839L17.6643 13.9283L17.1214 14.467ZM15.9972 15.0215L15.3335 14.9111L16.3737 13.9357L15.9972 15.0215ZM14.9676 16.138L14.2885 15.5866L15.2523 14.973L14.9676 16.138ZM14.9387 16.1711L14.2372 16.4704L14.2712 15.6289L14.9387 16.1711ZM14.2369 18.1662L13.6065 17.1911L14.1933 16.5584L14.2369 18.1662ZM13.9636 19.318L13.8442 19.9146L13.6081 18.4332L13.9636 19.318ZM13.9941 19.3892L14.2895 20.0789L13.8684 20.0201L13.9941 19.3892ZM14.7604 21.0043L14.3151 20.9178L14.3435 20.1896L14.7604 21.0043ZM15.6019 21.5203L15.2855 21.8245L14.8606 21.094L15.6019 21.5203ZM15.6396 21.5446L16.3995 22.1306L15.3237 21.8493L15.6396 21.5446ZM18.1187 21.3624L19.2025 21.9641L18.0155 22.2828L18.1187 21.3624ZM20.3618 21.4808L20.3024 22.2376L19.3242 21.9659L20.3618 21.4808ZM21.4502 20.7648L20.8479 21.8209L20.4224 21.4478L21.4502 20.7648ZM22.0436 20.0191L22.0467 20.5713L21.565 20.6634L22.0436 20.0191ZM22.1644 19.0786L22.6547 18.9201L22.0963 19.8599L22.1644 19.0786ZM22.5042 18.1073L22.7824 17.7794L22.6931 18.7632L22.5042 18.1073ZM22.1923 16.8982L22.442 16.2967L22.7656 17.6202L22.1923 16.8982ZM21.661 15.6235L21.8364 15.3172L22.3651 16.1393L21.661 15.6235ZM21.6305 15.5887L21.1114 14.8404L21.806 15.2832L21.6305 15.5887ZM19.8891 14.0046L20.4144 13.9486L20.946 14.6817L19.8891 14.0046ZM18.8221 13.9737L18.5329 13.4821L19.7157 13.9683L18.8221 13.9737ZM17.7224 13.8772L17.4902 13.469L18.4031 13.4597L17.7224 13.8772ZM17.6759 13.8841L16.5262 13.841L17.4424 13.4749L17.6759 13.8841ZM15.3537 14.8327L15.7665 13.9412L16.3636 13.8867L15.3537 14.8327ZM15.2796 14.8884L14.9034 14.5272L15.6976 13.9837L15.2796 14.8884ZM15.2515 14.9219L14.3156 15.5177L14.8748 14.5591L15.2515 14.9219ZM14.1936 16.4683L13.7239 16.2157L14.2271 15.6452L14.1936 16.4683ZM14.1788 16.5099L13.6081 17.1248L13.7072 16.2565L14.1788 16.5099ZM13.533 18.2343L13.2917 18.4314L13.5516 17.3851L13.533 18.2343ZM13.5389 18.2859L13.7851 19.8305L13.2806 18.4975L13.5389 18.2859ZM14.3012 20.1254L14.273 20.8512L13.8798 20.0663L14.3012 20.1254ZM14.7855 21.0543L15.187 21.7435L14.3628 20.9735L14.7855 21.0543ZM16.4745 22.1948L16.4573 22.5935L15.4066 21.9156L16.4745 22.1948ZM16.5176 22.2118L17.0631 22.4668L16.5006 22.6043L16.5176 22.2118ZM17.9701 22.3388L17.9871 22.8979L17.1947 22.4833L17.9701 22.3388ZM19.2228 22.0033L18.9013 22.7602L18.0514 22.3181L19.2228 22.0033ZM19.2744 21.9966L20.2521 22.2681L18.9537 22.7524L19.2744 21.9966ZM20.4057 21.4896L20.8198 21.8509L20.3479 22.2183L20.4057 21.4896ZM21.5296 20.7142L22.007 20.6229L20.9604 21.7107L21.5296 20.7142ZM22.0919 20.5032L22.0885 19.9646L22.529 19.6955L22.0919 20.5032ZM22.1306 19.8877L22.6647 18.9903L22.5664 19.6222L22.1306 19.8877ZM22.8123 17.9474L22.8748 18.6079L22.7334 18.8032L22.8123 17.9474ZM22.4867 16.2931L22.6087 16.4077L22.731 17.2927L22.4867 16.2931ZM21.8674 15.2837L21.9822 15.2259L22.3146 15.9791L21.8674 15.2837ZM21.0631 14.7563L21.2649 14.4675L21.7588 15.2001L21.0631 14.7563ZM21.0316 14.7248L20.5058 13.9992L21.2339 14.4355L21.0316 14.7248ZM19.847 13.9652L19.8437 13.6498L20.3504 13.9115L19.847 13.9652ZM19.8032 13.9566L18.6449 13.4808L19.7998 13.6328L19.8032 13.9566ZM17.5121 13.4248L17.6966 13.2667L18.3079 13.4171L17.5121 13.4248ZM16.5058 13.8026L16.8642 13.4156L17.3601 13.4602L16.5058 13.8026ZM16.4131 13.8382L15.8713 13.8875L16.7628 13.4628L16.4131 13.8382ZM14.9202 14.4621L14.98 14.3277L15.4783 14.0802L14.9202 14.4621ZM14.2661 15.5154L14.2297 15.1637L14.7715 14.6477L14.2661 15.5154ZM14.2284 15.5773L13.7789 16.0869L14.193 15.2354L14.2284 15.5773ZM13.5588 17.1699L13.2719 17.2233L13.6509 16.3628L13.5588 17.1699ZM13.5492 17.2164L13.275 18.322L13.2574 17.2705L13.5492 17.2164ZM13.791 19.9695L13.4649 19.7012L13.3085 18.6949L13.791 19.9695ZM14.2483 20.8985L14.04 20.8301L13.9007 20.2059L14.2483 20.8985ZM15.1387 21.7572L14.4477 21.3825L14.3365 21.0089L15.1387 21.7572ZM15.2652 21.8759L15.5647 22.2578L14.6487 21.5402L15.2652 21.8759ZM15.3771 21.9479L16.3301 22.5628L15.7064 22.3677L15.3771 21.9479ZM17.1253 22.4954L17.8659 22.8825L16.5785 22.6288L17.1253 22.4954ZM18.0142 22.3481L18.843 22.7792L18.031 22.9083L18.0142 22.3481ZM20.2147 22.328L19.8793 22.6185L19.122 22.7359L20.2147 22.328ZM20.8366 21.8929L20.8647 22.0735L20.4297 22.208L20.8366 21.8929ZM21.9655 20.7276L21.5191 21.5239L20.9496 21.7858L21.9655 20.7276ZM22.0903 20.595L22.3899 20.0415L22.0697 20.8009L22.0903 20.595ZM22.7236 18.8894L22.8366 18.7331L22.6559 19.3312L22.7236 18.8894ZM22.8324 17.7097L22.8309 17.6981L22.8422 17.55L22.8536 17.9337L22.8324 17.7097ZM22.8022 17.4917L22.6892 16.6716L22.8293 17.1361L22.8022 17.4917ZM22.4668 16.2129L22.2604 15.7445L22.5494 16.2903L22.4668 16.2129ZM21.8439 15.2458L21.4311 14.634L21.9575 15.1887L21.8439 15.2458ZM20.4655 13.9254L20.4931 13.9056L20.8095 14.1318L20.4655 13.9254ZM20.4237 13.9014L20.2093 13.7907L20.4477 13.8844L20.4237 13.9014ZM18.6134 13.4326L19.0154 13.35L19.6202 13.5652L18.6134 13.4326ZM18.4823 13.415L17.935 13.2803L18.8526 13.3387L18.4823 13.415ZM17.4455 13.4251L17.0187 13.3867L17.6161 13.2788L17.4455 13.4251ZM15.9394 13.8065L16.1835 13.6235L16.5772 13.5023L15.9394 13.8065ZM15.7389 13.9019L15.5271 14.0072L15.8527 13.8168L15.7389 13.9019ZM14.8502 14.5114L14.5989 14.7514L14.8861 14.4309L14.8502 14.5114ZM13.6731 16.2049L13.5614 16.2462L13.9956 15.541L13.6731 16.2049ZM13.5276 16.3052L13.6481 16.2606L13.3433 16.9529L13.5276 16.3052ZM13.2275 18.1019L13.2337 18.4872L13.2115 18.5573L13.2275 18.1019ZM13.2484 18.5857L13.3583 19.294L13.2068 18.716L13.2484 18.5857ZM13.822 20.0508L13.9631 20.683L13.5124 19.7961L13.822 20.0508ZM14.2748 20.9539L14.3729 21.2837L14.0811 20.8902L14.2748 20.9539ZM16.464 22.651L16.5047 22.7163L16.0764 22.53L16.464 22.651ZM16.5739 22.7439L16.5223 22.6639L17.454 22.8474L16.5739 22.7439ZM18.8564 22.8213L18.7584 22.9323L18.247 22.9181L18.8564 22.8213ZM18.9243 22.8107L19.534 22.716L18.8337 22.9132L18.9243 22.8107ZM20.3331 22.2841L20.6908 22.1736L20.0612 22.5212L20.3331 22.2841ZM20.906 22.047L20.8779 21.8663L21.4004 21.6261L20.906 22.047ZM22.0377 20.6902L22.0132 20.9341L21.6695 21.3441L22.0377 20.6902ZM22.6036 19.6504L22.6918 19.6078L22.2875 20.402L22.6036 19.6504ZM22.721 19.5451L22.6219 19.5931L22.8211 18.9377L22.721 19.5451Z" fill="url(#paint0_radial_74_3686)"/>
<path d="M22.9194 18.6154V18.6133L22.8745 17.1338V17.1286L22.6521 16.3904V16.3888L22.0158 15.188L21.2824 14.4128H21.2809L20.5084 13.8614H20.5053L19.8344 13.5982H19.8297L19.0247 13.3118H19.0193L17.6937 13.2274H17.6881L16.852 13.3784H16.849L16.1675 13.5879H16.1631L14.9529 14.2918L14.1969 15.1353L13.5002 16.2678V16.2707L13.2257 17.2347V17.2383L13.1741 18.7011V18.708L13.4355 19.7045V19.7079L14.0122 20.8432V20.845L14.4111 21.407V21.4083L14.9736 21.9244H14.9751L15.6777 22.3997H15.6793L16.5458 22.7764H16.5512L18.0011 22.9465H18.0031L18.7602 22.9676H18.7661L19.8865 22.6518H19.8904L20.8915 22.1022L20.8933 22.1009H20.8946L21.5397 21.5513L22.0393 20.955L22.0411 20.9524L22.7475 19.5693V19.5639L22.9024 18.6182V18.6159L22.9194 18.6154ZM15.0056 21.895L14.8598 21.7613L15.1875 22.0181L15.0056 21.895ZM17.1323 22.4505L16.6201 22.2111L17.8328 22.3202L17.1323 22.4505ZM17.3188 18.0898L15.9745 18.2312L16.8035 16.8378L17.3188 18.0898ZM16.8497 16.835L18.4924 17.6578L17.3624 18.0795L16.8497 16.835ZM17.3312 18.1324L17.4876 19.3709L15.991 18.2725L17.3312 18.1324ZM17.468 19.4117L15.8424 19.9231L15.9515 18.2975L17.468 19.4117ZM17.3777 18.153L18.6371 18.9893L17.5338 19.3897L17.3777 18.153ZM17.3978 18.1138L18.528 17.6911L18.6588 18.9514L17.3978 18.1138ZM19.1341 16.6582L20.1814 16.1638L20.0632 17.3402L19.1341 16.6582ZM20.0274 17.3681L18.5876 17.6313L19.099 16.6861L20.0274 17.3681ZM18.5465 17.615L17.6099 15.8927L19.0629 16.6631L18.5465 17.615ZM18.4949 17.6101L16.8415 16.7818L17.5521 15.8787L18.4949 17.6101ZM15.9417 18.2015L15.7309 17.397L16.7483 16.8463L15.9417 18.2015ZM15.8024 19.8834L14.9984 18.5646L15.9092 18.2877L15.8024 19.8834ZM17.4432 19.4656L16.6258 20.3388L15.8775 19.9584L17.4432 19.4656ZM18.6536 19.0303L18.362 20.0805L17.5583 19.4272L18.6536 19.0303ZM18.5747 17.7102L19.79 18.6688L18.7063 18.9674L18.5747 17.7102ZM18.5989 17.6736L20.0545 17.4078L19.8222 18.6389L18.5989 17.6736ZM20.1071 17.3498L20.2237 16.1863L20.8962 17.0997L20.1071 17.3498ZM20.9109 17.1407L20.948 18.473L20.1182 17.3921L20.9109 17.1407ZM19.1152 16.6193L19.1431 15.6305L20.1574 16.1272L19.1152 16.6193ZM19.0714 16.6193L17.6238 15.8514L19.0995 15.6222L19.0714 16.6193ZM16.8172 16.7423L16.546 15.7551L17.5139 15.8583L16.8172 16.7423ZM16.7819 16.7792L15.7546 17.3343L16.5102 15.791L16.7819 16.7792ZM15.9069 18.2428L15.0154 18.5137L15.6968 17.4401L15.9069 18.2428ZM15.7456 19.8743L14.6319 19.0858L14.964 18.5927L15.7456 19.8743ZM15.8354 19.9863L16.5837 20.3667L15.6636 20.875L15.8354 19.9863ZM17.518 19.4496L18.3215 20.104L16.6887 20.3362L17.518 19.4496ZM18.6972 19.0368L19.8842 20.1835L18.4033 20.0986L18.6972 19.0368ZM18.7287 19.0063L19.8171 18.707L19.9149 20.1535L18.7287 19.0063ZM20.0942 17.4323L20.931 18.5225L19.8643 18.6515L20.0942 17.4323ZM20.9547 17.1485L21.661 17.5487L20.9901 18.4748L20.9547 17.1485ZM20.9622 17.1026L21.4009 16.3824L21.661 17.4981L20.9622 17.1026ZM20.93 17.0711L20.257 16.1571L21.3735 16.3416L20.93 17.0711ZM19.1607 15.5895L19.951 14.8739L20.1778 16.088L19.1607 15.5895ZM17.5965 15.8098L18.0981 14.9199L19.0642 15.582L17.5965 15.8098ZM16.5494 15.7107L17.117 14.5548L17.5232 15.814L16.5494 15.7107ZM15.703 17.3402L15.0141 16.1899L16.4743 15.7642L15.703 17.3402ZM14.9738 18.497L14.6405 17.1565L15.67 17.4003L14.9738 18.497ZM14.6067 19.0445L14.3012 18.2859L14.932 18.562L14.6067 19.0445ZM15.7949 19.9631L15.623 20.8541L14.6683 19.1655L15.7949 19.9631ZM16.6167 20.3979L16.8781 21.2809L15.6881 20.9108L16.6167 20.3979ZM18.3455 20.1442L18.0862 21.292L16.6905 20.379L18.3455 20.1442ZM19.887 20.2271L19.2161 20.8347L18.4356 20.1437L19.887 20.2271ZM19.8628 18.7354L20.8949 19.7794L19.959 20.1762L19.8628 18.7354ZM19.8839 18.6946L20.9488 18.5656L20.9127 19.7355L19.8839 18.6946ZM21.685 17.5905L22.1102 19.0228L21.0048 18.531L21.685 17.5905ZM21.4437 16.3798L22.1376 16.9059L21.7038 17.4906L21.4437 16.3798ZM20.2495 16.1122L20.8946 15.3745L21.3702 16.2972L20.2495 16.1122ZM20.2204 16.079L19.9951 14.8732L20.8637 15.342L20.2204 16.079ZM19.1199 15.568L18.1579 14.909L19.9064 14.8559L19.1199 15.568ZM17.5606 15.7848L17.1573 14.5344L18.0591 14.9L17.5606 15.7848ZM16.512 15.6873L16.0452 15.0541L17.074 14.5444L16.512 15.6873ZM16.4797 15.7172L15.0492 16.1342L16.0101 15.0806L16.4797 15.7172ZM15.6594 17.3529L14.6402 17.1113L14.9849 16.2265L15.6594 17.3529ZM14.9328 18.514L14.2877 18.2314L14.6085 17.2078L14.9328 18.514ZM14.5731 19.0783L14.0181 19.2814L14.2655 18.3138L14.5731 19.0783ZM15.5714 20.853L14.3504 20.0962L14.6085 19.1482L15.5714 20.853ZM16.8149 21.3072L15.6597 21.4904L15.6548 20.9465L16.8149 21.3072ZM16.6678 20.4167L18.0261 21.3049L16.9271 21.2925L16.6678 20.4167ZM18.3871 20.1587L19.1754 20.8569L18.1314 21.2904L18.3871 20.1587ZM19.9322 20.2469L20.3489 21.4019L19.2559 20.86L19.9322 20.2469ZM19.9693 20.2211L20.8982 19.8269L20.3858 21.3789L19.9693 20.2211ZM20.9937 18.5739L22.0989 19.0657L20.9586 19.7484L20.9937 18.5739ZM21.7335 17.5969L22.456 18.1112L22.1463 18.9919L21.7335 17.5969ZM21.7255 17.5373L22.1598 16.9521L22.4459 18.0503L21.7255 17.5373ZM21.4355 16.3184L21.6352 15.6927L22.1154 16.8352L21.4355 16.3184ZM21.4053 16.2696L20.9444 15.3779L21.606 15.6424L21.4053 16.2696ZM20.0436 14.8505L21.0058 14.7875L20.8846 15.3036L20.0436 14.8505ZM18.1386 14.8672L18.8159 14.0268L19.9017 14.8136L18.1386 14.8672ZM18.0986 14.8471L17.7497 13.9334L18.769 14.0155L18.0986 14.8471ZM18.0532 14.8512L17.1622 14.49L17.7085 13.9481L18.0532 14.8512ZM16.0514 15.0043L16.4346 13.8988L17.0851 14.4923L16.0514 15.0043ZM15.0236 16.1001L15.3041 14.9516L15.9701 15.0623L15.0236 16.1001ZM14.6072 17.0806L14.2475 16.5158L14.9426 16.2191L14.6072 17.0806ZM14.5881 17.1322L14.2805 18.1128L14.2392 16.5837L14.5881 17.1322ZM14.2338 18.2676L13.983 19.2481L13.5895 18.2676H14.2338ZM13.5794 18.2247L13.6003 17.2625L14.2219 18.224L13.5794 18.2247ZM14.5708 19.1278L14.3202 20.0405L14.0158 19.3291L14.5708 19.1278ZM15.5709 20.9052L14.8141 21.0122L14.3817 20.168L15.5709 20.9052ZM15.6122 20.9434L15.6171 21.4795L14.8688 21.0489L15.6122 20.9434ZM16.8742 21.3438L16.49 22.1442L15.6917 21.5296L16.8742 21.3438ZM16.9191 21.3518L17.9301 22.2854L16.5313 22.1595L16.9191 21.3518ZM16.9687 21.3381L18.0782 21.3508L17.9771 22.2686L16.9687 21.3381ZM19.1968 20.8995L19.2391 21.9363L18.1518 21.3307L19.1968 20.8995ZM19.2409 20.9034L20.3375 21.4478L19.2832 21.9406L19.2409 20.9034ZM20.9418 19.8408L21.4863 20.6923L20.4284 21.3952L20.9418 19.8408ZM20.9798 19.8186L22.0279 19.9734L21.5162 20.6572L20.9798 19.8186ZM20.9991 19.7773L22.1205 19.1064L22.0475 19.9321L20.9991 19.7773ZM22.4802 18.1775L22.6781 18.8703L22.1814 19.0308L22.4802 18.1775ZM22.2155 16.9957L22.7832 17.711L22.4916 18.0552L22.2155 16.9957ZM21.6839 15.6929L22.4217 16.2333L22.168 16.844L21.6839 15.6929ZM20.9238 15.3216L21.0427 14.8146L21.5738 15.5815L20.9238 15.3216ZM19.9838 14.8092L19.8548 14.0351L20.9643 14.7457L19.9838 14.8092ZM19.935 14.7834L18.8771 14.0173L19.806 14.0113L19.935 14.7834ZM17.7843 13.8911L18.4746 13.4674L18.771 13.9706L17.7843 13.8911ZM17.1214 14.467L16.4823 13.8839L17.6643 13.9283L17.1214 14.467ZM15.9972 15.0215L15.3335 14.9111L16.3737 13.9357L15.9972 15.0215ZM14.9676 16.138L14.2885 15.5866L15.2523 14.973L14.9676 16.138ZM14.9387 16.1711L14.2372 16.4704L14.2712 15.6289L14.9387 16.1711ZM14.2369 18.1662L13.6065 17.1911L14.1933 16.5584L14.2369 18.1662ZM13.9636 19.318L13.8442 19.9146L13.6081 18.4332L13.9636 19.318ZM13.9941 19.3892L14.2895 20.0789L13.8684 20.0201L13.9941 19.3892ZM14.7604 21.0043L14.3151 20.9178L14.3435 20.1896L14.7604 21.0043ZM15.6019 21.5203L15.2855 21.8245L14.8606 21.094L15.6019 21.5203ZM15.6396 21.5446L16.3995 22.1306L15.3237 21.8493L15.6396 21.5446ZM18.1187 21.3624L19.2025 21.9641L18.0155 22.2828L18.1187 21.3624ZM20.3618 21.4808L20.3024 22.2376L19.3242 21.9659L20.3618 21.4808ZM21.4502 20.7648L20.8479 21.8209L20.4224 21.4478L21.4502 20.7648ZM22.0436 20.0191L22.0467 20.5713L21.565 20.6634L22.0436 20.0191ZM22.1644 19.0786L22.6547 18.9201L22.0963 19.8599L22.1644 19.0786ZM22.5042 18.1073L22.7824 17.7794L22.6931 18.7632L22.5042 18.1073ZM22.1923 16.8982L22.442 16.2967L22.7656 17.6202L22.1923 16.8982ZM21.661 15.6235L21.8364 15.3172L22.3651 16.1393L21.661 15.6235ZM21.6305 15.5887L21.1114 14.8404L21.806 15.2832L21.6305 15.5887ZM19.8891 14.0046L20.4144 13.9486L20.946 14.6817L19.8891 14.0046ZM18.8221 13.9737L18.5329 13.4821L19.7157 13.9683L18.8221 13.9737ZM17.7224 13.8772L17.4902 13.469L18.4031 13.4597L17.7224 13.8772ZM17.6759 13.8841L16.5262 13.841L17.4424 13.4749L17.6759 13.8841ZM15.3537 14.8327L15.7665 13.9412L16.3636 13.8867L15.3537 14.8327ZM15.2796 14.8884L14.9034 14.5272L15.6976 13.9837L15.2796 14.8884ZM15.2515 14.9219L14.3156 15.5177L14.8748 14.5591L15.2515 14.9219ZM14.1936 16.4683L13.7239 16.2157L14.2271 15.6452L14.1936 16.4683ZM14.1788 16.5099L13.6081 17.1248L13.7072 16.2565L14.1788 16.5099ZM13.533 18.2343L13.2917 18.4314L13.5516 17.3851L13.533 18.2343ZM13.5389 18.2859L13.7851 19.8305L13.2806 18.4975L13.5389 18.2859ZM14.3012 20.1254L14.273 20.8512L13.8798 20.0663L14.3012 20.1254ZM14.7855 21.0543L15.187 21.7435L14.3628 20.9735L14.7855 21.0543ZM16.4745 22.1948L16.4573 22.5935L15.4066 21.9156L16.4745 22.1948ZM16.5176 22.2118L17.0631 22.4668L16.5006 22.6043L16.5176 22.2118ZM17.9701 22.3388L17.9871 22.8979L17.1947 22.4833L17.9701 22.3388ZM19.2228 22.0033L18.9013 22.7602L18.0514 22.3181L19.2228 22.0033ZM19.2744 21.9966L20.2521 22.2681L18.9537 22.7524L19.2744 21.9966ZM20.4057 21.4896L20.8198 21.8509L20.3479 22.2183L20.4057 21.4896ZM21.5296 20.7142L22.007 20.6229L20.9604 21.7107L21.5296 20.7142ZM22.0919 20.5032L22.0885 19.9646L22.529 19.6955L22.0919 20.5032ZM22.1306 19.8877L22.6647 18.9903L22.5664 19.6222L22.1306 19.8877ZM22.8123 17.9474L22.8748 18.6079L22.7334 18.8032L22.8123 17.9474ZM22.4867 16.2931L22.6087 16.4077L22.731 17.2927L22.4867 16.2931ZM21.8674 15.2837L21.9822 15.2259L22.3146 15.9791L21.8674 15.2837ZM21.0631 14.7563L21.2649 14.4675L21.7588 15.2001L21.0631 14.7563ZM21.0316 14.7248L20.5058 13.9992L21.2339 14.4355L21.0316 14.7248ZM19.847 13.9652L19.8437 13.6498L20.3504 13.9115L19.847 13.9652ZM19.8032 13.9566L18.6449 13.4808L19.7998 13.6328L19.8032 13.9566ZM17.5121 13.4248L17.6966 13.2667L18.3079 13.4171L17.5121 13.4248ZM16.5058 13.8026L16.8642 13.4156L17.3601 13.4602L16.5058 13.8026ZM16.4131 13.8382L15.8713 13.8875L16.7628 13.4628L16.4131 13.8382ZM14.9202 14.4621L14.98 14.3277L15.4783 14.0802L14.9202 14.4621ZM14.2661 15.5154L14.2297 15.1637L14.7715 14.6477L14.2661 15.5154ZM14.2284 15.5773L13.7789 16.0869L14.193 15.2354L14.2284 15.5773ZM13.5588 17.1699L13.2719 17.2233L13.6509 16.3628L13.5588 17.1699ZM13.5492 17.2164L13.275 18.322L13.2574 17.2705L13.5492 17.2164ZM13.791 19.9695L13.4649 19.7012L13.3085 18.6949L13.791 19.9695ZM14.2483 20.8985L14.04 20.8301L13.9007 20.2059L14.2483 20.8985ZM15.1387 21.7572L14.4477 21.3825L14.3365 21.0089L15.1387 21.7572ZM15.2652 21.8759L15.5647 22.2578L14.6487 21.5402L15.2652 21.8759ZM15.3771 21.9479L16.3301 22.5628L15.7064 22.3677L15.3771 21.9479ZM17.1253 22.4954L17.8659 22.8825L16.5785 22.6288L17.1253 22.4954ZM18.0142 22.3481L18.843 22.7792L18.031 22.9083L18.0142 22.3481ZM20.2147 22.328L19.8793 22.6185L19.122 22.7359L20.2147 22.328ZM20.8366 21.8929L20.8647 22.0735L20.4297 22.208L20.8366 21.8929ZM21.9655 20.7276L21.5191 21.5239L20.9496 21.7858L21.9655 20.7276ZM22.0903 20.595L22.3899 20.0415L22.0697 20.8009L22.0903 20.595ZM22.7236 18.8894L22.8366 18.7331L22.6559 19.3312L22.7236 18.8894ZM22.8324 17.7097L22.8309 17.6981L22.8422 17.55L22.8536 17.9337L22.8324 17.7097ZM22.8022 17.4917L22.6892 16.6716L22.8293 17.1361L22.8022 17.4917ZM22.4668 16.2129L22.2604 15.7445L22.5494 16.2903L22.4668 16.2129ZM21.8439 15.2458L21.4311 14.634L21.9575 15.1887L21.8439 15.2458ZM20.4655 13.9254L20.4931 13.9056L20.8095 14.1318L20.4655 13.9254ZM20.4237 13.9014L20.2093 13.7907L20.4477 13.8844L20.4237 13.9014ZM18.6134 13.4326L19.0154 13.35L19.6202 13.5652L18.6134 13.4326ZM18.4823 13.415L17.935 13.2803L18.8526 13.3387L18.4823 13.415ZM17.4455 13.4251L17.0187 13.3867L17.6161 13.2788L17.4455 13.4251ZM15.9394 13.8065L16.1835 13.6235L16.5772 13.5023L15.9394 13.8065ZM15.7389 13.9019L15.5271 14.0072L15.8527 13.8168L15.7389 13.9019ZM14.8502 14.5114L14.5989 14.7514L14.8861 14.4309L14.8502 14.5114ZM13.6731 16.2049L13.5614 16.2462L13.9956 15.541L13.6731 16.2049ZM13.5276 16.3052L13.6481 16.2606L13.3433 16.9529L13.5276 16.3052ZM13.2275 18.1019L13.2337 18.4872L13.2115 18.5573L13.2275 18.1019ZM13.2484 18.5857L13.3583 19.294L13.2068 18.716L13.2484 18.5857ZM13.822 20.0508L13.9631 20.683L13.5124 19.7961L13.822 20.0508ZM14.2748 20.9539L14.3729 21.2837L14.0811 20.8902L14.2748 20.9539ZM16.464 22.651L16.5047 22.7163L16.0764 22.53L16.464 22.651ZM16.5739 22.7439L16.5223 22.6639L17.454 22.8474L16.5739 22.7439ZM18.8564 22.8213L18.7584 22.9323L18.247 22.9181L18.8564 22.8213ZM18.9243 22.8107L19.534 22.716L18.8337 22.9132L18.9243 22.8107ZM20.3331 22.2841L20.6908 22.1736L20.0612 22.5212L20.3331 22.2841ZM20.906 22.047L20.8779 21.8663L21.4004 21.6261L20.906 22.047ZM22.0377 20.6902L22.0132 20.9341L21.6695 21.3441L22.0377 20.6902ZM22.6036 19.6504L22.6918 19.6078L22.2875 20.402L22.6036 19.6504ZM22.721 19.5451L22.6219 19.5931L22.8211 18.9377L22.721 19.5451Z" fill="url(#paint1_radial_74_3686)"/>
<path d="M27.2776 14.603C26.8425 13.5575 25.9616 12.4286 25.2691 12.072C25.7617 13.025 26.1034 14.0486 26.2818 15.1064C26.2818 15.1041 26.2818 15.1085 26.2834 15.116L26.2852 15.1266C27.0573 17.3324 26.9456 19.7514 25.9735 21.8767C24.8263 24.3362 22.0488 26.8567 17.701 26.7328C13.0049 26.5999 8.86603 23.1178 8.09452 18.5584C7.95389 17.8392 8.09452 17.4746 8.16522 16.8902C8.06835 17.3441 8.0141 17.806 8.00317 18.2699V18.3215C8.01151 20.8247 8.95705 23.234 10.6535 25.0748C12.3499 26.9155 14.6742 28.0541 17.1684 28.2663C19.6627 28.4785 22.1459 27.7488 24.1289 26.2211C26.1119 24.6934 27.4508 22.4785 27.8819 20.0126C27.8987 19.8836 27.9123 19.7559 27.9273 19.6269C28.1337 17.9243 27.9102 16.1971 27.2776 14.603Z" fill="url(#paint2_radial_74_3686)"/>
<path d="M27.2776 14.603C26.8425 13.5575 25.9616 12.4286 25.2691 12.072C25.7617 13.025 26.1034 14.0486 26.2818 15.1064C26.2818 15.1041 26.2818 15.1085 26.2834 15.116L26.2852 15.1266C27.0573 17.3324 26.9456 19.7514 25.9735 21.8767C24.8263 24.3362 22.0488 26.8567 17.701 26.7328C13.0049 26.5999 8.86603 23.1178 8.09452 18.5584C7.95389 17.8392 8.09452 17.4746 8.16522 16.8902C8.06835 17.3441 8.0141 17.806 8.00317 18.2699V18.3215C8.01151 20.8247 8.95705 23.234 10.6535 25.0748C12.3499 26.9155 14.6742 28.0541 17.1684 28.2663C19.6627 28.4785 22.1459 27.7488 24.1289 26.2211C26.1119 24.6934 27.4508 22.4785 27.8819 20.0126C27.8987 19.8836 27.9123 19.7559 27.9273 19.6269C28.1337 17.9243 27.9102 16.1971 27.2776 14.603Z" fill="url(#paint3_radial_74_3686)"/>
<path d="M8.09232 18.5586C8.86487 23.118 13.0027 26.6015 17.7014 26.7331C22.0492 26.8559 24.8282 24.3352 25.9739 21.8769C26.946 19.7517 27.0577 17.3326 26.2856 15.1268V15.1173C26.2856 15.1098 26.284 15.1054 26.284 15.1077L26.2861 15.1245C26.6412 17.4408 25.4617 19.6839 23.6181 21.2037L23.6124 21.2166C20.018 24.1375 16.5785 22.9787 15.8818 22.5044C15.8329 22.4808 15.7843 22.4566 15.736 22.4317C13.6413 21.4318 12.7764 19.5262 12.9621 17.8903C12.465 17.8978 11.9764 17.761 11.5554 17.4965C11.1345 17.232 10.7992 16.8511 10.5903 16.3999C11.1405 16.0633 11.7677 15.873 12.4122 15.8472C13.0567 15.8214 13.6971 15.961 14.2724 16.2526C15.4583 16.7904 16.8075 16.8434 18.0319 16.4002C18.0283 16.3189 16.2858 15.6261 15.6065 14.9578C15.2434 14.6004 15.071 14.4283 14.9185 14.2991C14.8361 14.2293 14.7499 14.164 14.6605 14.1035C14.6009 14.063 14.5341 14.0191 14.4541 13.9665C13.7239 13.4922 12.2717 13.5185 12.2237 13.5195H12.219C11.8219 13.0172 11.85 11.3606 11.8727 11.0148C11.755 11.0618 11.6425 11.1212 11.5373 11.1918C11.1871 11.4416 10.8597 11.7218 10.5588 12.0292C10.2163 12.3763 9.90321 12.7514 9.62297 13.1506C8.97921 14.0615 8.52254 15.0912 8.2794 16.1798C8.27475 16.2015 7.91919 17.7549 8.09439 18.5604L8.09232 18.5586Z" fill="url(#paint4_radial_74_3686)"/>
<path d="M21.5441 14.6133C21.9093 14.9718 22.222 15.3801 22.473 15.8261C22.5251 15.8646 22.5753 15.9056 22.6234 15.9489C24.8941 18.039 23.7038 20.9934 23.6153 21.2024C25.4592 19.6849 26.6394 17.4403 26.2833 15.1232C25.1511 12.3055 23.2308 11.1676 21.6646 8.69307C21.5836 8.56679 21.505 8.43904 21.4287 8.3099C21.3894 8.24253 21.3526 8.17367 21.3186 8.10347C21.2533 7.97741 21.2031 7.84413 21.1689 7.70636C21.1689 7.70002 21.1667 7.69389 21.1625 7.68913C21.1583 7.68437 21.1525 7.68132 21.1462 7.68056C21.14 7.67875 21.1335 7.67875 21.1274 7.68056L21.1225 7.68314L21.115 7.68624C20.7279 7.87073 18.4314 11.5025 21.5438 14.6118L21.5441 14.6133Z" fill="url(#paint5_linear_74_3686)"/>
<path d="M17.6915 13.2406L19.017 13.325L19.822 13.6114L20.4929 13.8746L21.2657 14.4265L21.9936 15.1939L22.2465 15.671C22.3016 15.7057 22.3561 15.7412 22.4101 15.7776C22.432 15.7928 22.4519 15.808 22.4723 15.8232C22.2212 15.3777 21.9085 14.9699 21.5434 14.6118C18.4315 11.5025 20.727 7.87202 21.114 7.68623L21.1192 7.68056C18.6041 9.15134 17.7519 11.8736 17.6719 13.236V13.2437L17.6915 13.2406Z" fill="url(#paint6_linear_74_3686)"/>
<path d="M14.4507 13.9657C14.5205 14.0099 14.5893 14.0556 14.6571 14.1027C14.4288 13.3053 14.4191 12.4611 14.629 11.6586C13.7057 12.1053 12.885 12.7387 12.219 13.5188C12.2683 13.5177 13.7205 13.4914 14.4507 13.9657Z" fill="url(#paint7_radial_74_3686)"/>
<path d="M13.5166 19.2269C13.5166 19.2269 13.9787 17.5066 16.8246 17.5066C17.1324 17.5066 18.0115 16.6487 18.0285 16.3999C16.8041 16.8431 15.4549 16.7902 14.269 16.2524C13.6937 15.9607 13.0533 15.8212 12.4088 15.847C11.7643 15.8727 11.1371 16.063 10.5869 16.3997C10.7958 16.8508 11.1311 17.2317 11.552 17.4963C11.973 17.7608 12.4616 17.8976 12.9587 17.8901C12.7732 19.525 13.6386 21.4303 15.7326 22.4314C15.7795 22.4539 15.8234 22.4784 15.8714 22.4998C14.6488 21.8684 13.6392 20.6755 13.513 19.228L13.5166 19.2269Z" fill="url(#paint8_radial_74_3686)"/>
<path d="M22.6225 15.9474C22.5744 15.904 22.5242 15.8631 22.4721 15.8245C22.4517 15.8093 22.4319 15.7941 22.4099 15.7789C21.7054 15.2916 20.8452 15.083 19.9958 15.1934C23.5979 16.9919 22.6303 23.1846 17.6402 22.9498C17.1958 22.9317 16.7567 22.8471 16.3374 22.6988C16.2383 22.6614 16.1402 22.6214 16.0433 22.5788C15.987 22.553 15.9305 22.5272 15.8745 22.4983L15.8815 22.5026C16.5782 22.9769 20.0151 24.1362 23.6095 21.2138L23.6152 21.2009C23.7037 20.9903 24.893 18.0348 22.6233 15.9474H22.6225Z" fill="url(#paint9_radial_74_3686)"/>
<path d="M27.2748 14.603C26.8398 13.5572 25.9589 12.4286 25.2663 12.0717C25.7591 13.0247 26.101 14.0484 26.2799 15.1062L26.2819 15.1227C25.1499 12.305 23.2294 11.1671 21.6632 8.69255C21.5821 8.56643 21.5035 8.43877 21.4273 8.30963C21.3881 8.24215 21.3512 8.17329 21.3169 8.1032C21.2519 7.97743 21.2019 7.8445 21.1677 7.70712C21.1678 7.70079 21.1655 7.69465 21.1613 7.68989C21.1571 7.68513 21.1513 7.68208 21.145 7.68132C21.1389 7.67963 21.1324 7.67963 21.1262 7.68132C21.1247 7.68132 21.1226 7.68364 21.121 7.68416C21.1195 7.68468 21.1161 7.687 21.1138 7.68803L21.1179 7.68235C18.6029 9.15313 17.7506 11.8831 17.6706 13.2455L17.691 13.2419L19.0165 13.3263L19.7625 13.5915L20.4925 13.8754L21.2653 14.4273L21.9924 15.1942C21.9924 15.1942 22.2427 15.6638 22.2461 15.6718C21.5733 15.2572 20.778 15.0878 19.9947 15.1924C23.5968 16.9908 22.6292 23.1836 17.6392 22.9488C17.1948 22.9306 16.7557 22.8461 16.3364 22.698C16.239 22.6615 16.141 22.6212 16.0422 22.5772C15.9853 22.5518 15.929 22.5249 15.8735 22.4967L15.8804 22.5011C15.8315 22.4776 15.7829 22.4534 15.7346 22.4286C15.7813 22.4508 15.8255 22.4753 15.8735 22.4967C14.6509 21.8656 13.6412 20.6724 13.5151 19.2249C13.5151 19.2249 13.9772 17.5046 16.823 17.5046C17.1308 17.5046 18.01 16.6466 18.027 16.3979C18.0234 16.3166 16.2806 15.6238 15.6015 14.9555C15.2384 14.5984 15.0661 14.426 14.9133 14.2967C14.8305 14.2269 14.744 14.1617 14.654 14.1014C14.4258 13.3039 14.4161 12.4596 14.6259 11.6571C13.7025 12.1038 12.8819 12.7373 12.2159 13.5175H12.2112C11.8144 13.0153 11.8425 11.3588 11.8649 11.0128C11.7473 11.0599 11.6348 11.1192 11.5295 11.1898C11.1793 11.4395 10.8518 11.7198 10.551 12.0273C10.2087 12.3739 9.89593 12.7485 9.61594 13.1472C8.97286 14.0584 8.51673 15.088 8.27392 16.1765C8.26902 16.1982 8.26515 16.2206 8.26051 16.2423C8.24167 16.3305 8.15729 16.7772 8.14491 16.8732C8.06768 17.3349 8.01839 17.8009 7.99731 18.2686V18.3202C8.00195 20.826 8.94583 23.239 10.6426 25.0828C12.3394 26.9267 14.6658 28.0674 17.1626 28.2798C19.6594 28.4923 22.145 27.7609 24.1289 26.2302C26.1128 24.6995 27.4508 22.4806 27.8786 20.0116C27.8957 19.8826 27.9093 19.7536 27.9243 19.6246C28.1303 17.9219 27.9066 16.1947 27.2738 14.6007L27.2748 14.603Z" fill="url(#paint10_linear_74_3686)"/>
<path d="M18.0297 16.3989C18.0297 16.3989 17.9874 16.4165 17.909 16.4433C17.7134 16.7738 17.018 17.405 16.7522 17.4037C13.9061 17.3913 13.4365 19.0928 13.4365 19.0928C13.4886 19.6744 13.6799 20.2349 13.9944 20.7269C13.7284 20.2671 13.5657 19.7549 13.5175 19.2259C13.5175 19.2259 13.9797 17.5056 16.8255 17.5056C17.1333 17.5056 18.0127 16.6477 18.0297 16.3989Z" fill="url(#paint11_linear_74_3686)"/>
<path d="M26.2841 15.1268V15.1173C26.2841 15.1098 26.2826 15.1054 26.2841 15.1077C26.2857 15.1101 26.2841 15.1134 26.2859 15.1245C26.2187 14.9575 26.1469 14.7923 26.0707 14.6291C26.0449 14.5744 26.0191 14.5233 25.992 14.4699C25.9417 14.3667 25.8919 14.2635 25.8398 14.1664C25.8075 14.1058 25.7737 14.0483 25.7407 13.9894C25.6922 13.903 25.6442 13.816 25.5944 13.7314C25.5578 13.6705 25.5201 13.6122 25.4829 13.5528C25.4342 13.4754 25.3857 13.398 25.3359 13.3227C25.2964 13.2631 25.2559 13.2055 25.2159 13.1475C25.1661 13.0757 25.1165 13.004 25.0657 12.9341C25.0239 12.8763 24.9813 12.8198 24.9388 12.7633C24.8871 12.6959 24.8373 12.6286 24.786 12.5625C24.742 12.5062 24.6976 12.4502 24.6529 12.3945C24.6012 12.3303 24.5496 12.2655 24.4967 12.2023C24.4512 12.1471 24.4053 12.0921 24.3592 12.0374C24.3334 12.0077 24.3094 11.9773 24.2841 11.9476L24.3161 11.9868C23.4455 10.9635 22.504 10.0204 21.6636 8.69178C21.5826 8.56552 21.504 8.43777 21.4277 8.30861C21.3883 8.24124 21.3516 8.17238 21.3175 8.10218C21.2609 7.98952 21.2148 7.87188 21.1798 7.75074C21.1779 7.74429 21.1748 7.73449 21.1738 7.72933C21.1718 7.7216 21.17 7.71386 21.1681 7.7061C21.1682 7.69976 21.1659 7.69363 21.1617 7.68887C21.1575 7.68411 21.1517 7.68106 21.1454 7.6803C21.1393 7.67849 21.1327 7.67849 21.1266 7.6803L21.1217 7.68314C21.1191 7.68428 21.1166 7.68557 21.1142 7.68701C21.0922 7.69922 21.0718 7.71423 21.0536 7.73165C21.0486 7.7358 21.0438 7.74011 21.0391 7.74455C21.0111 7.77089 20.9846 7.79889 20.9599 7.82841L20.9571 7.83125C20.3582 8.53516 18.8262 11.6011 21.2948 14.3491C18.9836 11.6295 20.4402 8.69049 21.0732 7.92156C21.1069 8.02526 21.1482 8.12634 21.1968 8.22397C21.2308 8.2942 21.2675 8.36307 21.307 8.4304C21.3844 8.56277 21.4636 8.68843 21.5428 8.81332C23.1106 11.2884 25.0314 12.4258 26.1616 15.2435C26.1616 15.2326 26.1598 15.2285 26.1598 15.2269C26.1598 15.2254 26.1598 15.229 26.161 15.2365L26.1626 15.246C26.9351 17.4517 26.8237 19.8707 25.8519 21.9961C25.4538 22.8404 24.9161 23.6113 24.2614 24.2766C24.9704 23.5845 25.55 22.7712 25.9727 21.8751C26.9445 19.7498 27.0563 17.3308 26.2844 15.125L26.2841 15.1268Z" fill="url(#paint12_linear_74_3686)"/>
<path d="M21.1158 7.6875L21.1209 7.68182C18.8554 9.00733 17.9394 11.3484 17.7227 12.7934C18.0852 10.9034 19.17 9.22897 20.7468 8.12564C20.8384 7.95532 20.9643 7.8058 21.1165 7.68647L21.1158 7.6875Z" fill="url(#paint13_linear_74_3686)"/>
<path d="M23.6109 21.2138L23.6166 21.2009C23.7051 20.9903 24.8943 18.0348 22.6247 15.9474C22.5765 15.904 22.5263 15.863 22.4743 15.8245C22.4539 15.8093 22.434 15.7941 22.4121 15.7789C21.733 15.3111 20.9104 15.0986 20.0898 15.1789H20.089C20.0586 15.183 20.0282 15.1878 19.9979 15.1931C23.5588 16.9715 22.6531 23.045 17.8096 22.9547L17.849 22.957C22.7594 23.15 23.727 17.1281 20.3153 15.2393C20.9859 15.2429 21.6423 15.4325 22.2116 15.7869C22.2331 15.801 22.2543 15.8155 22.2753 15.8305C22.3289 15.8667 22.3805 15.9056 22.4301 15.9471C24.78 17.9461 23.7074 20.9452 23.6269 21.1593L23.6217 21.1727" fill="url(#paint14_linear_74_3686)"/>
<path d="M14.2985 16.3525C15.4517 16.8334 16.7432 16.8651 17.9187 16.4415C16.7229 16.8399 15.4208 16.7724 14.2727 16.2524C13.7056 15.9669 13.076 15.828 12.4414 15.8483C11.8068 15.8686 11.1874 16.0474 10.6396 16.3685L10.6265 16.377H10.6252L10.6144 16.3842L10.6061 16.3899L10.6009 16.3935H10.5994L10.5958 16.3961H10.5945L10.5991 16.4072V16.4087L10.6048 16.4216V16.4242L10.6133 16.4428V16.4443C10.6338 16.487 10.6558 16.5289 10.6791 16.57C10.9048 16.9758 11.2365 17.3126 11.6388 17.5444C12.0412 17.7762 12.499 17.8943 12.9632 17.8859C12.7826 19.4718 13.5923 21.3126 15.5538 22.3344C13.68 21.2545 12.8935 19.2948 13.1116 17.7363C11.6648 17.6981 11.0179 16.8309 10.8329 16.4632C11.3645 16.1823 11.9531 16.0264 12.5541 16.0072C13.155 15.9879 13.7524 16.1059 14.3008 16.3522L14.2985 16.3525Z" fill="url(#paint15_linear_74_3686)"/>
<path d="M14.6572 14.0973L14.6081 14.0686L14.6598 14.1027L14.6572 14.0973ZM14.6469 14.0606C14.4304 13.2753 14.4248 12.4468 14.6306 11.6586C13.7481 12.083 12.9601 12.6807 12.3135 13.4161C12.9268 12.8009 13.6416 12.296 14.4265 11.9236C14.3336 12.6434 14.4091 13.3749 14.6469 14.0606Z" fill="url(#paint16_linear_74_3686)"/>
<path d="M8.33378 19.6062L8.32578 19.5776C8.22924 19.2424 8.1517 18.902 8.09355 18.5581C8.02904 18.1305 8.02904 17.6956 8.09355 17.268C8.04332 17.5996 8.01274 17.9339 8.00195 18.2691V18.3207C8.00251 20.398 8.64973 22.4236 9.85377 24.1164C11.0578 25.8092 12.759 27.0852 14.7211 27.7672C13.0198 27.1088 11.5282 26.0027 10.404 24.566C9.2798 23.1293 8.56486 21.4154 8.33481 19.6057L8.33378 19.6062Z" fill="url(#paint17_linear_74_3686)"/>
<path d="M8.25361 18.5999C8.07841 17.7943 8.43423 16.2413 8.43862 16.2193C8.68177 15.1307 9.13843 14.101 9.78219 13.19C10.0622 12.7914 10.3749 12.4167 10.717 12.0699C11.0179 11.7625 11.3453 11.4823 11.6955 11.2326C11.7093 11.2236 11.7235 11.215 11.7378 11.2068C11.7342 11.9675 11.7775 13.2512 12.1298 13.672H12.1344C12.1827 13.6695 13.64 13.6052 14.3855 14.0591C14.4683 14.1107 14.5364 14.1517 14.5973 14.1907C14.6891 14.2488 14.7777 14.3118 14.8628 14.3793C15.0192 14.5047 15.1967 14.6722 15.5706 15.0197C16.1125 15.5232 17.2914 16.0237 17.801 16.2622C17.3046 16.0121 16.1331 15.4777 15.6049 14.9578C15.2419 14.6004 15.0695 14.4283 14.917 14.2991C14.8345 14.2293 14.7484 14.164 14.659 14.1035C14.5994 14.063 14.5325 14.0191 14.4526 13.9665C13.7223 13.4922 12.2701 13.5185 12.2221 13.5195H12.2175C11.8547 13.0605 11.847 11.6377 11.8655 11.1322C11.8655 11.1126 11.8655 11.0948 11.8676 11.0781V11.0453C11.8676 11.0344 11.8676 11.0239 11.8694 11.0148C11.8694 11.0148 11.8676 11.013 11.8653 11.013H11.8562L11.8506 11.0151L11.8423 11.0182L11.8343 11.0215L11.8248 11.0259L11.8144 11.0308L11.8041 11.036L11.7915 11.0422L11.7814 11.0476L11.7664 11.0553L11.7579 11.06C11.6825 11.1011 11.6082 11.1441 11.535 11.189C11.1848 11.4387 10.8574 11.7189 10.5565 12.0263C10.2139 12.3745 9.90094 12.7506 9.62092 13.1508C8.97716 14.0618 8.5205 15.0914 8.27735 16.1801C8.27271 16.2018 7.91611 17.7541 8.09234 18.5607C8.7498 22.4415 11.8441 25.5404 15.6475 26.459C11.9189 25.4922 8.90256 22.426 8.25232 18.5994L8.25361 18.5999Z" fill="url(#paint18_linear_74_3686)"/>
<path d="M27.2774 14.603C26.8939 13.6804 26.2907 12.8654 25.5202 12.2291L25.5024 12.2165C25.4828 12.2027 25.463 12.1891 25.4431 12.1757C25.4357 12.1706 25.4282 12.1657 25.4206 12.161C25.4017 12.149 25.3831 12.1374 25.3649 12.1262L25.3432 12.1133C25.3188 12.0991 25.294 12.0854 25.2689 12.0723C25.2958 12.1249 25.3221 12.1778 25.3479 12.2309C25.3641 12.2638 25.3801 12.2967 25.3959 12.3298C25.8218 13.2083 26.1201 14.1433 26.2817 15.1062L26.2838 15.123C26.6388 17.4393 25.4594 19.6824 23.6157 21.2022L23.61 21.2151C21.318 23.0793 19.0893 23.2827 17.5953 23.0623C19.0844 23.3405 21.4323 23.2231 23.8526 21.2561L23.858 21.2432C25.7019 19.7257 26.8821 17.4811 26.5261 15.164L26.524 15.1472C26.3849 14.3072 26.1396 13.4883 25.794 12.7101C26.2323 13.1747 26.6011 13.7002 26.8888 14.2704C27.608 15.7997 27.9264 17.4868 27.8141 19.173C27.8064 19.3007 27.8 19.4282 27.7901 19.5549C27.4994 21.8809 26.3981 24.03 24.6799 25.6246C22.9617 27.2192 20.7365 28.1572 18.3952 28.2738C17.7353 28.3109 17.0732 28.2839 16.4185 28.1933C19.0215 28.6115 21.6844 27.9872 23.8303 26.4557C25.9762 24.9241 27.4322 22.6087 27.8828 20.0111C27.8996 19.8821 27.9132 19.7544 27.9282 19.6253C28.1346 17.9228 27.9113 16.1956 27.2787 14.6015L27.2774 14.603Z" fill="url(#paint19_linear_74_3686)"/>
</g>
<defs>
<radialGradient id="paint0_radial_74_3686" cx="0" cy="0" r="1" gradientUnits="userSpaceOnUse" gradientTransform="translate(18.5321 15.6627) scale(5.84441 5.84265)">
<stop offset="0.1" stop-color="#00DDFF" stop-opacity="0.4"/>
<stop offset="0.9" stop-color="#7542E5" stop-opacity="0.25"/>
</radialGradient>
<radialGradient id="paint1_radial_74_3686" cx="0" cy="0" r="1" gradientUnits="userSpaceOnUse" gradientTransform="translate(17.9696 18.3583) scale(4.96968 4.96819)">
<stop offset="0.91" stop-color="#7542E5" stop-opacity="0"/>
<stop offset="1" stop-color="#00DDFF" stop-opacity="0.4"/>
</radialGradient>
<radialGradient id="paint2_radial_74_3686" cx="0" cy="0" r="1" gradientUnits="userSpaceOnUse" gradientTransform="translate(25.2053 9.95993) scale(25.6055 20.7866)">
<stop stop-color="#80EBFF"/>
<stop offset="0.26" stop-color="#00DDFF"/>
<stop offset="0.53" stop-color="#0090ED"/>
<stop offset="0.86" stop-color="#0060DF"/>
</radialGradient>
<radialGradient id="paint3_radial_74_3686" cx="0" cy="0" r="1" gradientUnits="userSpaceOnUse" gradientTransform="translate(17.5495 18.5675) scale(25.6055 20.7866)">
<stop offset="0.3" stop-color="#321C64" stop-opacity="0.8"/>
<stop offset="0.37" stop-color="#212F83" stop-opacity="0.5"/>
<stop offset="0.48" stop-color="#0A47AC" stop-opacity="0.14"/>
<stop offset="0.53" stop-color="#0250BB" stop-opacity="0"/>
</radialGradient>
<radialGradient id="paint4_radial_74_3686" cx="0" cy="0" r="1" gradientUnits="userSpaceOnUse" gradientTransform="translate(24.9181 3.15138) scale(39.3633 33.0118)">
<stop stop-color="#80EBFF"/>
<stop offset="0.47" stop-color="#00B3F4"/>
<stop offset="0.84" stop-color="#0060DF"/>
<stop offset="1" stop-color="#592ACB"/>
</radialGradient>
<linearGradient id="paint5_linear_74_3686" x1="22.6281" y1="6.32871" x2="27.6508" y2="21.8626" gradientUnits="userSpaceOnUse">
<stop stop-color="#AAF2FF"/>
<stop offset="0.29" stop-color="#00DDFF"/>
<stop offset="0.61" stop-color="#0090ED"/>
<stop offset="0.89" stop-color="#0250BB"/>
</linearGradient>
<linearGradient id="paint6_linear_74_3686" x1="19.4981" y1="7.68182" x2="22.71" y2="17.0869" gradientUnits="userSpaceOnUse">
<stop stop-color="#AAF2FF"/>
<stop offset="0.29" stop-color="#00DDFF"/>
<stop offset="0.74" stop-color="#0090ED"/>
<stop offset="1" stop-color="#0250BB"/>
</linearGradient>
<radialGradient id="paint7_radial_74_3686" cx="0" cy="0" r="1" gradientUnits="userSpaceOnUse" gradientTransform="translate(17.2896 9.11586) scale(7.31414 7.33025)">
<stop stop-color="#00DDFF"/>
<stop offset="0.82" stop-color="#0090ED"/>
</radialGradient>
<radialGradient id="paint8_radial_74_3686" cx="0" cy="0" r="1" gradientUnits="userSpaceOnUse" gradientTransform="translate(22.1181 12.8479) scale(23.281 20.8318)">
<stop offset="0.29" stop-color="#80EBFF"/>
<stop offset="1" stop-color="#00B3F4"/>
</radialGradient>
<radialGradient id="paint9_radial_74_3686" cx="0" cy="0" r="1" gradientUnits="userSpaceOnUse" gradientTransform="translate(17.0951 11.736) scale(18.6989 18.3305)">
<stop offset="0.18" stop-color="#AAF2FF"/>
<stop offset="0.43" stop-color="#00DDFF"/>
<stop offset="0.69" stop-color="#0060DF"/>
</radialGradient>
<linearGradient id="paint10_linear_74_3686" x1="25.2005" y1="10.7777" x2="11.5637" y2="24.5903" gradientUnits="userSpaceOnUse">
<stop offset="0.24" stop-color="#80EBFF" stop-opacity="0.5"/>
<stop offset="0.7" stop-color="#00DDFF" stop-opacity="0"/>
</linearGradient>
<linearGradient id="paint11_linear_74_3686" x1="16.2373" y1="15.9662" x2="14.5522" y2="22.8969" gradientUnits="userSpaceOnUse">
<stop stop-color="#BFF3FF" stop-opacity="0.9"/>
<stop offset="1" stop-color="#80EBFF" stop-opacity="0.5"/>
</linearGradient>
<linearGradient id="paint12_linear_74_3686" x1="23.4329" y1="7.34823" x2="22.2302" y2="30.7016" gradientUnits="userSpaceOnUse">
<stop stop-color="#BFF3FF"/>
<stop offset="1" stop-color="#00DDFF" stop-opacity="0"/>
</linearGradient>
<linearGradient id="paint13_linear_74_3686" x1="19.4885" y1="7.47738" x2="19.1038" y2="14.9788" gradientUnits="userSpaceOnUse">
<stop stop-color="#BFF3FF"/>
<stop offset="1" stop-color="#AAF2FF" stop-opacity="0.5"/>
</linearGradient>
<linearGradient id="paint14_linear_74_3686" x1="21.0916" y1="15.0065" x2="20.5054" y2="26.2283" gradientUnits="userSpaceOnUse">
<stop stop-color="#BFF3FF"/>
<stop offset="1" stop-color="#00DDFF" stop-opacity="0"/>
</linearGradient>
<linearGradient id="paint15_linear_74_3686" x1="14.1855" y1="15.7152" x2="14.6461" y2="23.8338" gradientUnits="userSpaceOnUse">
<stop stop-color="#BFF3FF" stop-opacity="0.8"/>
<stop offset="1" stop-color="#80EBFF" stop-opacity="0.2"/>
</linearGradient>
<linearGradient id="paint16_linear_74_3686" x1="15.0564" y1="11.0959" x2="12.7419" y2="14.7044" gradientUnits="userSpaceOnUse">
<stop stop-color="#BFF3FF" stop-opacity="0.8"/>
<stop offset="1" stop-color="#80EBFF" stop-opacity="0.2"/>
</linearGradient>
<linearGradient id="paint17_linear_74_3686" x1="11.4954" y1="17.1649" x2="10.6755" y2="31.6227" gradientUnits="userSpaceOnUse">
<stop stop-color="#00DDFF" stop-opacity="0.4"/>
<stop offset="1" stop-color="#00DDFF" stop-opacity="0"/>
</linearGradient>
<linearGradient id="paint18_linear_74_3686" x1="12.9227" y1="9.15756" x2="12.9227" y2="26.3015" gradientUnits="userSpaceOnUse">
<stop stop-color="#BFF3FF"/>
<stop offset="1" stop-color="#00DDFF" stop-opacity="0"/>
</linearGradient>
<linearGradient id="paint19_linear_74_3686" x1="22.5562" y1="11.5834" x2="21.1917" y2="35.0993" gradientUnits="userSpaceOnUse">
<stop stop-color="#BFF3FF" stop-opacity="0.8"/>
<stop offset="1" stop-color="#00DDFF" stop-opacity="0"/>
</linearGradient>
<clipPath id="clip0_74_3686">
<rect width="20" height="20.6399" fill="white" transform="translate(8 7.68004)"/>
</clipPath>
</defs>
</svg>
