<svg width="36" height="36" viewBox="0 0 36 36" fill="none" xmlns="http://www.w3.org/2000/svg">
<rect width="36" height="36" rx="10" fill="#230033"/>
<g clip-path="url(#clip0_24_204)">
<path d="M27.1095 14.6628C26.6823 13.6349 25.8158 12.525 25.1372 12.1742C25.6211 13.1112 25.957 14.1176 26.1329 15.1574L26.1346 15.1739C25.023 12.4038 23.1387 11.285 21.5989 8.85228C21.521 8.72925 21.4431 8.60596 21.3673 8.47582C21.3239 8.4015 21.2892 8.33453 21.259 8.27288C21.1951 8.14923 21.1459 8.01855 21.1123 7.88349C21.1124 7.87725 21.1101 7.87122 21.106 7.86655C21.1019 7.86187 21.0962 7.85887 21.09 7.85812C21.084 7.85646 21.0776 7.85646 21.0715 7.85812C21.0702 7.85812 21.0682 7.8604 21.0667 7.86091C21.0652 7.86142 21.0619 7.8637 21.0596 7.86471L21.0634 7.85812C18.5938 9.30408 17.7554 11.9804 17.6793 13.3198C16.6928 13.3874 15.7495 13.7509 14.9726 14.3627C14.8916 14.294 14.8069 14.2298 14.7189 14.1704C14.4949 13.3862 14.4854 12.5564 14.6913 11.7673C13.7843 12.2066 12.9785 12.8294 12.3247 13.5963H12.3201C11.9305 13.1024 11.9579 11.4738 11.9802 11.1336C11.865 11.1799 11.7549 11.2383 11.652 11.3079C11.308 11.5534 10.9864 11.8288 10.691 12.1311C10.3544 12.4723 10.047 12.8412 9.77196 13.2338V13.2353V13.2335C9.13993 14.1294 8.6916 15.1416 8.45284 16.2117L8.43965 16.2767C8.42113 16.3632 8.35441 16.7964 8.343 16.8905C8.343 16.8979 8.34148 16.9048 8.34072 16.9121C8.25465 17.3594 8.20133 17.8124 8.18115 18.2675V18.3182C8.1855 20.7785 9.11204 23.1478 10.7779 24.9584C12.4437 26.7689 14.7278 27.8891 17.1792 28.0979C19.6307 28.3067 22.0713 27.5889 24.0193 26.0862C25.9674 24.5834 27.2813 22.405 27.7016 19.9808C27.7181 19.854 27.7315 19.7284 27.7463 19.6003C27.9488 17.9265 27.7295 16.2287 27.1085 14.6612L27.1095 14.6628ZM15.7778 22.3593C15.8237 22.3814 15.8668 22.4052 15.914 22.4263L15.9208 22.4306C15.8732 22.4078 15.8255 22.384 15.7778 22.3593ZM26.1349 15.1767V15.1673L26.1367 15.1777L26.1349 15.1767Z" fill="url(#paint0_linear_24_204)"/>
<path d="M27.1095 14.6628C26.6823 13.6349 25.8157 12.525 25.1371 12.1742C25.621 13.1112 25.9569 14.1176 26.1328 15.1574V15.1668L26.1346 15.1772C26.8925 17.3459 26.7829 19.7236 25.8286 21.8134C24.7018 24.2312 21.9753 26.7094 17.7059 26.5876C13.094 26.457 9.03013 23.0336 8.27164 18.5511C8.13338 17.8441 8.27164 17.4857 8.34115 16.9111C8.24633 17.3574 8.19342 17.8116 8.18311 18.2678V18.3185C8.18745 20.7788 9.114 23.1481 10.7798 24.9586C12.4457 26.7692 14.7298 27.8894 17.1812 28.0982C19.6326 28.307 22.0732 27.5892 24.0213 26.0864C25.9693 24.5837 27.2832 22.4052 27.7036 19.9811C27.7201 19.8543 27.7335 19.7287 27.7482 19.6006C27.9507 17.9268 27.7315 16.2289 27.1105 14.6615L27.1095 14.6628Z" fill="url(#paint1_radial_24_204)"/>
<path d="M27.1095 14.6628C26.6823 13.6349 25.8157 12.525 25.1371 12.1742C25.621 13.1112 25.9569 14.1176 26.1328 15.1574V15.1668L26.1346 15.1772C26.8925 17.3459 26.7829 19.7236 25.8286 21.8134C24.7018 24.2312 21.9753 26.7094 17.7059 26.5876C13.094 26.457 9.03013 23.0336 8.27164 18.5511C8.13338 17.8441 8.27164 17.4857 8.34115 16.9111C8.24633 17.3574 8.19342 17.8116 8.18311 18.2678V18.3185C8.18745 20.7788 9.114 23.1481 10.7798 24.9586C12.4457 26.7692 14.7298 27.8894 17.1812 28.0982C19.6326 28.307 22.0732 27.5892 24.0213 26.0864C25.9693 24.5837 27.2832 22.4052 27.7036 19.9811C27.7201 19.8543 27.7335 19.7287 27.7482 19.6006C27.9507 17.9268 27.7315 16.2289 27.1105 14.6615L27.1095 14.6628Z" fill="url(#paint2_radial_24_204)"/>
<path d="M22.3302 15.817C22.3515 15.832 22.3713 15.8469 22.3913 15.8619C22.1444 15.424 21.8369 15.023 21.4781 14.6709C18.4213 11.6141 20.6772 8.04483 21.0575 7.86218L21.0613 7.8566C18.5918 9.30256 17.7533 11.9789 17.6772 13.3183C17.7919 13.3104 17.9056 13.3008 18.0228 13.3008C18.8989 13.3025 19.759 13.5361 20.5156 13.978C21.2722 14.4199 21.8982 15.0542 22.3302 15.8165V15.817Z" fill="url(#paint3_radial_24_204)"/>
<path d="M18.0279 16.4283C18.0117 16.6729 17.1477 17.5164 16.8456 17.5164C14.05 17.5164 13.5959 19.2076 13.5959 19.2076C13.7197 20.6318 14.7121 21.8053 15.9118 22.4243C15.9666 22.4527 16.0221 22.4783 16.0777 22.5034C16.1739 22.546 16.2701 22.5854 16.3664 22.6216C16.7781 22.7673 17.2093 22.8505 17.6456 22.8684C22.5467 23.0983 23.4954 17.0085 19.9589 15.2404C20.7932 15.1318 21.638 15.3369 22.3295 15.816C21.8976 15.0537 21.2715 14.4193 20.5149 13.9775C19.7584 13.5356 18.8983 13.3019 18.0221 13.3002C17.9054 13.3002 17.7913 13.3099 17.6766 13.3178C16.69 13.3854 15.7468 13.7488 14.9699 14.3606C15.1198 14.4875 15.289 14.6569 15.6454 15.0083C16.3126 15.6655 18.0236 16.3464 18.0274 16.4263L18.0279 16.4283Z" fill="url(#paint4_radial_24_204)"/>
<path d="M18.0279 16.4283C18.0117 16.6729 17.1477 17.5164 16.8456 17.5164C14.05 17.5164 13.5959 19.2076 13.5959 19.2076C13.7197 20.6318 14.7121 21.8053 15.9118 22.4243C15.9666 22.4527 16.0221 22.4783 16.0777 22.5034C16.1739 22.546 16.2701 22.5854 16.3664 22.6216C16.7781 22.7673 17.2093 22.8505 17.6456 22.8684C22.5467 23.0983 23.4954 17.0085 19.9589 15.2404C20.7932 15.1318 21.638 15.3369 22.3295 15.816C21.8976 15.0537 21.2715 14.4193 20.5149 13.9775C19.7584 13.5356 18.8983 13.3019 18.0221 13.3002C17.9054 13.3002 17.7913 13.3099 17.6766 13.3178C16.69 13.3854 15.7468 13.7488 14.9699 14.3606C15.1198 14.4875 15.289 14.6569 15.6454 15.0083C16.3126 15.6655 18.0236 16.3464 18.0274 16.4263L18.0279 16.4283Z" fill="url(#paint5_radial_24_204)"/>
<path d="M14.5118 14.0362C14.5915 14.0869 14.6572 14.131 14.7148 14.1709C14.4908 13.3867 14.4812 12.5569 14.6871 11.7678C13.7802 12.2071 12.9743 12.8299 12.3206 13.5968C12.3685 13.5955 13.7947 13.5699 14.5118 14.0362Z" fill="url(#paint6_radial_24_204)"/>
<path d="M8.26993 18.5516C9.02868 23.0341 13.0923 26.4587 17.7042 26.5881C21.9736 26.7089 24.7006 24.2304 25.8269 21.8139C26.7812 19.7241 26.8908 17.3464 26.1329 15.1777V15.1683C26.1329 15.161 26.1313 15.1567 26.1329 15.1589L26.1346 15.1754C26.4834 17.4527 25.3252 19.6579 23.5142 21.1521L23.5086 21.1648C19.9799 24.0389 16.6035 22.8984 15.9211 22.4331C15.8734 22.4103 15.8257 22.3865 15.778 22.3619C13.7209 21.3786 12.8709 19.5055 13.0535 17.8971C12.5652 17.9043 12.0853 17.7698 11.6719 17.5098C11.2586 17.2497 10.9295 16.8754 10.7245 16.4322C11.2645 16.1013 11.8803 15.9143 12.5131 15.8889C13.1459 15.8635 13.7746 16.0006 14.3394 16.2871C15.5036 16.8155 16.8283 16.8676 18.0304 16.4322C18.0266 16.3522 16.3156 15.6711 15.6484 15.0141C15.292 14.6628 15.1228 14.4936 14.9728 14.3665C14.8918 14.2978 14.8071 14.2336 14.7192 14.1742C14.6608 14.1343 14.5951 14.0912 14.5162 14.0395C13.7991 13.5732 12.3729 13.5988 12.3257 13.6001H12.3212C11.9315 13.1062 11.9589 11.4776 11.9812 11.1374C11.866 11.1837 11.7559 11.2422 11.653 11.3117C11.309 11.5572 10.9874 11.8326 10.692 12.1349C10.3542 12.4752 10.0455 12.8432 9.76916 13.2351C9.13713 14.131 8.6888 15.1429 8.45004 16.213C8.44522 16.233 8.09591 17.7602 8.26815 18.5521L8.26993 18.5516Z" fill="url(#paint7_radial_24_204)"/>
<path d="M21.478 14.6704C21.8369 15.0229 22.1443 15.4243 22.3912 15.8626C22.4452 15.9035 22.4957 15.9441 22.5386 15.9834C24.7677 18.0382 23.5997 20.9428 23.5127 21.1483C25.3235 19.6564 26.4807 17.4497 26.1332 15.1716C25.0211 12.3989 23.1347 11.2802 21.5975 8.84746C21.5196 8.72442 21.4417 8.60114 21.3658 8.471C21.3225 8.39667 21.2877 8.3297 21.2575 8.26806C21.1937 8.14441 21.1445 8.01372 21.1109 7.87867C21.1109 7.87243 21.1087 7.8664 21.1046 7.86172C21.1005 7.85704 21.0948 7.85405 21.0886 7.8533C21.0825 7.85164 21.0761 7.85164 21.0701 7.8533C21.0688 7.8533 21.0668 7.85558 21.0652 7.85609C21.0637 7.8566 21.0604 7.85888 21.0581 7.85989C20.6779 8.04026 18.4224 11.6118 21.4792 14.6661L21.478 14.6704Z" fill="url(#paint8_radial_24_204)"/>
<path d="M22.5382 15.9844C22.4953 15.9451 22.4448 15.9045 22.3908 15.8637C22.3707 15.8487 22.351 15.8337 22.3296 15.8188C21.6381 15.3397 20.7933 15.1346 19.959 15.2432C23.4953 17.0113 22.5465 23.0995 17.6457 22.8712C17.2094 22.8533 16.7782 22.7701 16.3665 22.6244C16.2702 22.5884 16.174 22.549 16.0778 22.5062C16.0222 22.4808 15.9667 22.4555 15.9119 22.427L15.9187 22.4314C16.6021 22.8979 19.9775 24.0376 23.5062 21.163L23.5118 21.1503C23.5998 20.9448 24.7677 18.0402 22.5377 15.9854L22.5382 15.9844Z" fill="url(#paint9_radial_24_204)"/>
<path d="M13.5961 19.2061C13.5961 19.2061 14.0499 17.5148 16.8457 17.5148C17.1478 17.5148 18.0126 16.6714 18.0281 16.4268C16.826 16.8622 15.5013 16.8102 14.3371 16.2817C13.7723 15.9953 13.1435 15.8582 12.5107 15.8836C11.8779 15.909 11.2622 16.096 10.7222 16.4268C10.9271 16.8701 11.2562 17.2444 11.6696 17.5044C12.083 17.7645 12.5629 17.899 13.0512 17.8918C12.869 19.4994 13.7189 21.3723 15.7757 22.3565C15.8216 22.3786 15.8647 22.4024 15.9119 22.4235C14.7112 21.8033 13.7199 20.6303 13.5961 19.2069V19.2061Z" fill="url(#paint10_radial_24_204)"/>
<path d="M27.1095 14.6628C26.6823 13.6349 25.8158 12.525 25.1372 12.1742C25.6211 13.1112 25.9569 14.1176 26.1329 15.1574L26.1346 15.1739C25.023 12.4038 23.1387 11.285 21.5989 8.85228C21.521 8.72925 21.4431 8.60596 21.3673 8.47582C21.3239 8.4015 21.2891 8.33452 21.259 8.27288C21.1951 8.14923 21.1459 8.01855 21.1123 7.88349C21.1124 7.87725 21.1101 7.87122 21.106 7.86655C21.1019 7.86187 21.0962 7.85887 21.09 7.85812C21.0839 7.85646 21.0775 7.85646 21.0715 7.85812C21.0702 7.85812 21.0682 7.8604 21.0667 7.86091C21.0651 7.86142 21.0618 7.8637 21.0596 7.86471L21.0634 7.85812C18.5938 9.30408 17.7554 11.9804 17.6793 13.3198C17.794 13.3119 17.9076 13.3023 18.0248 13.3023C18.901 13.304 19.7611 13.5376 20.5177 13.9795C21.2742 14.4214 21.9003 15.0557 22.3323 15.818C21.6407 15.339 20.7959 15.1339 19.9616 15.2424C23.4979 17.0105 22.5492 23.0988 17.6484 22.8705C17.212 22.8525 16.7808 22.7693 16.3691 22.6237C16.2728 22.5876 16.1766 22.5482 16.0804 22.5054C16.0248 22.4801 15.9693 22.4547 15.9145 22.4263L15.9213 22.4306C15.8736 22.4078 15.8259 22.384 15.7783 22.3593C15.8242 22.3814 15.8673 22.4052 15.9145 22.4263C14.7138 21.8058 13.7225 20.6328 13.5987 19.2097C13.5987 19.2097 14.0525 17.5184 16.8483 17.5184C17.1504 17.5184 18.0152 16.6749 18.0307 16.4304C18.0269 16.3505 16.3158 15.6693 15.6486 15.0123C15.2922 14.661 15.123 14.4918 14.9731 14.3647C14.8921 14.2961 14.8074 14.2319 14.7194 14.1724C14.4954 13.3883 14.4859 12.5584 14.6918 11.7693C13.7848 12.2086 12.979 12.8314 12.3252 13.5983H12.3206C11.931 13.1044 11.9584 11.4758 11.9807 11.1356C11.8654 11.182 11.7554 11.2404 11.6525 11.3099C11.3085 11.5554 10.9869 11.8309 10.6915 12.1331C10.3549 12.4744 10.0475 12.8432 9.77245 13.2358C9.14042 14.1317 8.69209 15.1437 8.45333 16.2137L8.44014 16.2787C8.42162 16.3652 8.33867 16.8046 8.32674 16.8989C8.25087 17.3525 8.20241 17.8102 8.18164 18.2695V18.3203C8.18599 20.7806 9.11253 23.1498 10.7784 24.9604C12.4442 26.7709 14.7283 27.8912 17.1797 28.1C19.6311 28.3088 22.0718 27.5909 24.0198 26.0882C25.9679 24.5855 27.2817 22.407 27.7021 19.9829C27.7186 19.856 27.732 19.7305 27.7467 19.6024C27.9493 17.9286 27.73 16.2307 27.109 14.6633L27.1095 14.6628Z" fill="url(#paint11_linear_24_204)"/>
</g>
<defs>
<linearGradient id="paint0_linear_24_204" x1="25.8082" y1="10.9986" x2="9.48582" y2="26.7469" gradientUnits="userSpaceOnUse">
<stop offset="0.048" stop-color="#FFF44F"/>
<stop offset="0.111" stop-color="#FFE847"/>
<stop offset="0.225" stop-color="#FFC830"/>
<stop offset="0.368" stop-color="#FF980E"/>
<stop offset="0.401" stop-color="#FF8B16"/>
<stop offset="0.462" stop-color="#FF672A"/>
<stop offset="0.534" stop-color="#FF3647"/>
<stop offset="0.705" stop-color="#E31587"/>
</linearGradient>
<radialGradient id="paint1_radial_24_204" cx="0" cy="0" r="1" gradientUnits="userSpaceOnUse" gradientTransform="translate(25.1764 10.1397) scale(20.4971 20.4971)">
<stop offset="0.129" stop-color="#FFBD4F"/>
<stop offset="0.186" stop-color="#FFAC31"/>
<stop offset="0.247" stop-color="#FF9D17"/>
<stop offset="0.283" stop-color="#FF980E"/>
<stop offset="0.403" stop-color="#FF563B"/>
<stop offset="0.467" stop-color="#FF3750"/>
<stop offset="0.71" stop-color="#F5156C"/>
<stop offset="0.782" stop-color="#EB0878"/>
<stop offset="0.86" stop-color="#E50080"/>
</radialGradient>
<radialGradient id="paint2_radial_24_204" cx="0" cy="0" r="1" gradientUnits="userSpaceOnUse" gradientTransform="translate(17.5661 18.511) scale(20.4971 20.4971)">
<stop offset="0.3" stop-color="#960E18"/>
<stop offset="0.351" stop-color="#B11927" stop-opacity="0.74"/>
<stop offset="0.435" stop-color="#DB293D" stop-opacity="0.343"/>
<stop offset="0.497" stop-color="#F5334B" stop-opacity="0.094"/>
<stop offset="0.53" stop-color="#FF3750" stop-opacity="0"/>
</radialGradient>
<radialGradient id="paint3_radial_24_204" cx="0" cy="0" r="1" gradientUnits="userSpaceOnUse" gradientTransform="translate(20.1029 5.5735) scale(14.8477 14.8477)">
<stop offset="0.132" stop-color="#FFF44F"/>
<stop offset="0.252" stop-color="#FFDC3E"/>
<stop offset="0.506" stop-color="#FF9D12"/>
<stop offset="0.526" stop-color="#FF980E"/>
</radialGradient>
<radialGradient id="paint4_radial_24_204" cx="0" cy="0" r="1" gradientUnits="userSpaceOnUse" gradientTransform="translate(15.2832 23.8383) scale(9.75896 9.75896)">
<stop offset="0.353" stop-color="#3A8EE6"/>
<stop offset="0.472" stop-color="#5C79F0"/>
<stop offset="0.669" stop-color="#9059FF"/>
<stop offset="1" stop-color="#C139E6"/>
</radialGradient>
<radialGradient id="paint5_radial_24_204" cx="0" cy="0" r="1" gradientUnits="userSpaceOnUse" gradientTransform="translate(18.5576 16.7515) rotate(-13.5916) scale(5.17504 6.05868)">
<stop offset="0.206" stop-color="#9059FF" stop-opacity="0"/>
<stop offset="0.278" stop-color="#8C4FF3" stop-opacity="0.064"/>
<stop offset="0.747" stop-color="#7716A8" stop-opacity="0.45"/>
<stop offset="0.975" stop-color="#6E008B" stop-opacity="0.6"/>
</radialGradient>
<radialGradient id="paint6_radial_24_204" cx="0" cy="0" r="1" gradientUnits="userSpaceOnUse" gradientTransform="translate(17.3124 9.37866) scale(7.02178 7.02178)">
<stop stop-color="#FFE226"/>
<stop offset="0.121" stop-color="#FFDB27"/>
<stop offset="0.295" stop-color="#FFC82A"/>
<stop offset="0.502" stop-color="#FFA930"/>
<stop offset="0.732" stop-color="#FF7E37"/>
<stop offset="0.792" stop-color="#FF7139"/>
</radialGradient>
<radialGradient id="paint7_radial_24_204" cx="0" cy="0" r="1" gradientUnits="userSpaceOnUse" gradientTransform="translate(22.8934 4.81247) scale(29.9593)">
<stop offset="0.113" stop-color="#FFF44F"/>
<stop offset="0.456" stop-color="#FF980E"/>
<stop offset="0.622" stop-color="#FF5634"/>
<stop offset="0.716" stop-color="#FF3647"/>
<stop offset="0.904" stop-color="#E31587"/>
</radialGradient>
<radialGradient id="paint8_radial_24_204" cx="0" cy="0" r="1" gradientUnits="userSpaceOnUse" gradientTransform="translate(20.4034 6.47355) rotate(83.976) scale(21.9546 14.4086)">
<stop stop-color="#FFF44F"/>
<stop offset="0.06" stop-color="#FFE847"/>
<stop offset="0.168" stop-color="#FFC830"/>
<stop offset="0.304" stop-color="#FF980E"/>
<stop offset="0.356" stop-color="#FF8B16"/>
<stop offset="0.455" stop-color="#FF672A"/>
<stop offset="0.57" stop-color="#FF3647"/>
<stop offset="0.737" stop-color="#E31587"/>
</radialGradient>
<radialGradient id="paint9_radial_24_204" cx="0" cy="0" r="1" gradientUnits="userSpaceOnUse" gradientTransform="translate(17.3124 11.9154) scale(18.7011 18.7011)">
<stop offset="0.137" stop-color="#FFF44F"/>
<stop offset="0.48" stop-color="#FF980E"/>
<stop offset="0.592" stop-color="#FF5634"/>
<stop offset="0.655" stop-color="#FF3647"/>
<stop offset="0.904" stop-color="#E31587"/>
</radialGradient>
<radialGradient id="paint10_radial_24_204" cx="0" cy="0" r="1" gradientUnits="userSpaceOnUse" gradientTransform="translate(22.1323 12.9301) scale(20.4692)">
<stop offset="0.094" stop-color="#FFF44F"/>
<stop offset="0.231" stop-color="#FFE141"/>
<stop offset="0.509" stop-color="#FFAF1E"/>
<stop offset="0.626" stop-color="#FF980E"/>
</radialGradient>
<linearGradient id="paint11_linear_24_204" x1="25.6103" y1="10.9149" x2="11.724" y2="24.8037" gradientUnits="userSpaceOnUse">
<stop offset="0.167" stop-color="#FFF44F" stop-opacity="0.8"/>
<stop offset="0.266" stop-color="#FFF44F" stop-opacity="0.634"/>
<stop offset="0.489" stop-color="#FFF44F" stop-opacity="0.217"/>
<stop offset="0.6" stop-color="#FFF44F" stop-opacity="0"/>
</linearGradient>
<clipPath id="clip0_24_204">
<rect width="20" height="20.6587" fill="white" transform="translate(8 7.67062)"/>
</clipPath>
</defs>
</svg>
