<svg width="36" height="36" viewBox="0 0 36 36" fill="none" xmlns="http://www.w3.org/2000/svg">
<rect width="36" height="36" rx="15" fill="#5497E6"/>
<ellipse cx="15.3684" cy="16.37" rx="7.36842" ry="7.37" fill="#F6D32D"/>
<path d="M14.1711 18.3971H15.1957C15.5 17.1505 16.1286 16.0192 17.0102 15.1317C17.8918 14.2442 18.9911 13.6362 20.183 13.3766C21.375 13.1171 22.6118 13.2164 23.7531 13.6634C24.8943 14.1103 25.8942 14.887 26.6391 15.9051C27.3839 16.9232 27.8439 18.142 27.9668 19.4228C28.0896 20.7037 27.8704 21.9954 27.3341 23.151C26.7977 24.3067 25.9657 25.28 24.9326 25.9604C23.8995 26.6408 22.7067 27.001 21.4897 27H14.1711C13.0928 27 12.0586 26.5468 11.2961 25.7401C10.5336 24.9334 10.1053 23.8393 10.1053 22.6985C10.1053 21.5577 10.5336 20.4636 11.2961 19.6569C12.0586 18.8502 13.0928 18.3971 14.1711 18.3971Z" fill="white"/>
</svg>
