<svg width="36" height="36" viewBox="0 0 36 36" fill="none" xmlns="http://www.w3.org/2000/svg">
<rect width="36" height="36" rx="15" fill="#161616"/>
<path fill-rule="evenodd" clip-rule="evenodd" d="M10.4238 13.3297C9.72776 14.5129 9.04033 15.6815 9.04033 19.1871C8.73759 23.1875 10.1801 24.8583 12.0016 25.5426C11.3297 24.7489 10.364 22.5936 11.8764 20.3226C12.8191 18.907 15.4074 18.1973 18 18.1936C20.6062 18.1899 23.2168 18.8995 24.1646 20.3226C25.5513 22.4049 24.5448 24.4183 24.0724 25.3634C24.0296 25.4491 23.9911 25.5259 23.9593 25.5933C26.1904 24.7547 27 22.6193 27 19.1871C27 15.5536 26.3077 14.4307 25.5 13.2C24.6923 11.9692 23.25 10 23.25 10L21.3288 12.942H18.0205H14.7121L12.75 10.0001C12.75 10.0001 11.2212 11.9692 10.5 13.2C10.4746 13.2433 10.4492 13.2865 10.4238 13.3297Z" fill="white"/>
<path d="M14.7121 12.942L12.75 10.0001C12.75 10.0001 11.2212 11.9692 10.5 13.2C10.4746 13.2433 10.4492 13.2865 10.4238 13.3297C9.72776 14.5129 9.04033 15.6815 9.04033 19.1871C8.73759 23.1875 10.1801 24.8583 12.0016 25.5426M14.7121 12.942C14.7121 12.942 15.6573 12.942 18.0205 12.942M14.7121 12.942H18.0205M21.3288 12.942L23.25 10C23.25 10 24.6923 11.9692 25.5 13.2C26.3077 14.4307 27 15.5536 27 19.1871C27 22.6193 26.1904 24.7547 23.9593 25.5933M21.3288 12.942C21.3288 12.942 19.9109 12.942 18.0205 12.942M21.3288 12.942H18.0205M21.3285 26C17.0749 26 18.0202 26 15.1844 26M21.3285 26C22.3678 26 23.2379 25.8644 23.9593 25.5933M21.3285 26H15.1844M15.1844 26C14.1651 26 13.0237 25.9266 12.0016 25.5426M12.0016 25.5426C11.3297 24.7489 10.364 22.5936 11.8764 20.3226C12.8191 18.907 15.4074 18.1973 18 18.1936C20.6062 18.1899 23.2168 18.8995 24.1646 20.3226C25.5513 22.4049 24.5448 24.4183 24.0724 25.3634C24.0296 25.4491 23.9911 25.5259 23.9593 25.5933" stroke="white" stroke-width="2" stroke-linejoin="round"/>
<circle cx="15.4999" cy="22.5" r="1.07143" fill="white"/>
<circle cx="20.4999" cy="22.5" r="1.07143" fill="white"/>
</svg>
