<svg width="36" height="36" viewBox="0 0 36 36" fill="none" xmlns="http://www.w3.org/2000/svg">
<rect width="36" height="36" rx="10" fill="url(#paint0_radial_24_296)"/>
<rect width="36" height="36" rx="10" fill="url(#paint1_radial_24_296)" fill-opacity="0.15"/>
<rect width="36" height="36" rx="10" fill="url(#paint2_radial_24_296)" fill-opacity="0.15"/>
<path fill-rule="evenodd" clip-rule="evenodd" d="M16.1285 11.2384C15.6405 10.9924 15.102 10.9527 14.608 11.047L13.6018 11.2388C12.7964 11.3924 12.1026 11.9109 11.7276 12.6452C10.4784 15.0921 9.53996 17.0893 9.17237 18.7908C8.79529 20.5363 9.00837 22.0241 10.0956 23.3808C10.8323 24.2999 12.1215 24.1158 12.7953 23.3517C13.3214 22.755 13.9177 22.0676 14.4977 21.3941C14.9278 20.8946 15.5516 20.6069 16.2072 20.6069H19.7927C20.4485 20.6069 21.0721 20.8946 21.5024 21.3941C22.0824 22.0676 22.6786 22.755 23.2047 23.3517C23.8785 24.1158 25.1677 24.2999 25.9044 23.3808C26.9916 22.0241 27.2047 20.5363 26.8276 18.7909C26.4601 17.0893 25.5215 15.0921 24.2724 12.6453C23.8974 11.9109 23.2037 11.3924 22.3982 11.2389L21.3921 11.047C20.898 10.9528 20.3595 10.9924 19.8715 11.2384L19.8071 11.2712C19.4387 11.4597 19.05 11.5651 18.6652 11.5651H17.3348C16.9501 11.5651 16.5613 11.4597 16.1929 11.2712L16.1285 11.2384ZM18 12C16.8954 12 16 12.8954 16 14C16 15.1046 16.8954 16 18 16C19.1046 16 20 15.1046 20 14C20 12.8954 19.1046 12 18 12Z" fill="white"/>
<path d="M14.608 11.047L14.7836 11.9679L14.7836 11.9679L14.608 11.047ZM16.1285 11.2384L16.5531 10.4026L16.5506 10.4013L16.1285 11.2384ZM13.6018 11.2388L13.4262 10.3179L13.4262 10.3179L13.6018 11.2388ZM11.7276 12.6452L10.8927 12.219L10.8927 12.219L11.7276 12.6452ZM9.17237 18.7908L8.25601 18.5928L8.25601 18.5928L9.17237 18.7908ZM10.0956 23.3808L9.36409 23.9671L9.3641 23.9671L10.0956 23.3808ZM12.7953 23.3517L13.4985 23.9717L13.4985 23.9717L12.7953 23.3517ZM14.4977 21.3941L15.2081 22.0059L15.2081 22.0059L14.4977 21.3941ZM21.5024 21.3941L22.2127 20.7824L22.2127 20.7824L21.5024 21.3941ZM23.2047 23.3517L22.5015 23.9717L22.5015 23.9718L23.2047 23.3517ZM25.9044 23.3808L26.6359 23.9672L26.636 23.9671L25.9044 23.3808ZM26.8276 18.7909L25.9113 18.9888L25.9113 18.9889L26.8276 18.7909ZM24.2724 12.6453L25.1074 12.219L25.1074 12.2189L24.2724 12.6453ZM22.3982 11.2389L22.2226 12.1598L22.2226 12.1598L22.3982 11.2389ZM21.3921 11.047L21.5677 10.1261L21.5677 10.1261L21.3921 11.047ZM19.8715 11.2384L19.4494 10.4013L19.4468 10.4027L19.8715 11.2384ZM19.8071 11.2712L19.3824 10.4354L19.3801 10.4366L19.8071 11.2712ZM16.1929 11.2712L16.62 10.4366L16.6175 10.4353L16.1929 11.2712ZM14.7836 11.9679C15.1117 11.9053 15.4341 11.9382 15.7064 12.0755L16.5506 10.4013C15.847 10.0466 15.0923 10.0002 14.4323 10.126L14.7836 11.9679ZM13.7774 12.1597L14.7836 11.9679L14.4324 10.126L13.4262 10.3179L13.7774 12.1597ZM12.5626 13.0715C12.8057 12.5954 13.2558 12.2592 13.7774 12.1597L13.4262 10.3179C12.3369 10.5257 11.3995 11.2263 10.8927 12.219L12.5626 13.0715ZM10.0887 18.9887C10.4265 17.4253 11.3056 15.5337 12.5626 13.0715L10.8927 12.219C9.65131 14.6505 8.65343 16.7533 8.25601 18.5928L10.0887 18.9887ZM10.8272 22.7946C9.95479 21.7059 9.75697 20.5244 10.0887 18.9887L8.25601 18.5928C7.8336 20.5481 8.06195 22.3423 9.36409 23.9671L10.8272 22.7946ZM12.0921 22.7316C11.9203 22.9265 11.6642 23.0482 11.419 23.0613C11.1958 23.0733 10.9907 22.9986 10.8272 22.7945L9.3641 23.9671C10.5551 25.4532 12.5416 25.0569 13.4985 23.9717L12.0921 22.7316ZM13.7873 20.7824C13.2085 21.4545 12.6148 22.1389 12.0921 22.7316L13.4985 23.9717C14.028 23.3712 14.6269 22.6808 15.2081 22.0059L13.7873 20.7824ZM16.2072 19.6694C15.2762 19.6694 14.394 20.0778 13.7873 20.7824L15.2081 22.0059C15.4617 21.7113 15.8269 21.5444 16.2072 21.5444V19.6694ZM19.7927 19.6694H16.2072V21.5444H19.7927V19.6694ZM22.2127 20.7824C21.606 20.0778 20.7238 19.6694 19.7927 19.6694V21.5444C20.1731 21.5444 20.5383 21.7113 20.792 22.0059L22.2127 20.7824ZM23.9079 22.7316C23.3852 22.1389 22.7916 21.4545 22.2127 20.7824L20.792 22.0059C21.3731 22.6807 21.972 23.3712 22.5015 23.9717L23.9079 22.7316ZM25.1729 22.7945C25.0093 22.9986 24.8042 23.0733 24.581 23.0613C24.3358 23.0482 24.0797 22.9265 23.9078 22.7316L22.5015 23.9718C23.4585 25.0569 25.4449 25.4532 26.6359 23.9672L25.1729 22.7945ZM25.9113 18.9889C26.243 20.5244 26.0452 21.7059 25.1728 22.7946L26.636 23.9671C27.938 22.3423 28.1664 20.5482 27.744 18.5929L25.9113 18.9889ZM23.4374 13.0715C24.6944 15.5338 25.5735 17.4253 25.9113 18.9888L27.744 18.5929C27.3466 16.7533 26.3487 14.6505 25.1074 12.219L23.4374 13.0715ZM22.2226 12.1598C22.7442 12.2592 23.1943 12.5954 23.4374 13.0716L25.1074 12.2189C24.6005 11.2263 23.6632 10.5257 22.5739 10.3179L22.2226 12.1598ZM21.2164 11.9679L22.2226 12.1598L22.5739 10.3179L21.5677 10.1261L21.2164 11.9679ZM20.2936 12.0756C20.5659 11.9383 20.8883 11.9053 21.2165 11.9679L21.5677 10.1261C20.9077 10.0002 20.153 10.0466 19.4494 10.4013L20.2936 12.0756ZM20.2318 12.1069L20.2962 12.0742L19.4468 10.4027L19.3824 10.4354L20.2318 12.1069ZM18.6652 12.5026C19.2217 12.5026 19.7559 12.3505 20.2342 12.1057L19.3801 10.4366C19.1215 10.5689 18.8783 10.6276 18.6652 10.6276V12.5026ZM17.3348 12.5026H18.6652V10.6276H17.3348V12.5026ZM15.7658 12.1057C16.2441 12.3505 16.7784 12.5026 17.3348 12.5026V10.6276C17.1218 10.6276 16.8785 10.5689 16.62 10.4366L15.7658 12.1057ZM15.7039 12.0743L15.7683 12.107L16.6175 10.4353L16.5531 10.4026L15.7039 12.0743ZM16.9375 14C16.9375 13.4132 17.4132 12.9375 18 12.9375V11.0625C16.3777 11.0625 15.0625 12.3777 15.0625 14H16.9375ZM18 15.0625C17.4132 15.0625 16.9375 14.5868 16.9375 14H15.0625C15.0625 15.6223 16.3777 16.9375 18 16.9375V15.0625ZM19.0625 14C19.0625 14.5868 18.5868 15.0625 18 15.0625V16.9375C19.6223 16.9375 20.9375 15.6223 20.9375 14H19.0625ZM18 12.9375C18.5868 12.9375 19.0625 13.4132 19.0625 14H20.9375C20.9375 12.3777 19.6223 11.0625 18 11.0625V12.9375Z" fill="white"/>
<defs>
<radialGradient id="paint0_radial_24_296" cx="0" cy="0" r="1" gradientUnits="userSpaceOnUse" gradientTransform="translate(34.875 33.875) rotate(-157.654) scale(34.1927)">
<stop stop-color="#091229"/>
<stop offset="1" stop-color="#2E0C3A"/>
</radialGradient>
<radialGradient id="paint1_radial_24_296" cx="0" cy="0" r="1" gradientUnits="userSpaceOnUse" gradientTransform="translate(34.0625 1.5) rotate(143.812) scale(26.2519)">
<stop stop-color="#67FFD1"/>
<stop offset="1" stop-color="#67FFD1" stop-opacity="0"/>
</radialGradient>
<radialGradient id="paint2_radial_24_296" cx="0" cy="0" r="1" gradientUnits="userSpaceOnUse" gradientTransform="translate(13.125 34.6875) rotate(-119.663) scale(21.7216)">
<stop stop-color="#FF67D4"/>
<stop offset="1" stop-color="#FF67D4" stop-opacity="0"/>
</radialGradient>
</defs>
</svg>
