<svg width="36" height="36" viewBox="0 0 36 36" fill="none" xmlns="http://www.w3.org/2000/svg">
<g clip-path="url(#clip0_52_356)">
<g clip-path="url(#clip1_52_356)">
<rect width="64" height="36" transform="translate(-14)" fill="#000832"/>
<g opacity="0.5" filter="url(#filter0_f_52_356)">
<path d="M-16.7334 46.9333V7.40001L3.03327 27.1667V66.7L-16.7334 46.9333Z" fill="#00B2FF"/>
</g>
<g opacity="0.5" filter="url(#filter1_f_52_356)">
<path d="M20.8999 13.2333V52.7667L40.6666 33V-6.53333L20.8999 13.2333Z" fill="#0085FF"/>
</g>
<g opacity="0.5" filter="url(#filter2_f_52_356)">
<path d="M25.2334 -13.8333V25.7L5.46673 5.93333V-33.6L25.2334 -13.8333Z" fill="#D049FF"/>
</g>
<g opacity="0.5" filter="url(#filter3_f_52_356)">
<path d="M17.8667 19.5V44.3L5.4667 31.9V7.10001L17.8667 19.5Z" fill="#49F4FF"/>
</g>
<g opacity="0.5" filter="url(#filter4_f_52_356)">
<path d="M56.2 31.8667V56.6667L43.8 44.2667V19.4667L56.2 31.8667Z" fill="#0057FF"/>
</g>
<g style="mix-blend-mode:overlay">
<path d="M-18.8 45.8667V6.33333L0.966619 26.1V65.6333L-18.8 45.8667Z" fill="url(#paint0_linear_52_356)"/>
<path d="M29.8667 3.36666V-36.1667L10.1 -16.4V23.1333L29.8667 3.36666Z" fill="url(#paint1_linear_52_356)"/>
<path d="M32.4666 19.8444V-5.06668L19.9999 7.38888V32.3L32.4666 19.8444Z" fill="url(#paint2_linear_52_356)"/>
<path d="M-6.83325 -16.4889V29.2L16.0334 6.35556V-39.3333L-6.83325 -16.4889Z" fill="url(#paint3_linear_52_356)"/>
<path d="M56.2 53.2556V7.56667L33.3333 30.4111V76.1L56.2 53.2556Z" fill="url(#paint4_linear_52_356)"/>
<path d="M29.8667 11.7111V57.4L52.7334 34.5556V-11.1333L29.8667 11.7111Z" fill="url(#paint5_linear_52_356)"/>
</g>
<g style="mix-blend-mode:plus-lighter">
<path d="M27.3333 48.3667V87.9L7.56658 68.1333V28.6L27.3333 48.3667Z" fill="url(#paint6_linear_52_356)"/>
<path d="M29.9333 31.8889V56.8L17.4667 44.3445V19.4333L29.9333 31.8889Z" fill="url(#paint7_linear_52_356)"/>
<path d="M-8.3667 16.1445V-8.76666L4.09997 3.68889V28.6L-8.3667 16.1445Z" fill="url(#paint8_linear_52_356)"/>
<path d="M-9.3667 68.2222V22.5333L13.5 45.3778V91.0667L-9.3667 68.2222Z" fill="url(#paint9_linear_52_356)"/>
<path d="M53.6667 -1.52222V44.1667L30.8001 21.3222V-24.3667L53.6667 -1.52222Z" fill="url(#paint10_linear_52_356)"/>
<path d="M27.3333 40.0222V-5.66667L50.1999 17.1778V62.8667L27.3333 40.0222Z" fill="url(#paint11_linear_52_356)"/>
</g>
</g>
<g clip-path="url(#clip2_52_356)">
<rect x="9" y="9" width="18" height="18" rx="9" stroke="white" stroke-width="2"/>
<g clip-path="url(#clip3_52_356)">
<path d="M15.8125 15.3355C15.9889 14.8485 16.3372 14.4379 16.7955 14.1764C17.2539 13.9148 17.7928 13.8192 18.3168 13.9065C18.8408 13.9937 19.3161 14.2583 19.6585 14.6532C20.0009 15.0481 20.1883 15.5479 20.1875 16.0641C20.1875 17.5214 17.9362 18.25 17.9362 18.25" stroke="white" stroke-width="2" stroke-linecap="round" stroke-linejoin="round"/>
</g>
<rect x="17" y="21.1875" width="2" height="2" rx="1" fill="white"/>
</g>
</g>
<defs>
<filter id="filter0_f_52_356" x="-33.4001" y="-9.26664" width="53.0999" height="92.6333" filterUnits="userSpaceOnUse" color-interpolation-filters="sRGB">
<feFlood flood-opacity="0" result="BackgroundImageFix"/>
<feBlend mode="normal" in="SourceGraphic" in2="BackgroundImageFix" result="shape"/>
<feGaussianBlur stdDeviation="8.33333" result="effect1_foregroundBlur_52_356"/>
</filter>
<filter id="filter1_f_52_356" x="4.23323" y="-23.2" width="53.0999" height="92.6333" filterUnits="userSpaceOnUse" color-interpolation-filters="sRGB">
<feFlood flood-opacity="0" result="BackgroundImageFix"/>
<feBlend mode="normal" in="SourceGraphic" in2="BackgroundImageFix" result="shape"/>
<feGaussianBlur stdDeviation="8.33333" result="effect1_foregroundBlur_52_356"/>
</filter>
<filter id="filter2_f_52_356" x="-11.1999" y="-50.2667" width="53.0999" height="92.6334" filterUnits="userSpaceOnUse" color-interpolation-filters="sRGB">
<feFlood flood-opacity="0" result="BackgroundImageFix"/>
<feBlend mode="normal" in="SourceGraphic" in2="BackgroundImageFix" result="shape"/>
<feGaussianBlur stdDeviation="8.33333" result="effect1_foregroundBlur_52_356"/>
</filter>
<filter id="filter3_f_52_356" x="-11.1999" y="-9.56666" width="45.7332" height="70.5333" filterUnits="userSpaceOnUse" color-interpolation-filters="sRGB">
<feFlood flood-opacity="0" result="BackgroundImageFix"/>
<feBlend mode="normal" in="SourceGraphic" in2="BackgroundImageFix" result="shape"/>
<feGaussianBlur stdDeviation="8.33333" result="effect1_foregroundBlur_52_356"/>
</filter>
<filter id="filter4_f_52_356" x="27.1334" y="2.80001" width="45.7332" height="70.5333" filterUnits="userSpaceOnUse" color-interpolation-filters="sRGB">
<feFlood flood-opacity="0" result="BackgroundImageFix"/>
<feBlend mode="normal" in="SourceGraphic" in2="BackgroundImageFix" result="shape"/>
<feGaussianBlur stdDeviation="8.33333" result="effect1_foregroundBlur_52_356"/>
</filter>
<linearGradient id="paint0_linear_52_356" x1="-8.91671" y1="65.6333" x2="-8.91671" y2="6.33333" gradientUnits="userSpaceOnUse">
<stop stop-color="white" stop-opacity="0.25"/>
<stop offset="1" stop-color="white" stop-opacity="0"/>
</linearGradient>
<linearGradient id="paint1_linear_52_356" x1="19.9834" y1="23.1333" x2="19.9834" y2="-36.1667" gradientUnits="userSpaceOnUse">
<stop stop-color="white" stop-opacity="0.25"/>
<stop offset="1" stop-color="white" stop-opacity="0"/>
</linearGradient>
<linearGradient id="paint2_linear_52_356" x1="26.2332" y1="32.3" x2="26.2332" y2="-5.06668" gradientUnits="userSpaceOnUse">
<stop stop-color="white" stop-opacity="0.25"/>
<stop offset="1" stop-color="white" stop-opacity="0"/>
</linearGradient>
<linearGradient id="paint3_linear_52_356" x1="4.60008" y1="-39.3333" x2="4.60008" y2="29.2" gradientUnits="userSpaceOnUse">
<stop stop-color="white" stop-opacity="0.25"/>
<stop offset="1" stop-color="white" stop-opacity="0"/>
</linearGradient>
<linearGradient id="paint4_linear_52_356" x1="44.7666" y1="76.1" x2="44.7666" y2="7.56667" gradientUnits="userSpaceOnUse">
<stop stop-color="white" stop-opacity="0.25"/>
<stop offset="1" stop-color="white" stop-opacity="0"/>
</linearGradient>
<linearGradient id="paint5_linear_52_356" x1="41.3" y1="-11.1333" x2="41.3" y2="57.4" gradientUnits="userSpaceOnUse">
<stop stop-color="white" stop-opacity="0.25"/>
<stop offset="1" stop-color="white" stop-opacity="0"/>
</linearGradient>
<linearGradient id="paint6_linear_52_356" x1="17.4499" y1="28.6" x2="17.4499" y2="87.9" gradientUnits="userSpaceOnUse">
<stop stop-color="white" stop-opacity="0.25"/>
<stop offset="1" stop-color="white" stop-opacity="0"/>
</linearGradient>
<linearGradient id="paint7_linear_52_356" x1="23.7" y1="19.4333" x2="23.7" y2="56.8" gradientUnits="userSpaceOnUse">
<stop stop-color="white" stop-opacity="0.25"/>
<stop offset="1" stop-color="white" stop-opacity="0"/>
</linearGradient>
<linearGradient id="paint8_linear_52_356" x1="-2.13337" y1="28.6" x2="-2.13337" y2="-8.76666" gradientUnits="userSpaceOnUse">
<stop stop-color="white" stop-opacity="0.25"/>
<stop offset="1" stop-color="white" stop-opacity="0"/>
</linearGradient>
<linearGradient id="paint9_linear_52_356" x1="2.06664" y1="91.0667" x2="2.06664" y2="22.5333" gradientUnits="userSpaceOnUse">
<stop stop-color="white" stop-opacity="0.25"/>
<stop offset="1" stop-color="white" stop-opacity="0"/>
</linearGradient>
<linearGradient id="paint10_linear_52_356" x1="42.2334" y1="-24.3667" x2="42.2334" y2="44.1667" gradientUnits="userSpaceOnUse">
<stop stop-color="white" stop-opacity="0.25"/>
<stop offset="1" stop-color="white" stop-opacity="0"/>
</linearGradient>
<linearGradient id="paint11_linear_52_356" x1="38.7666" y1="62.8667" x2="38.7666" y2="-5.66667" gradientUnits="userSpaceOnUse">
<stop stop-color="white" stop-opacity="0.25"/>
<stop offset="1" stop-color="white" stop-opacity="0"/>
</linearGradient>
<clipPath id="clip0_52_356">
<rect width="36" height="36" rx="15" fill="white"/>
</clipPath>
<clipPath id="clip1_52_356">
<rect width="64" height="36" fill="white" transform="translate(-14)"/>
</clipPath>
<clipPath id="clip2_52_356">
<rect width="20" height="20" fill="white" transform="translate(8 8)"/>
</clipPath>
<clipPath id="clip3_52_356">
<rect width="6.5" height="6.5" fill="white" transform="translate(14.75 12.8125)"/>
</clipPath>
</defs>
</svg>
