<svg width="36" height="36" viewBox="0 0 36 36" fill="none" xmlns="http://www.w3.org/2000/svg">
<rect width="36" height="36" rx="10" fill="url(#paint0_radial_64_3622)"/>
<g clip-path="url(#clip0_64_3622)">
<path d="M24.2898 24.1423C23.4476 24.8992 24.3845 25.6655 25.2154 25.1773C25.4002 24.9899 25.2094 24.3304 24.2898 24.1423ZM12.1963 25.364C12.8498 25.9302 13.8608 25.2233 14.1628 24.4338C13.5293 23.5922 11.1573 24.4644 12.1963 25.364ZM24.6366 23.3721C24.6366 23.7469 27.3981 23.993 27.3981 23.2841C27.1333 22.7953 26.6245 22.4692 26.039 22.4692C25.4195 22.4692 24.8847 22.8353 24.6406 23.3628L24.6366 23.3721ZM16.1554 8.80913L8.77191 16.364C6.27784 19.4529 10.4704 19.0942 12.2669 19.9831C12.9118 20.642 9.79621 21.1288 10.4411 21.7883C11.0853 22.4472 14.3396 23.058 14.9851 23.7169C15.6293 24.3757 13.6654 25.0753 14.3102 25.7335C14.9544 26.3937 16.4462 25.7681 16.7249 27.2899C16.923 28.3769 19.4117 27.7567 20.6281 26.8665C21.2729 26.2076 19.3951 26.269 20.0399 25.6101C21.6424 23.9709 23.1355 25.0153 23.6843 23.3714C23.9551 22.5599 21.3243 22.1204 21.9698 21.4615C23.825 20.3779 30.2356 19.673 27.1934 16.6314L19.5418 8.80913C19.1023 8.38967 18.5055 8.13159 17.8486 8.13159C17.1917 8.13159 16.5956 8.389 16.1554 8.80913ZM19.095 9.33995L22.0158 12.3068C22.1539 12.4595 22.2379 12.6623 22.2379 12.8857C22.2379 13.0364 22.1992 13.1778 22.1319 13.3011L22.1339 13.2965L20.6841 12.1368L20.3994 13.8546L19.187 13.2151L17.2471 14.4401L16.6049 11.8567L15.5626 13.6599H13.9681C13.3179 13.6599 13.2426 12.835 13.8321 12.2448C14.863 11.1325 16.0461 9.99814 16.6896 9.34062C17.0003 9.03853 17.4245 8.85247 17.8926 8.85247C18.3608 8.85247 18.7849 9.03853 19.0956 9.34128L19.095 9.33995ZM14.3889 20.3939C14.5863 20.5166 17.5705 21.1228 18.3001 21.2441C18.5528 21.2975 18.3734 21.5576 18.0253 21.7336C17.2398 21.943 13.4273 20.3939 14.3889 20.3939Z" fill="black"/>
<path d="M19.095 9.33995L22.0158 12.3068C22.1539 12.4595 22.2379 12.6623 22.2379 12.8857C22.2379 13.0364 22.1992 13.1778 22.1319 13.3011L22.1339 13.2965L20.6841 12.1368L20.3994 13.8546L19.187 13.2151L17.2471 14.4401L16.6049 11.8567L15.5626 13.6599H13.9681C13.3179 13.6599 13.2426 12.835 13.8321 12.2448C14.863 11.1325 16.0461 9.99814 16.6896 9.34062C17.0003 9.03853 17.4245 8.85247 17.8926 8.85247C18.3608 8.85247 18.7849 9.03853 19.0956 9.34128L19.095 9.33995Z" fill="white"/>
</g>
<defs>
<radialGradient id="paint0_radial_64_3622" cx="0" cy="0" r="1" gradientUnits="userSpaceOnUse" gradientTransform="translate(18 36) rotate(-90) scale(36)">
<stop stop-color="white"/>
<stop offset="1" stop-color="#999999"/>
</radialGradient>
<clipPath id="clip0_64_3622">
<rect width="20" height="20" fill="white" transform="translate(8 8)"/>
</clipPath>
</defs>
</svg>
