<svg width="36" height="36" viewBox="0 0 36 36" fill="none" xmlns="http://www.w3.org/2000/svg">
<rect width="36" height="36" rx="15" fill="white"/>
<path d="M26.5 15V20.5" stroke="black"/>
<path d="M26.8964 21.5H26.1036C25.8808 21.5 25.7693 21.2307 25.9268 21.0732L26.3232 20.6768C26.4209 20.5791 26.5791 20.5791 26.6768 20.6768L27.0732 21.0732C27.2307 21.2307 27.1192 21.5 26.8964 21.5Z" fill="black" stroke="black"/>
<path d="M12.03 17.4612L17.5606 19.6195C17.843 19.7297 18.1567 19.7284 18.4381 19.6158L23.9703 17.403L27.1155 16.2063C28.1275 15.8212 28.1456 14.396 27.1436 13.9854L18.4474 10.4221C18.1605 10.3045 17.8391 10.3032 17.5513 10.4183L8.79805 13.9196C7.80179 14.3181 7.79589 15.7263 8.78877 16.1331L12.03 17.4612Z" fill="#2F2F2F"/>
<path d="M18.4381 19.6158C18.1567 19.7284 17.843 19.7297 17.5606 19.6195L12.03 17.4612V19.6728L12.4172 23.7034C12.4666 24.2184 12.8421 24.643 13.3472 24.755L16.8293 25.527L17.7659 25.7144C17.9205 25.7453 18.0797 25.7453 18.2343 25.7144L19.171 25.527L22.67 24.6969C23.1666 24.5791 23.5334 24.1588 23.5828 23.6509L23.9703 19.6728V17.403L18.4381 19.6158Z" fill="black"/>
</svg>
