<svg width="36" height="36" viewBox="0 0 36 36" fill="none" xmlns="http://www.w3.org/2000/svg">
<g clip-path="url(#clip0_24_348)">
<rect width="36" height="36" rx="15" fill="url(#paint0_radial_24_348)"/>
<path opacity="0.5" d="M-11.7239 -2.84572L-46.5879 68.9846H-11.7239L23.1402 -2.84572H-11.7239Z" fill="url(#paint1_linear_24_348)"/>
<path opacity="0.5" d="M26.3086 -33.0154L-8.55542 38.815H26.3086L61.1726 -33.0154H26.3086Z" fill="url(#paint2_linear_24_348)"/>
<path opacity="0.5" d="M47.5481 51.9379L82.4121 -19.8925H47.5481L12.684 51.9379H47.5481Z" fill="url(#paint3_linear_24_348)"/>
<path d="M8 18C8 12.4772 12.4772 8 18 8C23.5228 8 28 12.4772 28 18C28 23.5228 23.5228 28 18 28C12.4772 28 8 23.5228 8 18ZM22 18C22 15.7909 20.2091 14 18 14C15.7909 14 14 15.7909 14 18C14 20.2091 15.7909 22 18 22C20.2091 22 22 20.2091 22 18Z" fill="#7E0404"/>
<path d="M18 9.6C18 9.05287 18 8.77931 17.8682 8.54871C17.7634 8.36536 17.5493 8.183 17.3516 8.10876C17.1029 8.01538 16.8709 8.05283 16.4068 8.12773C14.9956 8.35548 13.6432 8.88425 12.4443 9.6853C10.7998 10.7841 9.51808 12.3459 8.7612 14.1732C8.00433 16.0004 7.80629 18.0111 8.19215 19.9509C8.578 21.8907 9.53041 23.6725 10.9289 25.0711C12.3275 26.4696 14.1093 27.422 16.0491 27.8079C17.9889 28.1937 19.9996 27.9957 21.8268 27.2388C23.6541 26.4819 25.2159 25.2002 26.3147 23.5557C27.1157 22.3568 27.6445 21.0044 27.8723 19.5932C27.9472 19.1291 27.9846 18.8971 27.8912 18.6484C27.817 18.4507 27.6346 18.2366 27.4513 18.1318C27.2207 18 26.9471 18 26.4 18H23.6C23.0855 18 22.8283 18 22.6617 18.0611C22.4634 18.1337 22.419 18.1631 22.2749 18.3175C22.1538 18.4471 21.9973 18.8173 21.6842 19.5577C21.5865 19.7889 21.4667 20.0115 21.3259 20.2223C20.8864 20.8801 20.2616 21.3928 19.5307 21.6955C18.7998 21.9983 17.9956 22.0775 17.2196 21.9231C16.4437 21.7688 15.731 21.3878 15.1716 20.8284C14.6122 20.269 14.2312 19.5563 14.0769 18.7804C13.9225 18.0044 14.0017 17.2002 14.3045 16.4693C14.6072 15.7384 15.1199 15.1136 15.7777 14.6741C15.9885 14.5333 16.2111 14.4135 16.4423 14.3158C17.1827 14.0027 17.5529 13.8462 17.6825 13.7251C17.8369 13.581 17.8663 13.5366 17.9389 13.3383C18 13.1717 18 12.9145 18 12.4V9.6Z" fill="white"/>
</g>
<defs>
<radialGradient id="paint0_radial_24_348" cx="0" cy="0" r="1" gradientUnits="userSpaceOnUse" gradientTransform="translate(17.9096 -0.0158197) rotate(90) scale(36)">
<stop stop-color="#F16565"/>
<stop offset="1" stop-color="#941616"/>
</radialGradient>
<linearGradient id="paint1_linear_24_348" x1="-11.7239" y1="-2.84572" x2="-11.7239" y2="68.9846" gradientUnits="userSpaceOnUse">
<stop stop-color="white" stop-opacity="0.4"/>
<stop offset="1" stop-color="white" stop-opacity="0"/>
</linearGradient>
<linearGradient id="paint2_linear_24_348" x1="26.3086" y1="-33.0154" x2="26.3086" y2="38.815" gradientUnits="userSpaceOnUse">
<stop stop-color="white" stop-opacity="0.4"/>
<stop offset="1" stop-color="white" stop-opacity="0"/>
</linearGradient>
<linearGradient id="paint3_linear_24_348" x1="47.5481" y1="51.9379" x2="47.5481" y2="-19.8925" gradientUnits="userSpaceOnUse">
<stop stop-color="white" stop-opacity="0.4"/>
<stop offset="1" stop-color="white" stop-opacity="0"/>
</linearGradient>
<clipPath id="clip0_24_348">
<rect width="36" height="36" rx="15" fill="white"/>
</clipPath>
</defs>
</svg>
