<svg width="36" height="36" viewBox="0 0 36 36" fill="none" xmlns="http://www.w3.org/2000/svg">
<g clip-path="url(#clip0_74_3622)">
<rect width="36" height="36" rx="10" fill="url(#paint0_radial_74_3622)"/>
<path opacity="0.5" d="M-11.7239 -2.84596L-46.5879 68.9844H-11.7239L23.1402 -2.84596H-11.7239Z" fill="url(#paint1_linear_74_3622)"/>
<path opacity="0.5" d="M26.3086 -33.0156L-8.55542 38.8147H26.3086L61.1726 -33.0156H26.3086Z" fill="url(#paint2_linear_74_3622)"/>
<path opacity="0.5" d="M47.5481 51.9376L82.4121 -19.8927H47.5481L12.684 51.9376H47.5481Z" fill="url(#paint3_linear_74_3622)"/>
<g clip-path="url(#clip1_74_3622)">
<path d="M21.5586 10.6612L22.5586 11.2445C24.0592 12.1199 24.6237 12.4617 25.0275 12.913C25.4055 13.3354 25.6909 13.8323 25.8653 14.3717C26.0517 14.9478 26.0625 15.6077 26.0625 17.345V18.655C26.0625 20.3923 26.0517 21.0522 25.8653 21.6283C25.6909 22.1677 25.4055 22.6646 25.0275 23.087C24.6237 23.5383 24.0592 23.8801 22.5586 24.7555L21.5586 25.3388C20.0356 26.2272 19.4516 26.5551 18.8518 26.6837C18.2903 26.8041 17.7097 26.8041 17.1482 26.6837C16.5484 26.5551 15.9644 26.2272 14.4414 25.3388L13.4414 24.7555C11.9408 23.8801 11.3763 23.5383 10.9725 23.087C10.5945 22.6646 10.3091 22.1677 10.1347 21.6283C9.9483 21.0522 9.9375 20.3923 9.9375 18.655V17.345C9.9375 15.6077 9.9483 14.9478 10.1347 14.3717C10.3091 13.8323 10.5945 13.3354 10.9725 12.913C11.3763 12.4617 11.9408 12.1199 13.4414 11.2445L14.4414 10.6612C15.9644 9.7728 16.5484 9.44493 17.1482 9.31631C17.7097 9.19592 18.2903 9.19592 18.8518 9.31631C19.4516 9.44493 20.0356 9.7728 21.5586 10.6612Z" fill="white" stroke="white" stroke-width="1.875"/>
<mask id="mask0_74_3622" style="mask-type:alpha" maskUnits="userSpaceOnUse" x="9" y="8" width="18" height="20">
<path d="M21.5586 10.6612L22.5586 11.2445C24.0592 12.1199 24.6237 12.4617 25.0275 12.913C25.4055 13.3354 25.6909 13.8323 25.8653 14.3717C26.0517 14.9478 26.0625 15.6077 26.0625 17.345V18.655C26.0625 20.3923 26.0517 21.0522 25.8653 21.6283C25.6909 22.1677 25.4055 22.6646 25.0275 23.087C24.6237 23.5383 24.0592 23.8801 22.5586 24.7555L21.5586 25.3388C20.0356 26.2272 19.4516 26.5551 18.8518 26.6837C18.2903 26.8041 17.7097 26.8041 17.1482 26.6837C16.5484 26.5551 15.9644 26.2272 14.4414 25.3388L13.4414 24.7555C11.9408 23.8801 11.3763 23.5383 10.9725 23.087C10.5945 22.6646 10.3091 22.1677 10.1347 21.6283C9.9483 21.0522 9.9375 20.3923 9.9375 18.655V17.345C9.9375 15.6077 9.9483 14.9478 10.1347 14.3717C10.3091 13.8323 10.5945 13.3354 10.9725 12.913C11.3763 12.4617 11.9408 12.1199 13.4414 11.2445L14.4414 10.6612C15.9644 9.7728 16.5484 9.44493 17.1482 9.31631C17.7097 9.19592 18.2903 9.19592 18.8518 9.31631C19.4516 9.44493 20.0356 9.7728 21.5586 10.6612Z" fill="white" stroke="white" stroke-width="1.875"/>
</mask>
<g mask="url(#mask0_74_3622)">
<path d="M27.0005 12.75L20.5198 8.96962C18.963 8.06148 17.0379 8.06148 15.4811 8.96962L13.5005 10.125L9.00049 12.75L15.2097 16.8895C16.8979 18.0149 19.0988 18.0086 20.7805 16.8735L22.4219 15.7656L27.0005 12.75Z" fill="#6B6B6B"/>
<path d="M22.4219 15.7656L13.5005 10.125" stroke="white" stroke-width="2" stroke-linecap="square"/>
</g>
</g>
</g>
<defs>
<radialGradient id="paint0_radial_74_3622" cx="0" cy="0" r="1" gradientUnits="userSpaceOnUse" gradientTransform="translate(17.9096 -0.0158197) rotate(90) scale(36)">
<stop stop-color="#CECECE"/>
<stop offset="1" stop-color="#9C9C9C"/>
</radialGradient>
<linearGradient id="paint1_linear_74_3622" x1="-11.7239" y1="-2.84596" x2="-11.7239" y2="68.9844" gradientUnits="userSpaceOnUse">
<stop stop-color="white" stop-opacity="0.4"/>
<stop offset="1" stop-color="white" stop-opacity="0"/>
</linearGradient>
<linearGradient id="paint2_linear_74_3622" x1="26.3086" y1="-33.0156" x2="26.3086" y2="38.8147" gradientUnits="userSpaceOnUse">
<stop stop-color="white" stop-opacity="0.4"/>
<stop offset="1" stop-color="white" stop-opacity="0"/>
</linearGradient>
<linearGradient id="paint3_linear_74_3622" x1="47.5481" y1="51.9376" x2="47.5481" y2="-19.8927" gradientUnits="userSpaceOnUse">
<stop stop-color="white" stop-opacity="0.4"/>
<stop offset="1" stop-color="white" stop-opacity="0"/>
</linearGradient>
<clipPath id="clip0_74_3622">
<rect width="36" height="36" rx="10" fill="white"/>
</clipPath>
<clipPath id="clip1_74_3622">
<rect width="20" height="20" fill="white" transform="translate(8 8)"/>
</clipPath>
</defs>
</svg>
