<svg width="36" height="36" viewBox="0 0 36 36" fill="none" xmlns="http://www.w3.org/2000/svg">
<rect width="36" height="36" rx="10" fill="#17191F"/>
<g clip-path="url(#clip0_24_3161)">
<path d="M26.9306 19.9898C26.6564 21.4006 24.4745 22.9446 21.9685 23.2439C20.6618 23.3998 19.3752 23.5431 18.0033 23.4802C15.7596 23.3774 13.9892 22.9446 13.9892 22.9446C13.9892 23.163 14.0027 23.371 14.0296 23.5655C14.3213 25.7797 16.2252 25.9124 18.0287 25.9742C19.849 26.0365 21.4698 25.5254 21.4698 25.5254L21.5446 27.1711C21.5446 27.1711 20.2714 27.8548 18.0033 27.9805C16.7526 28.0493 15.1996 27.9491 13.3909 27.4703C9.46798 26.432 8.79333 22.2504 8.6901 18.0074C8.65864 16.7477 8.67803 15.5598 8.67803 14.5663C8.67803 10.2277 11.5207 8.95599 11.5207 8.95599C12.954 8.29772 15.4135 8.0209 17.9704 8H18.0332C20.5901 8.0209 23.0512 8.29772 24.4845 8.95599C24.4845 8.95599 27.327 10.2277 27.327 14.5663C27.327 14.5663 27.3627 17.7674 26.9306 19.9898Z" fill="#5C4FE5"/>
<rect x="12" y="12" width="3" height="3" rx="1.5" fill="white"/>
</g>
<defs>
<clipPath id="clip0_24_3161">
<rect width="18.6556" height="20" fill="white" transform="translate(8.67212 8)"/>
</clipPath>
</defs>
</svg>
