<svg width="36" height="36" viewBox="0 0 36 36" fill="none" xmlns="http://www.w3.org/2000/svg">
<rect width="36" height="36" rx="15" fill="#CD0C1D"/>
<path d="M28 17.26V23.6025H24.7865V17.7674C24.7865 15.9915 23.9831 15.1459 22.6723 15.1459C21.2347 15.1459 20.2199 16.0761 20.2199 18.0634V23.6448H17.0063V17.7674C17.0063 15.9915 16.2452 15.1459 14.8922 15.1459C13.4545 15.1459 12.4397 16.0761 12.4397 18.0634V23.6448H9.22622V14.9767H8V12.482H11.8055L11.9746 14.2156C12.778 12.9894 14.1734 12.3552 15.7801 12.3552C17.3446 12.3552 18.6554 12.9471 19.4165 14.1733C20.3044 13.0317 21.7421 12.3552 23.4334 12.3552C26.1395 12.3552 28 13.8774 28 17.26Z" fill="white"/>
</svg>
