<svg width="36" height="36" viewBox="0 0 36 36" fill="none" xmlns="http://www.w3.org/2000/svg">
<rect width="36" height="36" rx="10" fill="#E17919"/>
<mask id="mask0_24_87" style="mask-type:alpha" maskUnits="userSpaceOnUse" x="9" y="8" width="18" height="20">
<path d="M15.6689 26.705L11.4689 24.3716C10.5703 23.8724 10.1211 23.6228 9.7939 23.2678C9.50447 22.9537 9.28544 22.5815 9.15145 22.176C9 21.7176 9 21.2036 9 20.1757V15.8243C9 14.7964 9 14.2824 9.15145 13.824C9.28544 13.4185 9.50447 13.0463 9.7939 12.7322C10.1211 12.3772 10.5703 12.1276 11.4689 11.6284L15.6689 9.29505C16.5197 8.82237 16.9451 8.58604 17.3956 8.49338C17.7944 8.41138 18.2056 8.41138 18.6044 8.49338C19.0549 8.58604 19.4803 8.82237 20.3311 9.29505L24.5311 11.6284L24.5311 11.6284C25.4297 12.1276 25.8789 12.3772 26.2061 12.7322C26.4955 13.0463 26.7146 13.4185 26.8485 13.824C27 14.2824 27 14.7964 27 15.8243V20.1757C27 21.2036 27 21.7176 26.8485 22.176C26.7146 22.5815 26.4955 22.9537 26.2061 23.2678C25.8789 23.6228 25.4297 23.8724 24.5311 24.3716L24.5311 24.3716L20.3311 26.705L20.3311 26.705C19.4803 27.1776 19.0549 27.414 18.6044 27.5066C18.2056 27.5886 17.7944 27.5886 17.3956 27.5066C16.9451 27.414 16.5197 27.1776 15.6689 26.705L15.6689 26.705Z" fill="#D9D9D9"/>
</mask>
<g mask="url(#mask0_24_87)">
<path d="M18 8L27 13L18 18L9 13L18 8Z" fill="white"/>
<path d="M18.0002 27.9999L9.00024 22.9999V12.9999L18.0002 17.9999V27.9999Z" fill="#DADADA"/>
<path d="M17.9998 27.9999L26.9998 22.9999V12.9999L17.9998 17.9999V27.9999Z" fill="#ADADAD"/>
</g>
</svg>
