<svg width="36" height="36" viewBox="0 0 36 36" fill="none" xmlns="http://www.w3.org/2000/svg">
<g clip-path="url(#clip0_24_539)">
<rect width="36" height="36" rx="10" fill="#262626"/>
<g opacity="0.236" filter="url(#filter0_d_24_539)">
<path d="M-0.722168 20H10.198C10.6005 20 10.8017 20 10.9744 19.9339C11.1269 19.8755 11.2628 19.7806 11.3702 19.6576C11.4918 19.5183 11.5612 19.3294 11.6999 18.9516L13.5659 13.8711C14.2011 12.1416 14.5187 11.2769 14.8995 11.1039C15.2277 10.9547 15.6108 10.9937 15.9021 11.206C16.2401 11.4523 16.3768 12.3633 16.6501 14.1854L17.9305 22.7214C18.1684 24.3074 18.2873 25.1003 18.6079 25.3461C18.8847 25.5584 19.2522 25.611 19.5775 25.4851C19.9541 25.3392 20.291 24.6116 20.9647 23.1563L21.9964 20.9278C22.1521 20.5916 22.2299 20.4236 22.3504 20.3005C22.4569 20.1916 22.5869 20.1086 22.7304 20.0576C22.8927 20 23.078 20 23.4484 20L36.7223 20" stroke="#FFE100" stroke-width="2" stroke-miterlimit="10" shape-rendering="crispEdges"/>
</g>
<g filter="url(#filter1_d_24_539)">
<path d="M25.2036 20H23.4483C23.0778 20 22.8926 20 22.7303 20.0576C22.5868 20.1086 22.4568 20.1916 22.3503 20.3005C22.2298 20.4236 22.1519 20.5916 21.9963 20.9278L20.9646 23.1563C20.2909 24.6116 19.954 25.3392 19.5774 25.4851C19.252 25.611 18.8846 25.5584 18.6077 25.3461C18.2872 25.1003 18.1683 24.3074 17.9304 22.7214L16.65 14.1854C16.3767 12.3633 16.24 11.4523 15.902 11.206C15.6106 10.9937 15.2275 10.9547 14.8993 11.1039C14.5186 11.2769 14.201 12.1416 13.5658 13.8711L11.6998 18.9516C11.561 19.3294 11.4917 19.5183 11.3701 19.6576C11.2627 19.7806 11.1268 19.8755 10.9743 19.9339C10.8016 20 10.6004 20 10.1979 20H0.722168" stroke="#FFE100" stroke-width="2" stroke-miterlimit="10" stroke-linecap="round"/>
</g>
</g>
<defs>
<filter id="filter0_d_24_539" x="-9.61106" y="3.34755" width="55.2221" height="34.3161" filterUnits="userSpaceOnUse" color-interpolation-filters="sRGB">
<feFlood flood-opacity="0" result="BackgroundImageFix"/>
<feColorMatrix in="SourceAlpha" type="matrix" values="0 0 0 0 0 0 0 0 0 0 0 0 0 0 0 0 0 0 127 0" result="hardAlpha"/>
<feOffset dy="2.22222"/>
<feGaussianBlur stdDeviation="4.44444"/>
<feComposite in2="hardAlpha" operator="out"/>
<feColorMatrix type="matrix" values="0 0 0 0 0 0 0 0 0 0 0 0 0 0 0 0 0 0 0.1 0"/>
<feBlend mode="normal" in2="BackgroundImageFix" result="effect1_dropShadow_24_539"/>
<feBlend mode="normal" in="SourceGraphic" in2="effect1_dropShadow_24_539" result="shape"/>
</filter>
<filter id="filter1_d_24_539" x="-9.16672" y="3.34755" width="44.2592" height="34.3161" filterUnits="userSpaceOnUse" color-interpolation-filters="sRGB">
<feFlood flood-opacity="0" result="BackgroundImageFix"/>
<feColorMatrix in="SourceAlpha" type="matrix" values="0 0 0 0 0 0 0 0 0 0 0 0 0 0 0 0 0 0 127 0" result="hardAlpha"/>
<feOffset dy="2.22222"/>
<feGaussianBlur stdDeviation="4.44444"/>
<feComposite in2="hardAlpha" operator="out"/>
<feColorMatrix type="matrix" values="0 0 0 0 0 0 0 0 0 0 0 0 0 0 0 0 0 0 0.1 0"/>
<feBlend mode="normal" in2="BackgroundImageFix" result="effect1_dropShadow_24_539"/>
<feBlend mode="normal" in="SourceGraphic" in2="effect1_dropShadow_24_539" result="shape"/>
</filter>
<clipPath id="clip0_24_539">
<rect width="36" height="36" rx="10" fill="white"/>
</clipPath>
</defs>
</svg>
