<svg width="36" height="36" viewBox="0 0 36 36" fill="none" xmlns="http://www.w3.org/2000/svg">
<rect width="36" height="36" rx="15" fill="black"/>
<path d="M9.00244 15L10.5711 15.9415C11.7021 16.6203 12.2676 16.9597 12.4595 17.3986C12.6269 17.7817 12.6269 18.2172 12.4594 18.6002C12.2676 19.0391 11.7021 19.3785 10.571 20.0572L9 21" stroke="white" stroke-width="2" stroke-linecap="round"/>
<path d="M23.3023 22.3259L23.3023 13.5892C23.3023 12.5481 23.3023 12.0276 23.5163 11.7579C23.7023 11.5234 23.9848 11.3859 24.2842 11.3841C24.6284 11.3821 25.038 11.7032 25.8574 12.3454L27.0001 13.2411M23.3023 22.3259C23.3023 24.1657 21.8307 25.6572 20.0154 25.6572C18.2001 25.6572 16.7285 24.1657 16.7285 22.3259C16.7285 20.486 18.2001 18.9945 20.0154 18.9945C21.8307 18.9945 23.3023 20.486 23.3023 22.3259Z" stroke="#3DE244" stroke-width="2" stroke-linecap="round"/>
<path d="M23.3023 22.3259L23.3023 13.5892C23.3023 12.5481 23.3023 12.0276 23.5163 11.7579C23.7023 11.5234 23.9848 11.3859 24.2842 11.3841C24.6284 11.3821 25.038 11.7032 25.8574 12.3454L27.0001 13.2411M23.3023 22.3259C23.3023 24.1657 21.8307 25.6572 20.0154 25.6572C18.2001 25.6572 16.7285 24.1657 16.7285 22.3259C16.7285 20.486 18.2001 18.9945 20.0154 18.9945C21.8307 18.9945 23.3023 20.486 23.3023 22.3259Z" stroke="black" stroke-opacity="0.2" stroke-width="2" stroke-linecap="round"/>
</svg>
