<svg width="36" height="36" viewBox="0 0 36 36" fill="none" xmlns="http://www.w3.org/2000/svg">
<rect width="36" height="36" rx="15" fill="url(#paint0_radial_24_291)"/>
<rect x="8.9375" y="8.9375" width="18.125" height="18.125" rx="3.5625" stroke="white" stroke-width="1.875"/>
<path fill-rule="evenodd" clip-rule="evenodd" d="M26.5 8H9.5V26.125H26.5V8ZM23 13C23 12.4477 22.5523 12 22 12C21.4477 12 21 12.4477 21 13C21 14.6569 19.6569 16 18 16C16.3431 16 15 14.6569 15 13C15 12.4477 14.5523 12 14 12C13.4477 12 13 12.4477 13 13C13 15.7614 15.2386 18 18 18C20.7614 18 23 15.7614 23 13Z" fill="white"/>
<defs>
<radialGradient id="paint0_radial_24_291" cx="0" cy="0" r="1" gradientUnits="userSpaceOnUse" gradientTransform="translate(18 36) rotate(-90) scale(36 31.2509)">
<stop stop-color="#00C2FF"/>
<stop offset="1" stop-color="#4B5DFF"/>
</radialGradient>
</defs>
</svg>
