<svg width="36" height="36" viewBox="0 0 36 36" fill="none" xmlns="http://www.w3.org/2000/svg">
<g clip-path="url(#clip0_24_161)">
<rect width="36" height="36" rx="15" fill="#33373A"/>
<g clip-path="url(#clip1_24_161)" filter="url(#filter0_d_24_161)">
<path fill-rule="evenodd" clip-rule="evenodd" d="M0.336663 -10.4538C0.481357 -10.995 0.553704 -11.2656 0.714304 -11.4441C0.855571 -11.6012 1.04294 -11.7094 1.24953 -11.7534C1.48441 -11.8034 1.75499 -11.731 2.29616 -11.5861L46.4555 0.236465C46.9962 0.381218 47.2665 0.453594 47.4449 0.614094C47.6019 0.755277 47.7101 0.942497 47.7541 1.14894C47.8042 1.38364 47.732 1.65402 47.5876 2.1948L43.3131 18.2031C43.1685 18.7445 43.0962 19.0152 42.9356 19.1938C42.7944 19.3509 42.607 19.4593 42.4004 19.5033C42.1654 19.5533 41.8948 19.4808 41.3535 19.3359L16.2445 12.6135C15.7038 12.4687 15.4335 12.3964 15.1988 12.4462C14.9923 12.4901 14.8051 12.5982 14.6638 12.755C14.5031 12.9333 14.4306 13.2036 14.2854 13.7441L13.6647 16.0559C13.5195 16.5964 13.447 16.8667 13.2863 17.0449C13.1451 17.2018 12.9578 17.3098 12.7513 17.3537C12.5166 17.4036 12.2463 17.3313 11.7056 17.1865L-4.25491 12.9136C-4.79574 12.7688 -5.06616 12.6964 -5.24458 12.5359C-5.40153 12.3947 -5.50975 12.2074 -5.55374 12.0009C-5.60376 11.7661 -5.53145 11.4957 -5.38685 10.9548L0.336663 -10.4538ZM35.7134 46.4037C35.5687 46.9449 35.4964 47.2156 35.3358 47.3941C35.1945 47.5511 35.0072 47.6594 34.8006 47.7034C34.5657 47.7534 34.2951 47.6809 33.7539 47.5361L-10.4054 35.7135C-10.9461 35.5687 -11.2164 35.4964 -11.3948 35.3359C-11.5517 35.1947 -11.66 35.0075 -11.704 34.801C-11.7541 34.5663 -11.6819 34.2959 -11.5375 33.7552L-7.26317 17.7475C-7.11855 17.2059 -7.04623 16.9351 -6.88557 16.7565C-6.74424 16.5993 -6.55678 16.491 -6.35007 16.4471C-6.11507 16.3971 -5.84433 16.4697 -5.30285 16.6149L19.7551 23.3356C20.2959 23.4807 20.5663 23.5532 20.8011 23.5034C21.0077 23.4595 21.195 23.3514 21.3364 23.1946C21.4971 23.0163 21.5697 22.7459 21.7149 22.2052L22.3357 19.8931C22.4808 19.3529 22.5533 19.0828 22.7138 18.9045C22.855 18.7478 23.0422 18.6397 23.2485 18.5957C23.4831 18.5457 23.7533 18.6179 24.2937 18.7622L40.3037 23.0371C40.845 23.1816 41.1156 23.2539 41.2942 23.4144C41.4513 23.5556 41.5596 23.7429 41.6036 23.9495C41.6537 24.1844 41.5814 24.455 41.4367 24.9962L35.7134 46.4037Z" fill="#00A0FF"/>
</g>
</g>
<defs>
<filter id="filter0_d_24_161" x="-16" y="-16" width="68" height="68" filterUnits="userSpaceOnUse" color-interpolation-filters="sRGB">
<feFlood flood-opacity="0" result="BackgroundImageFix"/>
<feColorMatrix in="SourceAlpha" type="matrix" values="0 0 0 0 0 0 0 0 0 0 0 0 0 0 0 0 0 0 127 0" result="hardAlpha"/>
<feOffset/>
<feGaussianBlur stdDeviation="2"/>
<feColorMatrix type="matrix" values="0 0 0 0 0 0 0 0 0 0 0 0 0 0 0 0 0 0 0.25 0"/>
<feBlend mode="normal" in2="BackgroundImageFix" result="effect1_dropShadow_24_161"/>
<feBlend mode="normal" in="SourceGraphic" in2="effect1_dropShadow_24_161" result="shape"/>
</filter>
<clipPath id="clip0_24_161">
<rect width="36" height="36" rx="15" fill="white"/>
</clipPath>
<clipPath id="clip1_24_161">
<rect width="60" height="60" fill="white" transform="translate(-12 -12)"/>
</clipPath>
</defs>
</svg>
