<svg width="36" height="36" viewBox="0 0 36 36" fill="none" xmlns="http://www.w3.org/2000/svg">
<g clip-path="url(#clip0_24_167)">
<rect width="36" height="36" rx="15" fill="#0C0C0C"/>
<g opacity="0.5" filter="url(#filter0_df_24_167)">
<path d="M-1.00011 15.4793C2.25099 15.0224 5.56024 15.2103 8.73872 16.0323C11.9172 16.8543 14.9026 18.2944 17.5246 20.2701C20.1466 22.2459 22.3537 24.7188 24.0199 27.5476C25.6862 30.3763 26.779 33.5056 27.2359 36.7567L22.2846 37.4526C21.9191 34.8517 21.0448 32.3483 19.7118 30.0853C18.3788 27.8222 16.6131 25.8439 14.5155 24.2633C12.418 22.6827 10.0296 21.5307 7.48682 20.8731C4.94404 20.2155 2.29663 20.0651 -0.304244 20.4307L-1.00011 15.4793Z" fill="url(#paint0_angular_24_167)"/>
<path d="M19.7118 30.0853C21.0448 32.3483 21.9191 34.8517 22.2846 37.4526L2.47922 40.236L-0.304244 20.4307C2.29663 20.0651 4.94404 20.2155 7.48682 20.8731C10.0296 21.5307 12.418 22.6827 14.5155 24.2633C16.6131 25.8439 18.3788 27.8222 19.7118 30.0853Z" fill="url(#paint1_angular_24_167)"/>
<path d="M-1.99038 15.6185L-2.12955 14.6282L-1.13928 14.4891C2.24186 14.0139 5.68349 14.2093 8.9891 15.0642C12.2947 15.9191 15.3996 17.4167 18.1264 19.4715C20.8532 21.5263 23.1487 24.0981 24.8816 27.04C26.6145 29.982 27.751 33.2364 28.2262 36.6175L28.3654 37.6078L27.3751 37.747L23.414 38.3037L22.4238 38.4428L21.4335 38.582L2.61839 41.2263L1.62812 41.3655L1.48895 40.3752L-1.15534 21.5601L-1.29451 20.5698L-1.43369 19.5796L-1.99038 15.6185Z" stroke="url(#paint2_angular_24_167)" stroke-width="2"/>
</g>
<path d="M24.6221 12.3558C23.4301 14.7877 20.7385 18.2124 18.6059 20L17.3051 21.0905C17.1414 21.2165 16.9791 21.3303 16.8019 21.4158L14.0678 21.4252L14.5526 19.2339C14.6402 19.0386 14.7628 18.8513 14.9062 18.6916L15.9846 17.3922C17.7662 15.2603 21.2044 12.5552 23.6295 11.3699C24.002 11.1969 24.3369 11.2555 24.5303 11.4557C24.7358 11.6545 24.8066 11.988 24.6221 12.3558Z" fill="#8C6043" stroke="#8C6043" stroke-width="1.5" stroke-linecap="round" stroke-linejoin="round"/>
<mask id="mask0_24_167" style="mask-type:alpha" maskUnits="userSpaceOnUse" x="13" y="10" width="13" height="13">
<path d="M24.6221 12.3558C23.4301 14.7877 20.7385 18.2124 18.6059 20L17.3051 21.0905C17.1414 21.2165 16.9791 21.3303 16.8019 21.4158L14.0678 21.4252L14.5526 19.2339C14.6402 19.0386 14.7628 18.8513 14.9062 18.6916L15.9846 17.3922C17.7662 15.2603 21.2044 12.5552 23.6295 11.3699C24.002 11.1969 24.3369 11.2555 24.5303 11.4557C24.7358 11.6545 24.8066 11.988 24.6221 12.3558Z" fill="#8C6043" stroke="#8C6043" stroke-width="1.5" stroke-linecap="round" stroke-linejoin="round"/>
</mask>
<g mask="url(#mask0_24_167)">
<path fill-rule="evenodd" clip-rule="evenodd" d="M15.5783 16.4126L15.8565 15.9545C18.4619 15.6654 20.3429 17.5464 20.0539 20.1518L19.5 21L18.4803 21.0626L18.563 20.3172C18.7607 18.5351 17.4732 17.2476 15.6911 17.4453L14.9457 17.528L15.5783 16.4126Z" fill="black" fill-opacity="0.25"/>
</g>
<path d="M16.8064 22.1033C16.8064 22.8935 16.5046 23.6479 15.9371 24.2226C15.4988 24.6609 14.9025 24.9626 14.1913 25.056L12.4239 25.25H10.75V23.5617L10.944 21.7943C11.1164 20.221 12.4311 19.2152 13.8249 19.1864C13.9686 19.1792 14.1195 19.1864 14.256 19.1936C14.8666 19.2726 15.4629 19.5528 15.9515 20.0485C16.4328 20.5299 16.7058 21.0903 16.7848 21.6937C16.792 21.8303 16.8064 21.9668 16.8064 22.1033Z" fill="#FFF0D3" stroke="#FFF0D3" stroke-width="1.5" stroke-linecap="round" stroke-linejoin="round"/>
</g>
<defs>
<filter id="filter0_df_24_167" x="-23.259" y="-6.76398" width="72.7539" height="69.2589" filterUnits="userSpaceOnUse" color-interpolation-filters="sRGB">
<feFlood flood-opacity="0" result="BackgroundImageFix"/>
<feColorMatrix in="SourceAlpha" type="matrix" values="0 0 0 0 0 0 0 0 0 0 0 0 0 0 0 0 0 0 127 0" result="hardAlpha"/>
<feOffset/>
<feGaussianBlur stdDeviation="10"/>
<feComposite in2="hardAlpha" operator="out"/>
<feColorMatrix type="matrix" values="0 0 0 0 0 0 0 0 0 0 0 0 0 0 0 0 0 0 1 0"/>
<feBlend mode="normal" in2="BackgroundImageFix" result="effect1_dropShadow_24_167"/>
<feBlend mode="normal" in="SourceGraphic" in2="effect1_dropShadow_24_167" result="shape"/>
<feGaussianBlur stdDeviation="5.35" result="effect2_foregroundBlur_24_167"/>
</filter>
<radialGradient id="paint0_angular_24_167" cx="0" cy="0" r="1" gradientUnits="userSpaceOnUse" gradientTransform="translate(2.47922 40.236) rotate(82) scale(25)">
<stop offset="0.25" stop-color="#FF0000"/>
<stop offset="0.269698" stop-color="#FF5C00"/>
<stop offset="0.285807" stop-color="#FFA800"/>
<stop offset="0.302629" stop-color="#FAFF00"/>
<stop offset="0.314633" stop-color="#8FFF00"/>
<stop offset="0.325811" stop-color="#24FF00"/>
<stop offset="0.34609" stop-color="#00FF57"/>
<stop offset="0.361421" stop-color="#00F0FF"/>
<stop offset="0.385731" stop-color="#0066FF"/>
<stop offset="0.408051" stop-color="#4200FF"/>
<stop offset="0.431125" stop-color="#BD00FF"/>
<stop offset="0.455289" stop-color="#FF0099"/>
<stop offset="0.477752" stop-color="#FF006B"/>
<stop offset="0.497208" stop-color="#FF0000"/>
</radialGradient>
<radialGradient id="paint1_angular_24_167" cx="0" cy="0" r="1" gradientUnits="userSpaceOnUse" gradientTransform="translate(2.47922 40.236) rotate(82) scale(25)">
<stop offset="0.25" stop-color="#FF0000"/>
<stop offset="0.269698" stop-color="#FF5C00"/>
<stop offset="0.285807" stop-color="#FFA800"/>
<stop offset="0.302629" stop-color="#FAFF00"/>
<stop offset="0.314633" stop-color="#8FFF00"/>
<stop offset="0.325811" stop-color="#24FF00"/>
<stop offset="0.34609" stop-color="#00FF57"/>
<stop offset="0.361421" stop-color="#00F0FF"/>
<stop offset="0.385731" stop-color="#0066FF"/>
<stop offset="0.408051" stop-color="#4200FF"/>
<stop offset="0.431125" stop-color="#BD00FF"/>
<stop offset="0.455289" stop-color="#FF0099"/>
<stop offset="0.477752" stop-color="#FF006B"/>
<stop offset="0.497208" stop-color="#FF0000"/>
</radialGradient>
<radialGradient id="paint2_angular_24_167" cx="0" cy="0" r="1" gradientUnits="userSpaceOnUse" gradientTransform="translate(2.47922 40.236) rotate(82) scale(25)">
<stop offset="0.25" stop-color="#FF0000"/>
<stop offset="0.269698" stop-color="#FF5C00"/>
<stop offset="0.285807" stop-color="#FFA800"/>
<stop offset="0.302629" stop-color="#FAFF00"/>
<stop offset="0.314633" stop-color="#8FFF00"/>
<stop offset="0.325811" stop-color="#24FF00"/>
<stop offset="0.34609" stop-color="#00FF57"/>
<stop offset="0.361421" stop-color="#00F0FF"/>
<stop offset="0.385731" stop-color="#0066FF"/>
<stop offset="0.408051" stop-color="#4200FF"/>
<stop offset="0.431125" stop-color="#BD00FF"/>
<stop offset="0.455289" stop-color="#FF0099"/>
<stop offset="0.477752" stop-color="#FF006B"/>
<stop offset="0.497208" stop-color="#FF0000"/>
</radialGradient>
<clipPath id="clip0_24_167">
<rect width="36" height="36" rx="15" fill="white"/>
</clipPath>
</defs>
</svg>
