<svg width="36" height="36" viewBox="0 0 36 36" fill="none" xmlns="http://www.w3.org/2000/svg">
<g clip-path="url(#clip0_24_130)">
<rect width="36" height="36" rx="15" fill="white"/>
<rect width="36" height="14" fill="#E43C3C"/>
<path d="M11.6156 9.5V4.824H13.2746L14.2476 8.177L15.2346 4.824H16.8936V9.5H15.8156V5.825L14.7026 9.5H13.7926L12.6866 5.825V9.5H11.6156ZM18.5652 9.584C18.3459 9.584 18.1452 9.542 17.9632 9.458C17.7812 9.374 17.6365 9.25733 17.5292 9.108C17.4219 8.954 17.3682 8.772 17.3682 8.562C17.3682 8.27733 17.4662 8.051 17.6622 7.883C17.8629 7.715 18.1359 7.589 18.4812 7.505C18.8265 7.421 19.2232 7.36267 19.6712 7.33C19.6712 7.08267 19.6315 6.90767 19.5522 6.805C19.4729 6.70233 19.3189 6.651 19.0902 6.651C18.9455 6.651 18.8172 6.686 18.7052 6.756C18.5979 6.82133 18.5255 6.924 18.4882 7.064L17.5922 6.742C17.7089 6.50867 17.9025 6.315 18.1732 6.161C18.4485 6.007 18.7845 5.93 19.1812 5.93C19.6759 5.93 20.0562 6.03967 20.3222 6.259C20.5882 6.47833 20.7212 6.85167 20.7212 7.379V8.142C20.7212 8.29133 20.7259 8.45233 20.7352 8.625C20.7445 8.79767 20.7585 8.961 20.7772 9.115C20.7959 9.269 20.8169 9.39733 20.8402 9.5H19.8532L19.7272 9.08C19.5965 9.262 19.4309 9.39267 19.2302 9.472C19.0342 9.54667 18.8125 9.584 18.5652 9.584ZM18.9572 8.856C19.1672 8.856 19.3422 8.8 19.4822 8.688C19.6222 8.576 19.6922 8.36133 19.6922 8.044V7.96C19.3235 7.99267 19.0272 8.044 18.8032 8.114C18.5792 8.17933 18.4672 8.303 18.4672 8.485C18.4672 8.597 18.5139 8.688 18.6072 8.758C18.7005 8.82333 18.8172 8.856 18.9572 8.856ZM21.5243 10.627V9.857H21.7343C21.893 9.857 22.012 9.85 22.0913 9.836C22.1707 9.822 22.2313 9.787 22.2733 9.731C22.32 9.67967 22.362 9.59567 22.3993 9.479L21.0693 6.028H22.2103L22.8893 8.198L23.5543 6.028H24.6953L23.3653 9.5C23.2533 9.794 23.139 10.0227 23.0223 10.186C22.9103 10.3493 22.7657 10.4637 22.5883 10.529C22.411 10.5943 22.1707 10.627 21.8673 10.627H21.5243Z" fill="white"/>
<path d="M14.3744 28.2143V26.4643C15.6064 25.5963 16.5864 24.8636 17.3144 24.2663C18.0424 23.6596 18.5651 23.1276 18.8824 22.6703C19.2091 22.213 19.3724 21.7836 19.3724 21.3823C19.3724 21.0183 19.2418 20.743 18.9804 20.5563C18.7284 20.3696 18.4298 20.2763 18.0844 20.2763C17.7951 20.2763 17.5104 20.3603 17.2304 20.5283C16.9504 20.687 16.7591 20.9856 16.6564 21.4243L14.7244 20.7243C14.9764 20.071 15.4104 19.5716 16.0264 19.2263C16.6424 18.8716 17.3611 18.6943 18.1824 18.6943C18.8171 18.6943 19.3864 18.8016 19.8904 19.0163C20.3944 19.2216 20.7911 19.5296 21.0804 19.9403C21.3698 20.3416 21.5144 20.8363 21.5144 21.4243C21.5144 22.367 21.1178 23.2443 20.3244 24.0563C19.5404 24.859 18.4624 25.6616 17.0904 26.4643H21.5564V28.2143H14.3744Z" fill="black"/>
</g>
<defs>
<clipPath id="clip0_24_130">
<rect width="36" height="36" rx="15" fill="white"/>
</clipPath>
</defs>
</svg>
