<svg width="36" height="36" viewBox="0 0 36 36" fill="none" xmlns="http://www.w3.org/2000/svg">
<rect width="36" height="36" rx="15" fill="url(#paint0_linear_24_3202)"/>
<g clip-path="url(#clip0_24_3202)">
<rect x="8.02661" y="8" width="4" height="20" rx="1" fill="#793900"/>
<rect x="8.02661" y="23" width="4" height="2" fill="#985531"/>
<rect x="8.02661" y="11" width="4" height="2" fill="#985531"/>
</g>
<rect x="12.0266" y="9" width="4" height="19" rx="1" fill="#994F1A"/>
<rect x="13.0266" y="11" width="2" height="4" rx="1" fill="#C48044"/>
<rect x="13.0266" y="20" width="2" height="4" rx="1" fill="#C48044"/>
<rect x="16.0266" y="11" width="4" height="17" rx="1" fill="#8F441B"/>
<rect x="17.0266" y="15" width="2" height="9" rx="1" fill="#B46B2B"/>
<g clip-path="url(#clip1_24_3202)">
<rect x="20.0266" y="10.4613" width="4" height="18" rx="1" transform="rotate(-13 20.0266 10.4613)" fill="#8D3600"/>
<rect x="21.9009" y="14.1339" width="2" height="9" rx="1" transform="rotate(-13 21.9009 14.1339)" fill="#B66A3A"/>
</g>
<defs>
<linearGradient id="paint0_linear_24_3202" x1="18" y1="0" x2="18" y2="36" gradientUnits="userSpaceOnUse">
<stop stop-color="#FFC797"/>
<stop offset="1" stop-color="#FFBAA5"/>
</linearGradient>
<clipPath id="clip0_24_3202">
<rect x="8.02661" y="8" width="4" height="20" rx="1" fill="white"/>
</clipPath>
<clipPath id="clip1_24_3202">
<rect x="20.0266" y="10.4613" width="4" height="18" rx="1" transform="rotate(-13 20.0266 10.4613)" fill="white"/>
</clipPath>
</defs>
</svg>
