<svg width="36" height="36" viewBox="0 0 36 36" fill="none" xmlns="http://www.w3.org/2000/svg">
<g clip-path="url(#clip0_24_3049)">
<rect width="36" height="36" rx="10" fill="white"/>
<path opacity="0.1" d="M11.307 25.7515L15.9909 27.8499C16.7306 28.1813 17.1004 28.3469 17.485 28.4124C17.8259 28.4704 18.1742 28.4704 18.5151 28.4124C18.8997 28.3469 19.2696 28.1813 20.0092 27.8499L24.6932 25.7515C25.7449 25.2803 26.2708 25.0447 26.6563 24.6738C26.9971 24.346 27.2575 23.9439 27.4174 23.4988C27.5983 22.9954 27.5983 22.4191 27.5983 21.2667V14.7333C27.5983 13.5808 27.5983 13.0046 27.4174 12.5012C27.2575 12.0561 26.9971 11.654 26.6563 11.3262C26.2708 10.9553 25.7449 10.7197 24.6932 10.2485L20.0092 8.15013C19.2696 7.81875 18.8997 7.65307 18.5151 7.58764C18.1742 7.52966 17.8259 7.52966 17.485 7.58764C17.1004 7.65307 16.7306 7.81876 15.9909 8.15013L11.307 10.2485C10.2552 10.7197 9.72934 10.9553 9.34383 11.3262C9.00306 11.654 8.74259 12.0561 8.58272 12.5012C8.40186 13.0046 8.40186 13.5809 8.40186 14.7333V21.2667C8.40186 22.4192 8.40186 22.9954 8.58272 23.4988C8.74259 23.9439 9.00306 24.346 9.34383 24.6738C9.72934 25.0447 10.2552 25.2803 11.307 25.7515Z" fill="#FFAE00" stroke="#FFAE00" stroke-width="2.30357" stroke-linecap="round" stroke-linejoin="round"/>
<path opacity="0.1" d="M10.0618 27.1936L15.6171 29.6824C16.4944 30.0754 16.9331 30.272 17.3893 30.3496C17.7936 30.4183 18.2066 30.4183 18.611 30.3496C19.0672 30.272 19.5058 30.0754 20.3831 29.6824L20.3831 29.6824L25.9385 27.1936C27.1859 26.6348 27.8096 26.3553 28.2668 25.9155C28.671 25.5266 28.9799 25.0497 29.1695 24.5219C29.384 23.9247 29.384 23.2413 29.384 21.8744V14.1256C29.384 12.7587 29.384 12.0752 29.1695 11.4781C28.9799 10.9503 28.671 10.4734 28.2668 10.0845C27.8096 9.64464 27.1859 9.36522 25.9385 8.80638L20.3831 6.31759C19.5058 5.92457 19.0672 5.72805 18.611 5.65046C18.2066 5.58169 17.7936 5.58169 17.3893 5.65046C16.9331 5.72806 16.4944 5.92457 15.6171 6.3176L10.0618 8.8064C8.81438 9.36524 8.19067 9.64466 7.73344 10.0845C7.32927 10.4734 7.02034 10.9503 6.83072 11.4781C6.61621 12.0753 6.61621 12.7587 6.61621 14.1256V21.8745C6.61621 23.2413 6.61621 23.9248 6.83072 24.5219C7.02034 25.0497 7.32927 25.5266 7.73344 25.9155C8.19067 26.3554 8.81438 26.6348 10.0618 27.1936Z" fill="#FFAE00" stroke="#FFAE00" stroke-width="2.73214" stroke-linecap="round" stroke-linejoin="round"/>
<path opacity="0.1" d="M8.81663 28.6358L15.2434 31.515C16.2583 31.9696 16.7658 32.197 17.2935 32.2867C17.7613 32.3663 18.2391 32.3663 18.7068 32.2867C19.2346 32.197 19.7421 31.9696 20.757 31.5149L27.1838 28.6357C28.6269 27.9892 29.3484 27.666 29.8773 27.1571C30.3449 26.7073 30.7023 26.1555 30.9217 25.5449C31.1698 24.8541 31.1698 24.0635 31.1698 22.4822V22.4822V13.5178C31.1698 11.9365 31.1698 11.1459 30.9217 10.4551C30.7023 9.84445 30.3449 9.29273 29.8773 8.84289C29.3484 8.33399 28.6268 8.01074 27.1838 7.36424L20.757 4.48506C19.7421 4.03038 19.2346 3.80304 18.7068 3.71328C18.2391 3.63372 17.7613 3.63372 17.2935 3.71328C16.7658 3.80305 16.2583 4.03038 15.2434 4.48506L8.81663 7.36426C7.37354 8.01077 6.652 8.33402 6.12305 8.84291C5.65547 9.29275 5.29808 9.84448 5.07872 10.4551C4.83057 11.1459 4.83057 11.9365 4.83057 13.5178V22.4822C4.83057 24.0635 4.83057 24.8541 5.07872 25.5449C5.29808 26.1555 5.65547 26.7073 6.12305 27.1571C6.652 27.666 7.37354 27.9893 8.81661 28.6358L8.81663 28.6358Z" fill="#FFAE00" stroke="#FFAE00" stroke-width="3.16071" stroke-linecap="round" stroke-linejoin="round"/>
<path opacity="0.1" d="M7.57146 30.0779L14.8697 33.3475L14.8697 33.3475C16.0222 33.8638 16.5985 34.122 17.1978 34.2239C17.729 34.3143 18.2716 34.3143 18.8027 34.2239C19.4021 34.122 19.9783 33.8638 21.1308 33.3475L21.1309 33.3475L28.4291 30.0779C30.0678 29.3437 30.8872 28.9766 31.4879 28.3987C32.0189 27.8879 32.4247 27.2614 32.6738 26.5679C32.9556 25.7835 32.9556 24.8856 32.9556 23.09V12.91C32.9556 11.1143 32.9556 10.2165 32.6738 9.43204C32.4247 8.73862 32.0188 8.11208 31.4879 7.60124C30.8872 7.02335 30.0678 6.65627 28.4291 5.9221L21.1309 2.65253C19.9783 2.1362 19.4021 1.87803 18.8027 1.77609C18.2716 1.68575 17.729 1.68575 17.1978 1.77609C16.5985 1.87804 16.0222 2.1362 14.8697 2.65253L7.57147 5.92213L7.57146 5.92213C5.93271 6.65629 5.11333 7.02338 4.51265 7.60127C3.98168 8.1121 3.57583 8.73864 3.32673 9.43206C3.04492 10.2165 3.04492 11.1144 3.04492 12.9101V23.09C3.04492 24.8857 3.04492 25.7835 3.32673 26.568C3.57583 27.2614 3.98168 27.8879 4.51265 28.3988C5.11333 28.9767 5.9327 29.3437 7.57145 30.0779L7.57146 30.0779Z" fill="#FFAE00" stroke="#FFAE00" stroke-width="3.58928" stroke-linecap="round" stroke-linejoin="round"/>
<path opacity="0.1" d="M6.3263 31.52L14.4959 35.18L14.496 35.18C15.7861 35.758 16.4312 36.047 17.102 36.1611C17.6966 36.2622 18.304 36.2622 18.8986 36.1611C19.5695 36.047 20.2146 35.758 21.5047 35.18L29.6744 31.52C31.5088 30.6982 32.426 30.2873 33.0984 29.6404C33.6928 29.0685 34.1471 28.3672 34.4259 27.591C34.7414 26.7129 34.7414 25.7078 34.7414 23.6977V12.3023C34.7414 10.2922 34.7414 9.28711 34.4259 8.409C34.1471 7.63278 33.6928 6.93143 33.0984 6.3596C32.426 5.71271 31.5088 5.30179 29.6744 4.47998L29.6743 4.47997L21.5047 0.819989C20.2146 0.242011 19.5695 -0.0469779 18.8986 -0.161089C18.304 -0.262221 17.6966 -0.26222 17.102 -0.161088C16.4311 -0.0469754 15.7861 0.242015 14.4959 0.819996L6.32631 4.48C4.49187 5.30182 3.57466 5.71273 2.90226 6.35963C2.30789 6.93146 1.85358 7.63281 1.57473 8.40903C1.25928 9.28714 1.25928 10.2922 1.25928 12.3023V23.6977C1.25928 25.7078 1.25928 26.7129 1.57473 27.591C1.85358 28.3672 2.30789 29.0686 2.90226 29.6404C3.57466 30.2873 4.49187 30.6982 6.3263 31.52Z" fill="#FFAE00" stroke="#FFAE00" stroke-width="4.01785" stroke-linecap="round" stroke-linejoin="round"/>
<path opacity="0.1" d="M5.08114 32.9622L14.1222 37.0126C15.55 37.6522 16.2638 37.972 17.0063 38.0983C17.6643 38.2102 18.3365 38.2102 18.9945 38.0983C19.737 37.972 20.4508 37.6522 21.8786 37.0126L30.9197 32.9621L30.9197 32.9621C32.9498 32.0526 33.9648 31.5979 34.7089 30.882C35.3667 30.2492 35.8695 29.473 36.1781 28.614C36.5272 27.6422 36.5272 26.53 36.5272 24.3055V11.6945C36.5272 9.47 36.5272 8.35774 36.1781 7.38596C35.8695 6.52694 35.3667 5.75078 34.7089 5.11796C33.9648 4.40206 32.9498 3.94732 30.9196 3.03783L21.8786 -1.01254C20.4508 -1.65217 19.737 -1.97199 18.9945 -2.09827C18.3365 -2.21019 17.6643 -2.21019 17.0063 -2.09827C16.2638 -1.97199 15.55 -1.65217 14.1222 -1.01254L5.08114 3.03786C3.05104 3.94735 2.03599 4.40209 1.29187 5.11799C0.634096 5.75082 0.131326 6.52698 -0.177265 7.38599C-0.526367 8.35777 -0.526367 9.47003 -0.526367 11.6946V24.3055C-0.526367 26.53 -0.526367 27.6423 -0.177266 28.614C0.131326 29.4731 0.634096 30.2492 1.29187 30.882C2.03599 31.5979 3.05104 32.0527 5.08114 32.9622Z" fill="#FFAE00" stroke="#FFAE00" stroke-width="4.44642" stroke-linecap="round" stroke-linejoin="round"/>
<path d="M12.5521 24.3094L16.3646 26.0174C16.9667 26.2871 17.2677 26.422 17.5808 26.4752C17.8583 26.5224 18.1417 26.5224 18.4192 26.4752C18.7323 26.4219 19.0333 26.2871 19.6354 26.0174L23.4479 24.3094C24.304 23.9258 24.732 23.7341 25.0458 23.4322C25.3231 23.1653 25.5352 22.838 25.6653 22.4758C25.8125 22.066 25.8125 21.597 25.8125 20.6589V15.3411C25.8125 14.403 25.8125 13.934 25.6653 13.5242C25.5352 13.162 25.3231 12.8347 25.0458 12.5678C24.732 12.2659 24.304 12.0742 23.4479 11.6907L19.6354 9.98266C19.0333 9.71294 18.7323 9.57808 18.4192 9.52483C18.1417 9.47763 17.8583 9.47763 17.5808 9.52483C17.2677 9.57808 16.9667 9.71294 16.3646 9.98267L12.5521 11.6907L12.5521 11.6907C11.696 12.0742 11.268 12.2659 10.9542 12.5678C10.6769 12.8347 10.4648 13.162 10.3347 13.5242C10.1875 13.934 10.1875 14.403 10.1875 15.3411V20.6589C10.1875 21.597 10.1875 22.066 10.3347 22.4758C10.4648 22.838 10.6769 23.1653 10.9542 23.4322C11.268 23.7341 11.696 23.9258 12.5521 24.3094L12.5521 24.3094Z" fill="#FFAE00" stroke="#FFAE00" stroke-width="1.875" stroke-linecap="round" stroke-linejoin="round"/>
<rect x="17.0625" y="13" width="1.875" height="5.625" rx="0.9375" fill="black"/>
<rect x="17.0625" y="21.125" width="1.875" height="1.875" rx="0.9375" fill="black"/>
</g>
<defs>
<clipPath id="clip0_24_3049">
<rect width="36" height="36" rx="10" fill="white"/>
</clipPath>
</defs>
</svg>
