<svg width="36" height="36" viewBox="0 0 36 36" fill="none" xmlns="http://www.w3.org/2000/svg">
<rect width="36" height="36" rx="15" fill="black"/>
<mask id="mask0_24_79" style="mask-type:alpha" maskUnits="userSpaceOnUse" x="8" y="7" width="20" height="22">
<path d="M25.6838 12.0817L25.6838 12.0817L25.6941 12.0874L25.6941 12.0875C26.3659 12.4608 26.5936 12.595 26.7555 12.7707L27.1528 12.4046L26.7555 12.7707C26.9118 12.9404 27.0302 13.1415 27.1026 13.3606C27.1779 13.5886 27.1844 13.8543 27.1844 14.632V21.368C27.1844 22.1457 27.1779 22.4114 27.1026 22.6394C27.0302 22.8585 26.9118 23.0596 26.7555 23.2293C26.5927 23.4059 26.3636 23.5406 25.6838 23.9183L19.4469 27.3832L19.4468 27.3832L19.4169 27.3999L19.4169 27.3999C18.7735 27.7573 18.5508 27.8743 18.3266 27.9204C18.1112 27.9647 17.889 27.9647 17.6736 27.9204C17.4494 27.8743 17.2268 27.7573 16.5833 27.3999L10.3164 23.9183C9.63667 23.5406 9.40753 23.4059 9.24479 23.2293C9.08843 23.0596 8.97009 22.8585 8.89771 22.6394L8.38726 22.8081L8.89771 22.6394C8.82237 22.4114 8.81588 22.1457 8.81588 21.368V14.632C8.81588 13.8543 8.82237 13.5886 8.89771 13.3606C8.97009 13.1415 9.08843 12.9404 9.24479 12.7707C9.40753 12.5941 9.63667 12.4594 10.3164 12.0817L16.5833 8.60013C17.2268 8.24265 17.4494 8.12568 17.6736 8.07957C17.889 8.03527 18.1112 8.03527 18.3266 8.07957C18.5508 8.12568 18.7735 8.24265 19.4169 8.60013L25.6838 12.0817Z" fill="#D9D9D9" stroke="white" stroke-width="1.0805"/>
</mask>
<g mask="url(#mask0_24_79)">
<path d="M27 13L19.5541 8.86337C18.9868 8.54825 18.7032 8.39069 18.4029 8.32892C18.1371 8.27425 17.8629 8.27425 17.5971 8.32892C17.2968 8.39069 17.0132 8.54825 16.4459 8.86337L9 13M27 13C27 13 21.5147 16.0474 18 18M27 13L26.9999 21.117C26.9999 21.8023 26.9999 22.145 26.8989 22.4506C26.8096 22.7209 26.6636 22.9691 26.4706 23.1785C26.2525 23.4151 25.953 23.5815 25.3539 23.9144L18.0003 27.9999M9 13C9 13 14.4853 16.0474 18 18M9 13L9.00026 21.117C9.00026 21.8023 9.00026 22.145 9.10123 22.4506C9.19056 22.7209 9.33658 22.9691 9.52953 23.1785C9.74763 23.4151 10.0472 23.5815 10.6462 23.9143L18.0003 27.9999M18 18C18.0001 21.9052 18.0003 27.9999 18.0003 27.9999" stroke="#93FF6C" stroke-width="2"/>
</g>
</svg>
