<svg width="36" height="36" viewBox="0 0 36 36" fill="none" xmlns="http://www.w3.org/2000/svg">
<rect width="36" height="36" rx="15" fill="#222222"/>
<g clip-path="url(#clip0_24_3094)">
<rect x="14" y="14" width="8" height="8" rx="4" fill="#C91414"/>
<path d="M9.5 21.5V21.7C9.5 23.3802 9.5 24.2202 9.82698 24.862C10.1146 25.4265 10.5735 25.8854 11.138 26.173C11.7798 26.5 12.6198 26.5 14.3 26.5H14.5" stroke="white" stroke-width="3" stroke-linecap="round"/>
<path d="M14.5 9.5L14.3 9.5C12.6198 9.5 11.7798 9.5 11.138 9.82698C10.5735 10.1146 10.1146 10.5735 9.82698 11.138C9.5 11.7798 9.5 12.6198 9.5 14.3L9.5 14.5" stroke="white" stroke-width="3" stroke-linecap="round"/>
<path d="M26.5 14.5L26.5 14.3C26.5 12.6198 26.5 11.7798 26.173 11.138C25.8854 10.5735 25.4265 10.1146 24.862 9.82698C24.2202 9.5 23.3802 9.5 21.7 9.5L21.5 9.5" stroke="white" stroke-width="3" stroke-linecap="round"/>
<path d="M21.5 26.5L21.7 26.5C23.3802 26.5 24.2202 26.5 24.862 26.173C25.4265 25.8854 25.8854 25.4265 26.173 24.862C26.5 24.2202 26.5 23.3802 26.5 21.7L26.5 21.5" stroke="white" stroke-width="3" stroke-linecap="round"/>
</g>
<defs>
<clipPath id="clip0_24_3094">
<rect width="20" height="20" fill="white" transform="translate(8 8)"/>
</clipPath>
</defs>
</svg>
