<svg width="36" height="36" viewBox="0 0 36 36" fill="none" xmlns="http://www.w3.org/2000/svg">
<g clip-path="url(#clip0_24_333)">
<rect width="36" height="36" rx="10" fill="url(#paint0_radial_24_333)"/>
<path opacity="0.5" d="M-11.7239 -2.84596L-46.5879 68.9844H-11.7239L23.1402 -2.84596H-11.7239Z" fill="url(#paint1_linear_24_333)"/>
<path opacity="0.5" d="M26.3086 -33.0156L-8.55542 38.8147H26.3086L61.1726 -33.0156H26.3086Z" fill="url(#paint2_linear_24_333)"/>
<path opacity="0.5" d="M47.5481 51.9376L82.4121 -19.8927H47.5481L12.684 51.9376H47.5481Z" fill="url(#paint3_linear_24_333)"/>
<g clip-path="url(#clip1_24_333)">
<rect x="8" y="8" width="20" height="20" rx="4.5" fill="white"/>
<path d="M15 9V27M9 15H27" stroke="#036A00" stroke-width="2" stroke-linecap="square" stroke-linejoin="round"/>
</g>
</g>
<defs>
<radialGradient id="paint0_radial_24_333" cx="0" cy="0" r="1" gradientUnits="userSpaceOnUse" gradientTransform="translate(17.9096 -0.0158197) rotate(90) scale(36)">
<stop stop-color="#71F165"/>
<stop offset="1" stop-color="#189416"/>
</radialGradient>
<linearGradient id="paint1_linear_24_333" x1="-11.7239" y1="-2.84596" x2="-11.7239" y2="68.9844" gradientUnits="userSpaceOnUse">
<stop stop-color="white" stop-opacity="0.4"/>
<stop offset="1" stop-color="white" stop-opacity="0"/>
</linearGradient>
<linearGradient id="paint2_linear_24_333" x1="26.3086" y1="-33.0156" x2="26.3086" y2="38.8147" gradientUnits="userSpaceOnUse">
<stop stop-color="white" stop-opacity="0.4"/>
<stop offset="1" stop-color="white" stop-opacity="0"/>
</linearGradient>
<linearGradient id="paint3_linear_24_333" x1="47.5481" y1="51.9376" x2="47.5481" y2="-19.8927" gradientUnits="userSpaceOnUse">
<stop stop-color="white" stop-opacity="0.4"/>
<stop offset="1" stop-color="white" stop-opacity="0"/>
</linearGradient>
<clipPath id="clip0_24_333">
<rect width="36" height="36" rx="10" fill="white"/>
</clipPath>
<clipPath id="clip1_24_333">
<rect x="8" y="8" width="20" height="20" rx="4.5" fill="white"/>
</clipPath>
</defs>
</svg>
