<svg width="36" height="36" viewBox="0 0 36 36" fill="none" xmlns="http://www.w3.org/2000/svg">
<rect width="36" height="36" rx="15" fill="#724B32"/>
<g clip-path="url(#clip0_24_3175)">
<rect x="8.5" y="8.5" width="19" height="11" rx="1.5" fill="#1CB8E8"/>
<rect x="8.5" y="8.5" width="19" height="11" rx="1.5" stroke="white"/>
<rect x="8" y="13" width="20" height="12" rx="1" fill="#FFAE01"/>
<rect x="8" y="13" width="5" height="10" fill="#F16C5F"/>
<rect x="13" y="13" width="1" height="10" fill="#52BD3F"/>
<rect x="14" y="13" width="4" height="10" fill="#3E98C8"/>
<rect x="20" y="13" width="6" height="10" fill="#A744E4"/>
<g clip-path="url(#clip1_24_3175)">
<rect x="8" y="18" width="20" height="10" rx="1" fill="white"/>
<rect x="8" y="18" width="4" height="10" fill="#EBEBEB"/>
<circle cx="8" cy="23" r="1" fill="#F16C5F"/>
<path opacity="0.5" d="M12.1201 18V28" stroke="black" stroke-width="0.25" stroke-dasharray="1 1"/>
<rect x="9" y="25" width="2" height="2" fill="#D9D9D9"/>
<circle cx="10" cy="20" r="1" fill="#2E3192"/>
</g>
</g>
<path d="M36 36V0H31L6 36H36Z" fill="#593A26"/>
<defs>
<clipPath id="clip0_24_3175">
<rect width="20" height="20" fill="white" transform="translate(8 8)"/>
</clipPath>
<clipPath id="clip1_24_3175">
<rect x="8" y="18" width="20" height="10" rx="1" fill="white"/>
</clipPath>
</defs>
</svg>
