<svg width="36" height="36" viewBox="0 0 36 36" fill="none" xmlns="http://www.w3.org/2000/svg">
<rect width="36" height="36" rx="10" fill="#FFE142"/>
<rect width="36" height="36" rx="10" fill="white" fill-opacity="0.8"/>
<g clip-path="url(#clip0_24_503)">
<mask id="mask0_24_503" style="mask-type:alpha" maskUnits="userSpaceOnUse" x="8" y="8" width="21" height="20">
<path d="M21.6002 8.00005L14.4002 8.00005C12.16 8.00005 11.0399 8.00005 10.1843 8.43602C9.43163 8.81951 8.81971 9.43144 8.43622 10.1841C8.00024 11.0397 8.00024 12.1598 8.00024 14.4V21.6C8.00024 23.8402 8.00024 24.9604 8.43622 25.816C8.81971 26.5687 9.43164 27.1806 10.1843 27.5641C11.0399 28 12.16 28 14.4003 28L19.3491 28H19.3492C20.3275 28 20.8166 28 21.277 27.8895C21.6851 27.7915 22.0753 27.6299 22.4331 27.4106C22.8368 27.1632 23.1827 26.8174 23.8745 26.1256L26.1256 23.8745C26.8175 23.1827 27.1634 22.8368 27.4108 22.4331C27.6301 22.0752 27.7917 21.6851 27.8897 21.2769C28.0002 20.8165 28.0002 20.3273 28.0002 19.349V14.4C28.0002 12.1598 28.0002 11.0397 27.5643 10.1841C27.1808 9.43144 26.5689 8.81951 25.8162 8.43602C24.9606 8.00005 23.8405 8.00005 21.6002 8.00005Z" fill="#F5E33E"/>
<path d="M21.6002 8.00005L14.4002 8.00005C12.16 8.00005 11.0399 8.00005 10.1843 8.43602C9.43163 8.81951 8.81971 9.43144 8.43622 10.1841C8.00024 11.0397 8.00024 12.1598 8.00024 14.4V21.6C8.00024 23.8402 8.00024 24.9604 8.43622 25.816C8.81971 26.5687 9.43164 27.1806 10.1843 27.5641C11.0399 28 12.16 28 14.4003 28L19.3491 28H19.3492C20.3275 28 20.8166 28 21.277 27.8895C21.6851 27.7915 22.0753 27.6299 22.4331 27.4106C22.8368 27.1632 23.1827 26.8174 23.8745 26.1256L26.1256 23.8745C26.8175 23.1827 27.1634 22.8368 27.4108 22.4331C27.6301 22.0752 27.7917 21.6851 27.8897 21.2769C28.0002 20.8165 28.0002 20.3273 28.0002 19.349V14.4C28.0002 12.1598 28.0002 11.0397 27.5643 10.1841C27.1808 9.43144 26.5689 8.81951 25.8162 8.43602C24.9606 8.00005 23.8405 8.00005 21.6002 8.00005Z" fill="#888888" fill-opacity="0.3"/>
</mask>
<g mask="url(#mask0_24_503)">
<path d="M28.0002 8.00005L8.00024 8.00005L8.00024 28L28 28L28.0002 8.00005Z" fill="#F5E33E"/>
<path d="M24.8 20H28V24C28 25.4001 28 26.1002 27.7275 26.635C27.4878 27.1054 27.1054 27.4878 26.635 27.7275C26.1002 28 25.4001 28 24 28H20V24.8C20 23.1198 20 22.2798 20.327 21.638C20.6146 21.0735 21.0735 20.6146 21.638 20.327C22.2798 20 23.1198 20 24.8 20Z" fill="#F5E33E"/>
<path d="M24.8 20H28V24C28 25.4001 28 26.1002 27.7275 26.635C27.4878 27.1054 27.1054 27.4878 26.635 27.7275C26.1002 28 25.4001 28 24 28H20V24.8C20 23.1198 20 22.2798 20.327 21.638C20.6146 21.0735 21.0735 20.6146 21.638 20.327C22.2798 20 23.1198 20 24.8 20Z" fill="black" fill-opacity="0.23"/>
</g>
</g>
<defs>
<clipPath id="clip0_24_503">
<rect width="20" height="20" fill="white" transform="translate(8 8)"/>
</clipPath>
</defs>
</svg>
