<svg width="36" height="36" viewBox="0 0 36 36" fill="none" xmlns="http://www.w3.org/2000/svg">
<g clip-path="url(#clip0_63_3744)">
<rect width="36" height="36" rx="10" fill="url(#paint0_radial_63_3744)"/>
<path opacity="0.5" d="M-11.7239 -2.84572L-46.5879 68.9846H-11.7239L23.1402 -2.84572H-11.7239Z" fill="url(#paint1_linear_63_3744)"/>
<path opacity="0.5" d="M26.3086 -33.0154L-8.55542 38.815H26.3086L61.1726 -33.0154H26.3086Z" fill="url(#paint2_linear_63_3744)"/>
<path opacity="0.5" d="M47.5481 51.9379L82.4121 -19.8925H47.5481L12.684 51.9379H47.5481Z" fill="url(#paint3_linear_63_3744)"/>
<path d="M24.5 24.5812C24.5 26.4693 21.5899 28 18 28C14.4101 28 11.5 26.4693 11.5 24.5812V19.7949C11.5 20.7266 12.2087 21.5714 13.3581 22.188C14.5378 22.821 16.1817 23.2137 18 23.2137C19.8183 23.2137 21.4622 22.821 22.6419 22.188C23.7913 21.5714 24.5 20.7266 24.5 19.7949V24.5812Z" fill="#612E00"/>
<path d="M24.5 20.4786C24.5 22.3668 21.5899 23.8974 18 23.8974C14.4101 23.8974 11.5 22.3668 11.5 20.4786V15.6923C11.5 16.6241 12.2087 17.4688 13.3581 18.0855C14.5378 18.7184 16.1817 19.1111 18 19.1111C19.8183 19.1111 21.4622 18.7184 22.6419 18.0855C23.7913 17.4688 24.5 16.6241 24.5 15.6923V20.4786Z" fill="#F2C28C"/>
<path d="M18 19.7949C21.5899 19.7949 24.5 18.2642 24.5 16.3761V11.5897C24.5 12.5215 23.7913 13.3662 22.6419 13.9829C21.4622 14.6158 19.8183 15.0085 18 15.0085C16.1817 15.0085 14.5378 14.6158 13.3581 13.9829C12.2087 13.3662 11.5 12.5215 11.5 11.5897V16.3761C11.5 18.2642 14.4101 19.7949 18 19.7949Z" fill="#FFE2C1"/>
<ellipse cx="18" cy="11.5897" rx="6.5" ry="3.58974" fill="white"/>
</g>
<defs>
<radialGradient id="paint0_radial_63_3744" cx="0" cy="0" r="1" gradientUnits="userSpaceOnUse" gradientTransform="translate(17.9096 -0.0158197) rotate(90) scale(36)">
<stop stop-color="#F1B065"/>
<stop offset="1" stop-color="#AF5607"/>
</radialGradient>
<linearGradient id="paint1_linear_63_3744" x1="-11.7239" y1="-2.84572" x2="-11.7239" y2="68.9846" gradientUnits="userSpaceOnUse">
<stop stop-color="white" stop-opacity="0.4"/>
<stop offset="1" stop-color="white" stop-opacity="0"/>
</linearGradient>
<linearGradient id="paint2_linear_63_3744" x1="26.3086" y1="-33.0154" x2="26.3086" y2="38.815" gradientUnits="userSpaceOnUse">
<stop stop-color="white" stop-opacity="0.4"/>
<stop offset="1" stop-color="white" stop-opacity="0"/>
</linearGradient>
<linearGradient id="paint3_linear_63_3744" x1="47.5481" y1="51.9379" x2="47.5481" y2="-19.8925" gradientUnits="userSpaceOnUse">
<stop stop-color="white" stop-opacity="0.4"/>
<stop offset="1" stop-color="white" stop-opacity="0"/>
</linearGradient>
<clipPath id="clip0_63_3744">
<rect width="36" height="36" rx="10" fill="white"/>
</clipPath>
</defs>
</svg>
