<svg width="36" height="36" viewBox="0 0 36 36" fill="none" xmlns="http://www.w3.org/2000/svg">
<rect width="36" height="36" rx="10" fill="white"/>
<g clip-path="url(#clip0_24_3166)">
<path d="M10.0079 20.0108L15.1611 25.1622C16.7452 26.7458 17.5372 27.5376 18.4505 27.8342C19.2538 28.0951 20.1191 28.095 20.9224 27.834C21.8356 27.5372 22.6275 26.7453 24.2113 25.1615L25.1606 24.2121C26.7449 22.6279 27.537 21.8358 27.8337 20.9224C28.0947 20.119 28.0947 19.2535 27.8336 18.4501C27.5367 17.5368 26.7446 16.7447 25.1602 15.1607L19.9721 9.97364C19.2929 9.2946 18.9533 8.95508 18.5575 8.71042C18.2066 8.49348 17.8243 8.33214 17.424 8.23212C16.9726 8.11931 16.4925 8.11292 15.5321 8.10015L14.6183 8.088C12.3524 8.05787 11.2194 8.04281 10.3525 8.47425C9.59 8.85369 8.96853 9.46659 8.57855 10.2237C8.13513 11.0846 8.13447 12.2177 8.13316 14.4837L8.13259 15.4808C8.13202 16.4602 8.13174 16.9499 8.2422 17.4107C8.34014 17.8193 8.50183 18.2099 8.72134 18.5681C8.96892 18.9722 9.31524 19.3184 10.0079 20.0108Z" fill="#FFD600"/>
<circle cx="12.5" cy="12.5" r="1.5" fill="black"/>
</g>
<defs>
<clipPath id="clip0_24_3166">
<rect width="20" height="20" fill="white" transform="translate(8 8)"/>
</clipPath>
</defs>
</svg>
