<svg width="36" height="36" viewBox="0 0 36 36" fill="none" xmlns="http://www.w3.org/2000/svg">
<rect width="36" height="36" rx="10" fill="#40B3E0"/>
<path d="M28 9.97235L24.8368 25.9206C24.8368 25.9206 24.3945 27.0267 23.1779 26.4958L15.8783 20.8994L13.224 19.6166L8.75585 18.1123C8.75585 18.1123 8.07014 17.8691 8.00372 17.3382C7.93745 16.8073 8.77798 16.5198 8.77798 16.5198L26.54 9.55201C26.54 9.55201 28 8.91058 28 9.97235Z" fill="white"/>
<path d="M15.3174 25.7416C15.3174 25.7416 15.1043 25.7216 14.8388 24.881C14.5734 24.0404 13.2241 19.6165 13.2241 19.6165L23.9521 12.8037C23.9521 12.8037 24.5715 12.4276 24.5494 12.8037C24.5494 12.8037 24.66 12.87 24.3282 13.1796C23.9964 13.4894 15.9005 20.7667 15.9005 20.7667" fill="#D2E5F1"/>
<path d="M18.6771 23.0452L15.7898 25.6776C15.7898 25.6776 15.5641 25.8489 15.3171 25.7415L15.87 20.8518" fill="#B5CFE4"/>
</svg>
