<svg width="36" height="36" viewBox="0 0 36 36" fill="none" xmlns="http://www.w3.org/2000/svg">
<rect width="36" height="36" rx="15" fill="#420C5D"/>
<path d="M18 28C23.5228 28 28 23.5228 28 18C28 12.4772 23.5228 8 18 8C12.4772 8 8 12.4772 8 18C8 23.5228 12.4772 28 18 28Z" fill="#843DA9"/>
<path fill-rule="evenodd" clip-rule="evenodd" d="M18.0215 25.2523V26.5138C22.7141 26.5023 26.5142 22.6953 26.5142 17.9997C26.5142 13.3045 22.7141 9.49774 18.0215 9.48591V10.7474C22.0175 10.759 25.253 14.0011 25.253 17.9997C25.253 21.9986 22.0175 25.2408 18.0215 25.2523ZM22.0997 17.9997C22.0997 20.2568 20.2754 22.0866 18.0215 22.0984V23.3596C20.9723 23.3481 23.3612 20.9534 23.3612 17.9997C23.3612 15.0463 20.9723 12.6517 18.0215 12.6401V13.9013C20.2754 13.9132 22.0997 15.743 22.0997 17.9997ZM20.2076 17.9997C20.2076 16.7878 19.2305 15.805 18.0215 15.7934V20.2063C19.2305 20.1947 20.2076 19.2119 20.2076 17.9997Z" fill="#F2E4FF"/>
</svg>
