<svg width="36" height="36" viewBox="0 0 36 36" fill="none" xmlns="http://www.w3.org/2000/svg">
<g clip-path="url(#clip0_24_554)">
<rect width="36" height="36" rx="10" fill="#0080A9"/>
<path d="M36 0L0 36H36V0Z" fill="white"/>
<g clip-path="url(#clip1_24_554)">
<path d="M15.0001 16.5V14.28M15.0001 12.8V14.28M15.0001 12.8C15.0001 10.868 14.3263 8.96477 11.9317 8.85588C10.9946 8.81327 9.7921 9.28788 9.15173 10.3454M15.0001 12.8C13.5722 11.8817 11.8949 11.8973 10.227 12.6766C8.86328 13.3139 8.86328 14.5883 8.86328 15.02C8.86328 15.9641 10.0808 16.5 10.9089 16.5C12.7223 16.5 15.0001 15.2814 15.0001 14.28" stroke="white" stroke-width="1.5" stroke-linecap="round"/>
<path d="M22.7962 27.235C22.2941 25.1762 21.4405 20.647 22.043 19M19.0304 20.3725C21.0388 20.6012 25.3569 20.2352 26.562 19.6862M25.8088 21.745C25.7261 21.9108 25.6353 22.0857 25.5372 22.2674M25.5372 22.2674C23.5061 25.6012 19.8174 28.063 19.0303 26.0954C18.0041 23.53 23.7593 21.4173 25.5372 22.2674ZM25.5372 22.2674C26.562 22.7574 28.832 24.4941 24.7203 26.9517" stroke="#0080A9" stroke-width="1.5" stroke-linecap="round"/>
</g>
</g>
<defs>
<clipPath id="clip0_24_554">
<rect width="36" height="36" rx="10" fill="white"/>
</clipPath>
<clipPath id="clip1_24_554">
<rect width="20" height="20" fill="white" transform="translate(8 8)"/>
</clipPath>
</defs>
</svg>
