<svg width="36" height="36" viewBox="0 0 36 36" fill="none" xmlns="http://www.w3.org/2000/svg">
<g clip-path="url(#clip0_24_554)">
<rect width="36" height="36" rx="15" fill="#0080A9"/>
<path d="M36 0L0 36H36V0Z" fill="white"/>
<path d="M14.3332 16.2991V14.0791M14.3332 12.5991V14.0791M14.3332 12.5991C14.3332 10.6671 13.7035 8.76387 11.4657 8.65499C10.5899 8.61238 9.46616 9.08698 8.86771 10.1445M14.3332 12.5991C12.9987 11.6808 11.4313 11.6964 9.8726 12.4757C8.59814 13.113 8.59814 14.3874 8.59814 14.8191C8.59814 15.7632 9.73592 16.2991 10.5098 16.2991C12.2045 16.2991 14.3332 15.0805 14.3332 14.0791" stroke="white" stroke-width="1.5" stroke-linecap="round"/>
<path d="M23.2751 28.6523C22.8058 26.5936 22.0081 22.0644 22.5712 20.4174M19.7558 21.7899C21.6327 22.0186 25.6682 21.6526 26.7943 21.1036M26.0905 23.1624C26.0132 23.3282 25.9283 23.5031 25.8367 23.6848M25.8367 23.6848C23.9386 27.0186 20.4913 29.4804 19.7558 27.5128C18.7967 24.9473 24.1751 22.8347 25.8367 23.6848ZM25.8367 23.6848C26.7943 24.1748 28.9157 25.9115 25.0732 28.3691" stroke="#0080A9" stroke-width="1.5" stroke-linecap="round"/>
</g>
<defs>
<clipPath id="clip0_24_554">
<rect width="36" height="36" rx="15" fill="white"/>
</clipPath>
</defs>
</svg>
