<svg width="36" height="36" viewBox="0 0 36 36" fill="none" xmlns="http://www.w3.org/2000/svg">
<g clip-path="url(#clip0_24_120)">
<rect width="36" height="36" rx="10" fill="#5B7FFF"/>
<g filter="url(#filter0_d_24_120)">
<rect x="8" y="8" width="8" height="8" rx="4" fill="white"/>
</g>
<path fill-rule="evenodd" clip-rule="evenodd" d="M11.2465 21.7653C10.4354 20.9955 9.86438 20.5568 9.23595 20.3526C8.43258 20.0916 7.56719 20.0916 6.76382 20.3526C5.8505 20.6494 5.05847 21.4414 3.4744 23.0255L-21.4746 47.9745C-23.0587 49.5586 -23.8507 50.3506 -24.1475 51.2639C-24.4085 52.0673 -24.4085 52.9327 -24.1475 53.7361C-23.8507 54.6494 -23.0587 55.4414 -21.4746 57.0255L3.4744 81.9745C5.05847 83.5586 5.8505 84.3506 6.76382 84.6474C7.56719 84.9084 8.43258 84.9084 9.23595 84.6474C10.1493 84.3506 10.9413 83.5586 12.5254 81.9745L20.2518 74.2481C22.2779 76.2531 23.481 77.3174 24.8368 77.7579C26.2427 78.2147 27.7572 78.2147 29.1631 77.7579C30.7614 77.2386 32.1474 75.8525 34.9195 73.0804L34.9196 73.0804L53.0804 54.9196L53.0804 54.9196C55.8525 52.1475 57.2385 50.7614 57.7579 49.1631C58.2147 47.7572 58.2147 46.2428 57.7579 44.8369C57.2385 43.2386 55.8525 41.8525 53.0804 39.0805L53.0804 39.0804L34.9196 20.9196C32.1474 18.1475 30.7614 16.7614 29.1631 16.2421C27.7572 15.7853 26.2428 15.7853 24.8368 16.2421C23.2385 16.7614 21.8525 18.1475 19.0804 20.9196L18 22L17.9254 21.9993C16.0332 23.6991 13.1153 23.6348 11.2954 21.8149C11.2789 21.7985 11.2626 21.7819 11.2465 21.7653Z" fill="#BFCCFE"/>
<path d="M22.7245 17.2755C24.3086 15.6914 25.1006 14.8994 26.0139 14.6026C26.8173 14.3416 27.6827 14.3416 28.4861 14.6026C29.3994 14.8994 30.1914 15.6914 31.7755 17.2755L61.4745 46.9745C63.0586 48.5586 63.8506 49.3506 64.1474 50.2639C64.4084 51.0673 64.4084 51.9327 64.1474 52.7361C63.8506 53.6494 63.0586 54.4414 61.4745 56.0255L31.7755 85.7245C30.1914 87.3086 29.3994 88.1006 28.4861 88.3974C27.6827 88.6584 26.8173 88.6584 26.0139 88.3974C25.1006 88.1006 24.3086 87.3086 22.7245 85.7245L-6.97452 56.0255C-8.55859 54.4414 -9.35062 53.6494 -9.64737 52.7361C-9.90841 51.9327 -9.90841 51.0673 -9.64737 50.2639C-9.35062 49.3506 -8.55859 48.5586 -6.97452 46.9745L22.7245 17.2755Z" fill="url(#paint0_linear_24_120)"/>
</g>
<defs>
<filter id="filter0_d_24_120" x="-12" y="-12" width="48" height="48" filterUnits="userSpaceOnUse" color-interpolation-filters="sRGB">
<feFlood flood-opacity="0" result="BackgroundImageFix"/>
<feColorMatrix in="SourceAlpha" type="matrix" values="0 0 0 0 0 0 0 0 0 0 0 0 0 0 0 0 0 0 127 0" result="hardAlpha"/>
<feOffset/>
<feGaussianBlur stdDeviation="10"/>
<feComposite in2="hardAlpha" operator="out"/>
<feColorMatrix type="matrix" values="0 0 0 0 1 0 0 0 0 0.84 0 0 0 0 0 0 0 0 0.25 0"/>
<feBlend mode="normal" in2="BackgroundImageFix" result="effect1_dropShadow_24_120"/>
<feBlend mode="normal" in="SourceGraphic" in2="effect1_dropShadow_24_120" result="shape"/>
</filter>
<linearGradient id="paint0_linear_24_120" x1="27.5" y1="13" x2="27.5" y2="32.5" gradientUnits="userSpaceOnUse">
<stop stop-color="white"/>
<stop offset="1" stop-color="#BFCCFE"/>
</linearGradient>
<clipPath id="clip0_24_120">
<rect width="36" height="36" rx="10" fill="white"/>
</clipPath>
</defs>
</svg>
