<svg width="36" height="36" viewBox="0 0 36 36" fill="none" xmlns="http://www.w3.org/2000/svg">
<rect width="36" height="36" rx="10" fill="#019833"/>
<path d="M19.1 9.00369C18.5376 8.44129 17.6258 8.44129 17.0634 9.00369L9.06772 16.9999C8.50541 17.5623 8.50541 18.474 9.06772 19.0363L17.0272 26.9963C17.5895 27.5587 18.5013 27.5587 19.0637 26.9963L27.0594 19.0001C27.6217 18.4377 27.6217 17.526 27.0594 16.9637L19.1 9.00369Z" stroke="white" stroke-width="1.88"/>
<mask id="path-3-outside-1_24_194" maskUnits="userSpaceOnUse" x="8.29517" y="7.85846" width="21" height="20" fill="black">
<rect fill="white" x="8.29517" y="7.85846" width="21" height="20"/>
<path d="M18.6844 19.2373C18.5697 19.2373 18.4587 19.2784 18.3717 19.3531L18.3373 19.3827C18.2715 19.4392 18.2216 19.5119 18.1924 19.5935L18.0264 20.0583C17.9902 20.1596 18.0157 20.2726 18.0917 20.3487C18.144 20.401 18.215 20.4304 18.289 20.4304H18.8146C18.9373 20.4304 19.0549 20.3814 19.1413 20.2944C19.1954 20.2399 19.2349 20.1729 19.2563 20.0993L19.4136 19.5596C19.4393 19.4714 19.4149 19.3762 19.3499 19.3112C19.3026 19.2639 19.2384 19.2373 19.1714 19.2373H18.6844ZM17.1402 21.3664C17.0463 21.3664 16.9644 21.4302 16.9414 21.5212C16.9089 21.6504 17.0067 21.7758 17.1402 21.7758H17.1525C17.3002 21.7758 17.4038 21.9214 17.355 22.0607L16.4436 24.6639C16.3299 24.9885 16.5712 25.3281 16.9155 25.3281H17.8424C17.9241 25.3281 17.9964 25.2749 18.0206 25.1969L18.0247 25.1839C18.0599 25.0704 17.975 24.9552 17.8559 24.9552C17.7347 24.9552 17.6495 24.8361 17.6888 24.7216L18.6129 22.0276C18.7241 21.7035 18.4829 21.3664 18.1399 21.3664H17.1402ZM22.8348 21.3791C22.6913 21.3791 22.5548 21.4407 22.4598 21.5481L22.3729 21.6465C22.278 21.7539 22.1415 21.8154 21.998 21.8154H21.795C21.6593 21.8154 21.5295 21.7603 21.4353 21.6628L21.3209 21.5444C21.2266 21.4469 21.0968 21.3918 20.9611 21.3918H19.9142C19.8315 21.3918 19.7581 21.4446 19.7319 21.5229L19.7203 21.5576C19.6843 21.6649 19.7643 21.7758 19.8775 21.7758C19.9911 21.7758 20.0711 21.8872 20.0346 21.9946L19.1398 24.6303C19.0299 24.9541 19.271 25.29 19.6134 25.29H20.284C20.3558 25.29 20.4195 25.2444 20.4427 25.1766L20.4618 25.1205C20.4895 25.0394 20.4291 24.9552 20.3434 24.9552C20.2587 24.9552 20.1985 24.873 20.2241 24.7924L20.8438 22.8428C20.9097 22.6354 21.1025 22.4945 21.3203 22.4945H21.7503C22.0874 22.4945 22.328 22.821 22.2276 23.1424L21.7596 24.642C21.6592 24.9635 21.8997 25.29 22.2369 25.29H22.8904C22.9525 25.29 23.0086 25.2526 23.0326 25.1953L23.0519 25.149C23.085 25.0697 23.0267 24.9822 22.9406 24.9822C22.859 24.9822 22.8009 24.9029 22.8256 24.8253L23.4598 22.83C23.5257 22.6227 23.7185 22.4818 23.9364 22.4818H24.2993C24.637 22.4818 24.8776 22.8093 24.7762 23.1311L24.3003 24.6407C24.1989 24.9624 24.4395 25.29 24.7772 25.29H25.5573C25.6267 25.29 25.689 25.2472 25.7138 25.1825L25.7272 25.1475C25.7628 25.0548 25.6943 24.9552 25.5948 24.9552C25.4994 24.9552 25.4313 24.863 25.4593 24.772L26.3055 22.0254C26.3514 21.8765 26.3235 21.7146 26.2305 21.5894C26.138 21.4651 25.992 21.3918 25.8369 21.3918H25.1766C25.0358 21.3918 24.9015 21.4511 24.8067 21.5552L24.7314 21.6378C24.6367 21.7418 24.5024 21.8011 24.3616 21.8011H24.1243C23.9838 21.8011 23.8497 21.7421 23.755 21.6383L23.6669 21.5419C23.5721 21.4382 23.4381 21.3791 23.2975 21.3791H22.8348Z"/>
<path d="M21.0101 9.85846C20.9115 9.85846 20.817 9.89759 20.7474 9.96724C20.6778 10.0368 20.6388 10.131 20.6388 10.2293V10.7394C20.6388 10.8255 20.673 10.9081 20.7339 10.969C20.7949 11.03 20.8777 11.0642 20.964 11.0642H21.335C21.6111 11.0642 21.835 11.2878 21.835 11.5636V11.6306C21.835 11.7618 21.7833 11.8877 21.6911 11.9811L16.0376 17.7119C15.7237 18.0301 15.1814 17.8081 15.1814 17.3614V11.5731C15.1814 11.2973 15.4053 11.0738 15.6814 11.0738H16.1265C16.2294 11.0738 16.328 11.0329 16.4007 10.9602C16.4733 10.8876 16.514 10.7893 16.514 10.6867V10.1952C16.514 10.0969 16.4684 10.0041 16.3906 9.94393C16.3349 9.90087 16.2664 9.8775 16.1959 9.8775H10.6204C10.534 9.8775 10.4513 9.91178 10.3903 9.97278C10.3294 10.0337 10.2952 10.1162 10.2952 10.2023V10.7562C10.2952 10.8437 10.3299 10.9277 10.3918 10.9896C10.4539 11.0516 10.538 11.0865 10.6258 11.0865H11.0009C11.277 11.0865 11.5009 11.31 11.5009 11.5858V24.7741C11.5009 24.8602 11.5351 24.9427 11.596 25.0036C11.657 25.0646 11.7397 25.0989 11.8261 25.0989H12.6295C12.7649 25.0989 12.8946 25.044 12.9888 24.9468L26.644 10.8556C26.7342 10.7625 26.7847 10.638 26.7847 10.5084V10.2293C26.7847 10.131 26.7456 10.0368 26.6761 9.96724C26.6065 9.89759 26.5119 9.85846 26.4134 9.85846H21.0101Z"/>
</mask>
<path d="M18.6844 19.2373C18.5697 19.2373 18.4587 19.2784 18.3717 19.3531L18.3373 19.3827C18.2715 19.4392 18.2216 19.5119 18.1924 19.5935L18.0264 20.0583C17.9902 20.1596 18.0157 20.2726 18.0917 20.3487C18.144 20.401 18.215 20.4304 18.289 20.4304H18.8146C18.9373 20.4304 19.0549 20.3814 19.1413 20.2944C19.1954 20.2399 19.2349 20.1729 19.2563 20.0993L19.4136 19.5596C19.4393 19.4714 19.4149 19.3762 19.3499 19.3112C19.3026 19.2639 19.2384 19.2373 19.1714 19.2373H18.6844ZM17.1402 21.3664C17.0463 21.3664 16.9644 21.4302 16.9414 21.5212C16.9089 21.6504 17.0067 21.7758 17.1402 21.7758H17.1525C17.3002 21.7758 17.4038 21.9214 17.355 22.0607L16.4436 24.6639C16.3299 24.9885 16.5712 25.3281 16.9155 25.3281H17.8424C17.9241 25.3281 17.9964 25.2749 18.0206 25.1969L18.0247 25.1839C18.0599 25.0704 17.975 24.9552 17.8559 24.9552C17.7347 24.9552 17.6495 24.8361 17.6888 24.7216L18.6129 22.0276C18.7241 21.7035 18.4829 21.3664 18.1399 21.3664H17.1402ZM22.8348 21.3791C22.6913 21.3791 22.5548 21.4407 22.4598 21.5481L22.3729 21.6465C22.278 21.7539 22.1415 21.8154 21.998 21.8154H21.795C21.6593 21.8154 21.5295 21.7603 21.4353 21.6628L21.3209 21.5444C21.2266 21.4469 21.0968 21.3918 20.9611 21.3918H19.9142C19.8315 21.3918 19.7581 21.4446 19.7319 21.5229L19.7203 21.5576C19.6843 21.6649 19.7643 21.7758 19.8775 21.7758C19.9911 21.7758 20.0711 21.8872 20.0346 21.9946L19.1398 24.6303C19.0299 24.9541 19.271 25.29 19.6134 25.29H20.284C20.3558 25.29 20.4195 25.2444 20.4427 25.1766L20.4618 25.1205C20.4895 25.0394 20.4291 24.9552 20.3434 24.9552C20.2587 24.9552 20.1985 24.873 20.2241 24.7924L20.8438 22.8428C20.9097 22.6354 21.1025 22.4945 21.3203 22.4945H21.7503C22.0874 22.4945 22.328 22.821 22.2276 23.1424L21.7596 24.642C21.6592 24.9635 21.8997 25.29 22.2369 25.29H22.8904C22.9525 25.29 23.0086 25.2526 23.0326 25.1953L23.0519 25.149C23.085 25.0697 23.0267 24.9822 22.9406 24.9822C22.859 24.9822 22.8009 24.9029 22.8256 24.8253L23.4598 22.83C23.5257 22.6227 23.7185 22.4818 23.9364 22.4818H24.2993C24.637 22.4818 24.8776 22.8093 24.7762 23.1311L24.3003 24.6407C24.1989 24.9624 24.4395 25.29 24.7772 25.29H25.5573C25.6267 25.29 25.689 25.2472 25.7138 25.1825L25.7272 25.1475C25.7628 25.0548 25.6943 24.9552 25.5948 24.9552C25.4994 24.9552 25.4313 24.863 25.4593 24.772L26.3055 22.0254C26.3514 21.8765 26.3235 21.7146 26.2305 21.5894C26.138 21.4651 25.992 21.3918 25.8369 21.3918H25.1766C25.0358 21.3918 24.9015 21.4511 24.8067 21.5552L24.7314 21.6378C24.6367 21.7418 24.5024 21.8011 24.3616 21.8011H24.1243C23.9838 21.8011 23.8497 21.7421 23.755 21.6383L23.6669 21.5419C23.5721 21.4382 23.4381 21.3791 23.2975 21.3791H22.8348Z" fill="#019833"/>
<path d="M21.0101 9.85846C20.9115 9.85846 20.817 9.89759 20.7474 9.96724C20.6778 10.0368 20.6388 10.131 20.6388 10.2293V10.7394C20.6388 10.8255 20.673 10.9081 20.7339 10.969C20.7949 11.03 20.8777 11.0642 20.964 11.0642H21.335C21.6111 11.0642 21.835 11.2878 21.835 11.5636V11.6306C21.835 11.7618 21.7833 11.8877 21.6911 11.9811L16.0376 17.7119C15.7237 18.0301 15.1814 17.8081 15.1814 17.3614V11.5731C15.1814 11.2973 15.4053 11.0738 15.6814 11.0738H16.1265C16.2294 11.0738 16.328 11.0329 16.4007 10.9602C16.4733 10.8876 16.514 10.7893 16.514 10.6867V10.1952C16.514 10.0969 16.4684 10.0041 16.3906 9.94393C16.3349 9.90087 16.2664 9.8775 16.1959 9.8775H10.6204C10.534 9.8775 10.4513 9.91178 10.3903 9.97278C10.3294 10.0337 10.2952 10.1162 10.2952 10.2023V10.7562C10.2952 10.8437 10.3299 10.9277 10.3918 10.9896C10.4539 11.0516 10.538 11.0865 10.6258 11.0865H11.0009C11.277 11.0865 11.5009 11.31 11.5009 11.5858V24.7741C11.5009 24.8602 11.5351 24.9427 11.596 25.0036C11.657 25.0646 11.7397 25.0989 11.8261 25.0989H12.6295C12.7649 25.0989 12.8946 25.044 12.9888 24.9468L26.644 10.8556C26.7342 10.7625 26.7847 10.638 26.7847 10.5084V10.2293C26.7847 10.131 26.7456 10.0368 26.6761 9.96724C26.6065 9.89759 26.5119 9.85846 26.4134 9.85846H21.0101Z" fill="#019833"/>
<path d="M18.6844 19.2373C18.5697 19.2373 18.4587 19.2784 18.3717 19.3531L18.3373 19.3827C18.2715 19.4392 18.2216 19.5119 18.1924 19.5935L18.0264 20.0583C17.9902 20.1596 18.0157 20.2726 18.0917 20.3487C18.144 20.401 18.215 20.4304 18.289 20.4304H18.8146C18.9373 20.4304 19.0549 20.3814 19.1413 20.2944C19.1954 20.2399 19.2349 20.1729 19.2563 20.0993L19.4136 19.5596C19.4393 19.4714 19.4149 19.3762 19.3499 19.3112C19.3026 19.2639 19.2384 19.2373 19.1714 19.2373H18.6844ZM17.1402 21.3664C17.0463 21.3664 16.9644 21.4302 16.9414 21.5212C16.9089 21.6504 17.0067 21.7758 17.1402 21.7758H17.1525C17.3002 21.7758 17.4038 21.9214 17.355 22.0607L16.4436 24.6639C16.3299 24.9885 16.5712 25.3281 16.9155 25.3281H17.8424C17.9241 25.3281 17.9964 25.2749 18.0206 25.1969L18.0247 25.1839C18.0599 25.0704 17.975 24.9552 17.8559 24.9552C17.7347 24.9552 17.6495 24.8361 17.6888 24.7216L18.6129 22.0276C18.7241 21.7035 18.4829 21.3664 18.1399 21.3664H17.1402ZM22.8348 21.3791C22.6913 21.3791 22.5548 21.4407 22.4598 21.5481L22.3729 21.6465C22.278 21.7539 22.1415 21.8154 21.998 21.8154H21.795C21.6593 21.8154 21.5295 21.7603 21.4353 21.6628L21.3209 21.5444C21.2266 21.4469 21.0968 21.3918 20.9611 21.3918H19.9142C19.8315 21.3918 19.7581 21.4446 19.7319 21.5229L19.7203 21.5576C19.6843 21.6649 19.7643 21.7758 19.8775 21.7758C19.9911 21.7758 20.0711 21.8872 20.0346 21.9946L19.1398 24.6303C19.0299 24.9541 19.271 25.29 19.6134 25.29H20.284C20.3558 25.29 20.4195 25.2444 20.4427 25.1766L20.4618 25.1205C20.4895 25.0394 20.4291 24.9552 20.3434 24.9552C20.2587 24.9552 20.1985 24.873 20.2241 24.7924L20.8438 22.8428C20.9097 22.6354 21.1025 22.4945 21.3203 22.4945H21.7503C22.0874 22.4945 22.328 22.821 22.2276 23.1424L21.7596 24.642C21.6592 24.9635 21.8997 25.29 22.2369 25.29H22.8904C22.9525 25.29 23.0086 25.2526 23.0326 25.1953L23.0519 25.149C23.085 25.0697 23.0267 24.9822 22.9406 24.9822C22.859 24.9822 22.8009 24.9029 22.8256 24.8253L23.4598 22.83C23.5257 22.6227 23.7185 22.4818 23.9364 22.4818H24.2993C24.637 22.4818 24.8776 22.8093 24.7762 23.1311L24.3003 24.6407C24.1989 24.9624 24.4395 25.29 24.7772 25.29H25.5573C25.6267 25.29 25.689 25.2472 25.7138 25.1825L25.7272 25.1475C25.7628 25.0548 25.6943 24.9552 25.5948 24.9552C25.4994 24.9552 25.4313 24.863 25.4593 24.772L26.3055 22.0254C26.3514 21.8765 26.3235 21.7146 26.2305 21.5894C26.138 21.4651 25.992 21.3918 25.8369 21.3918H25.1766C25.0358 21.3918 24.9015 21.4511 24.8067 21.5552L24.7314 21.6378C24.6367 21.7418 24.5024 21.8011 24.3616 21.8011H24.1243C23.9838 21.8011 23.8497 21.7421 23.755 21.6383L23.6669 21.5419C23.5721 21.4382 23.4381 21.3791 23.2975 21.3791H22.8348Z" stroke="white" stroke-width="3.76" mask="url(#path-3-outside-1_24_194)"/>
<path d="M21.0101 9.85846C20.9115 9.85846 20.817 9.89759 20.7474 9.96724C20.6778 10.0368 20.6388 10.131 20.6388 10.2293V10.7394C20.6388 10.8255 20.673 10.9081 20.7339 10.969C20.7949 11.03 20.8777 11.0642 20.964 11.0642H21.335C21.6111 11.0642 21.835 11.2878 21.835 11.5636V11.6306C21.835 11.7618 21.7833 11.8877 21.6911 11.9811L16.0376 17.7119C15.7237 18.0301 15.1814 17.8081 15.1814 17.3614V11.5731C15.1814 11.2973 15.4053 11.0738 15.6814 11.0738H16.1265C16.2294 11.0738 16.328 11.0329 16.4007 10.9602C16.4733 10.8876 16.514 10.7893 16.514 10.6867V10.1952C16.514 10.0969 16.4684 10.0041 16.3906 9.94393C16.3349 9.90087 16.2664 9.8775 16.1959 9.8775H10.6204C10.534 9.8775 10.4513 9.91178 10.3903 9.97278C10.3294 10.0337 10.2952 10.1162 10.2952 10.2023V10.7562C10.2952 10.8437 10.3299 10.9277 10.3918 10.9896C10.4539 11.0516 10.538 11.0865 10.6258 11.0865H11.0009C11.277 11.0865 11.5009 11.31 11.5009 11.5858V24.7741C11.5009 24.8602 11.5351 24.9427 11.596 25.0036C11.657 25.0646 11.7397 25.0989 11.8261 25.0989H12.6295C12.7649 25.0989 12.8946 25.044 12.9888 24.9468L26.644 10.8556C26.7342 10.7625 26.7847 10.638 26.7847 10.5084V10.2293C26.7847 10.131 26.7456 10.0368 26.6761 9.96724C26.6065 9.89759 26.5119 9.85846 26.4134 9.85846H21.0101Z" stroke="white" stroke-width="3.76" mask="url(#path-3-outside-1_24_194)"/>
</svg>
