<svg width="36" height="36" viewBox="0 0 36 36" fill="none" xmlns="http://www.w3.org/2000/svg">
<rect width="36" height="36" rx="15" fill="#EF3939"/>
<path d="M25.0398 10.9604C21.1375 7.06399 14.8058 7.06399 10.8977 10.9604C6.99537 14.8569 6.99537 21.1709 10.8977 25.0615C14.8 28.9579 21.1317 28.9579 25.0398 25.0615C28.948 21.1651 28.948 14.851 25.0398 10.9604ZM24.4413 15.5434C22.7923 18.4012 21.1434 21.259 19.4945 24.1226C19.1893 24.6566 18.7433 24.9735 18.1331 25.0204C17.4524 25.0674 16.9125 24.7798 16.5663 24.193C15.5217 22.4032 14.489 20.6017 13.4562 18.8061C12.8283 17.7146 12.1945 16.6232 11.5666 15.5258C10.9329 14.4226 11.6488 13.0788 12.9163 13.0143C13.5853 12.9791 14.1017 13.2901 14.442 13.871C14.9056 14.6632 15.3633 15.4671 15.8269 16.2652C16.1614 16.8403 16.4841 17.4212 16.8245 17.9846C17.3174 18.812 18.045 19.2755 19.0133 19.3342C20.3805 19.4164 21.6539 18.4247 21.8182 16.9752C21.83 16.8696 21.8358 16.7581 21.8417 16.7053C21.8358 16.2359 21.7478 15.8368 21.56 15.4671C21.0495 14.4461 21.5952 13.3018 22.7043 13.0553C23.608 12.8558 24.5469 13.5189 24.6643 14.4343C24.7229 14.8275 24.6408 15.1972 24.4413 15.5434Z" fill="white"/>
<path d="M24.4413 15.5434C22.7923 18.4012 21.1434 21.259 19.4945 24.1226C19.1893 24.6566 18.7433 24.9735 18.1331 25.0204C17.4524 25.0674 16.9125 24.7798 16.5663 24.193C15.5217 22.4032 14.489 20.6017 13.4562 18.8061C12.8283 17.7146 12.1945 16.6232 11.5666 15.5258C10.9329 14.4226 11.6488 13.0788 12.9163 13.0143C13.5853 12.9791 14.1017 13.2901 14.442 13.871C14.9056 14.6632 15.3633 15.4671 15.8269 16.2652C16.1614 16.8403 16.4841 17.4212 16.8245 17.9846C17.3174 18.812 18.045 19.2755 19.0133 19.3342C20.3805 19.4164 21.6539 18.4247 21.8182 16.9752C21.83 16.8696 21.8358 16.7581 21.8417 16.7053C21.8358 16.2359 21.7478 15.8368 21.56 15.4671C21.0495 14.4461 21.5952 13.3018 22.7043 13.0553C23.608 12.8558 24.5469 13.5189 24.6643 14.4343C24.7229 14.8275 24.6408 15.1972 24.4413 15.5434Z" fill="black" fill-opacity="0.25"/>
</svg>
