<svg width="36" height="36" viewBox="0 0 36 36" fill="none" xmlns="http://www.w3.org/2000/svg">
<rect width="36" height="36" rx="15" fill="#D21A1A"/>
<path d="M21.1006 13.7939C23.5945 15.1652 24.8415 15.8509 25.254 16.757C25.6135 17.5467 25.6135 18.4533 25.254 19.243C24.8415 20.1491 23.5945 20.8348 21.1006 22.2061L17.8628 23.9864C15.5212 25.274 14.3504 25.9177 13.3929 25.8029C12.5573 25.7027 11.8023 25.2563 11.312 24.5724C10.75 23.7886 10.75 22.4525 10.75 19.7803L10.75 16.2197C10.75 13.5475 10.75 12.2114 11.312 11.4276C11.8023 10.7437 12.5573 10.2973 13.3929 10.1971C14.3504 10.0823 15.5212 10.726 17.8628 12.0136L21.1006 13.7939Z" fill="white"/>
</svg>
