<svg width="36" height="36" viewBox="0 0 36 36" fill="none" xmlns="http://www.w3.org/2000/svg">
<g clip-path="url(#clip0_24_316)">
<rect width="36" height="36" rx="10" fill="url(#paint0_radial_24_316)"/>
<path opacity="0.5" d="M-11.7239 -2.84596L-46.5879 68.9844H-11.7239L23.1402 -2.84596H-11.7239Z" fill="url(#paint1_linear_24_316)"/>
<path opacity="0.5" d="M26.3086 -33.0156L-8.55542 38.8147H26.3086L61.1726 -33.0156H26.3086Z" fill="url(#paint2_linear_24_316)"/>
<path opacity="0.5" d="M47.5481 51.9376L82.4121 -19.8927H47.5481L12.684 51.9376H47.5481Z" fill="url(#paint3_linear_24_316)"/>
<path d="M10.25 23V13C10.25 10.7909 12.0409 9 14.25 9H18.4289C19.4898 9 20.5072 9.42143 21.2574 10.1716L24.5784 13.4926C25.3286 14.2428 25.75 15.2602 25.75 16.3211V23C25.75 25.2091 23.9591 27 21.75 27H14.25C12.0409 27 10.25 25.2091 10.25 23Z" fill="white" stroke="white" stroke-width="2"/>
<mask id="mask0_24_316" style="mask-type:alpha" maskUnits="userSpaceOnUse" x="9" y="8" width="18" height="20">
<path d="M10.25 23V13C10.25 10.7909 12.0409 9 14.25 9H18.4289C19.4898 9 20.5072 9.42143 21.2574 10.1716L24.5784 13.4926C25.3286 14.2428 25.75 15.2602 25.75 16.3211V23C25.75 25.2091 23.9591 27 21.75 27H14.25C12.0409 27 10.25 25.2091 10.25 23Z" fill="white" stroke="white" stroke-width="2"/>
</mask>
<g mask="url(#mask0_24_316)">
<path d="M19.25 11.5V4.63235L30.1176 15.5H23.25C21.8499 15.5 21.1498 15.5 20.615 15.2275C20.1446 14.9878 19.7622 14.6054 19.5225 14.135C19.25 13.6002 19.25 12.9001 19.25 11.5Z" fill="#0345A5"/>
</g>
</g>
<defs>
<radialGradient id="paint0_radial_24_316" cx="0" cy="0" r="1" gradientUnits="userSpaceOnUse" gradientTransform="translate(17.9096 -0.0158197) rotate(90) scale(36)">
<stop stop-color="#65AEF1"/>
<stop offset="1" stop-color="#1969E1"/>
</radialGradient>
<linearGradient id="paint1_linear_24_316" x1="-11.7239" y1="-2.84596" x2="-11.7239" y2="68.9844" gradientUnits="userSpaceOnUse">
<stop stop-color="white" stop-opacity="0.4"/>
<stop offset="1" stop-color="white" stop-opacity="0"/>
</linearGradient>
<linearGradient id="paint2_linear_24_316" x1="26.3086" y1="-33.0156" x2="26.3086" y2="38.8147" gradientUnits="userSpaceOnUse">
<stop stop-color="white" stop-opacity="0.4"/>
<stop offset="1" stop-color="white" stop-opacity="0"/>
</linearGradient>
<linearGradient id="paint3_linear_24_316" x1="47.5481" y1="51.9376" x2="47.5481" y2="-19.8927" gradientUnits="userSpaceOnUse">
<stop stop-color="white" stop-opacity="0.4"/>
<stop offset="1" stop-color="white" stop-opacity="0"/>
</linearGradient>
<clipPath id="clip0_24_316">
<rect width="36" height="36" rx="10" fill="white"/>
</clipPath>
</defs>
</svg>
