<svg width="16" height="16" viewBox="0 0 16 16" fill="none" xmlns="http://www.w3.org/2000/svg">
<g clip-path="url(#clip0_101_3803)">
<path d="M1.75 12V4C1.75 2.20507 3.20507 0.749999 5 0.749999H8.34315C9.2051 0.749999 10.0317 1.09241 10.6412 1.7019L11.1586 1.18451L10.6412 1.7019L13.2981 4.35876C13.9076 4.96825 14.25 5.7949 14.25 6.65685V12C14.25 13.7949 12.7949 15.25 11 15.25L5 15.25C3.20507 15.25 1.75 13.7949 1.75 12Z" stroke="white" stroke-width="1.5"/>
<path d="M9 0.999999V2.8C9 3.9201 9 4.48016 9.21799 4.90798C9.40973 5.2843 9.71569 5.59027 10.092 5.78201C10.5198 6 11.0799 6 12.2 6H14" stroke="white" stroke-width="1.5"/>
</g>
<defs>
<clipPath id="clip0_101_3803">
<rect width="16" height="16" fill="white"/>
</clipPath>
</defs>
</svg>
