<svg width="16" height="16" viewBox="0 0 16 16" fill="none" xmlns="http://www.w3.org/2000/svg">
<rect x="0.75" y="2.75" width="10.5" height="10.5" rx="2.25" stroke="white" stroke-width="1.5"/>
<path d="M12.3814 6.86863L12.5186 6.73137C13.3754 5.87462 13.8038 5.44624 14.1715 5.4173C14.4907 5.39218 14.8025 5.52136 15.0104 5.76477C15.25 6.04529 15.25 6.65111 15.25 7.86274V8.13726C15.25 9.34889 15.25 9.95471 15.0104 10.2352C14.8025 10.4786 14.4907 10.6078 14.1715 10.5827C13.8038 10.5538 13.3754 10.1254 12.5186 9.26863L12.3814 9.13137C11.9854 8.73535 11.7873 8.53735 11.7132 8.30902C11.6479 8.10817 11.6479 7.89183 11.7132 7.69098C11.7873 7.46265 11.9854 7.26465 12.3814 6.86863Z" stroke="white" stroke-width="1.5"/>
</svg>
