<svg width="16" height="16" viewBox="0 0 16 16" fill="none" xmlns="http://www.w3.org/2000/svg">
<path d="M9.45352 3.81285H9.54827H11.2C12.0525 3.81285 12.6467 3.81343 13.1093 3.85123C13.5632 3.88831 13.824 3.95744 14.0215 4.05808C14.4448 4.2738 14.7891 4.61801 15.0048 5.04137C15.1054 5.23889 15.1745 5.49965 15.2116 5.95353C15.2494 6.41616 15.25 7.0104 15.25 7.86285V10.0571C15.25 10.9096 15.2494 11.5038 15.2116 11.9665C15.1745 12.4203 15.1054 12.6811 15.0048 12.8786C14.7891 13.302 14.4448 13.6462 14.0215 13.8619C13.824 13.9625 13.5632 14.0317 13.1093 14.0688C12.6467 14.1066 12.0525 14.1071 11.2 14.1071H4.8C3.94755 14.1071 3.35331 14.1066 2.89068 14.0688C2.4368 14.0317 2.17604 13.9625 1.97852 13.8619C1.55516 13.6462 1.21095 13.302 0.995235 12.8786C0.894596 12.6811 0.825465 12.4203 0.788382 11.9665C0.750583 11.5038 0.75 10.9096 0.75 10.0571V5.94618H5.0213C5.05017 5.94618 5.07865 5.94619 5.10676 5.9462C5.75832 5.94639 6.20933 5.94652 6.6423 5.84257C7.02494 5.75071 7.39073 5.59919 7.72625 5.39358C8.10591 5.16093 8.42473 4.84193 8.88531 4.38108C8.90518 4.36119 8.92532 4.34105 8.94573 4.32063L8.94574 4.32063L8.96132 4.30505L8.96133 4.30503L9.45352 3.81285ZM7.88508 3.25997L7.88508 3.25997C7.88251 3.26254 7.87994 3.2651 7.87739 3.26766C7.3392 3.80578 7.15097 3.98687 6.9425 4.11462C6.74119 4.23799 6.52172 4.3289 6.29214 4.38401C6.05327 4.44136 5.79077 4.44618 5.0213 4.44618H0.753467C0.760311 3.96111 0.780033 3.7245 0.835009 3.53022C1.04778 2.7783 1.63545 2.19063 2.38737 1.97786C2.66254 1.89999 3.02263 1.89285 4.05333 1.89285H5.16759C5.88178 1.89285 6.12537 1.89703 6.34899 1.947C6.56393 1.99503 6.77065 2.07436 6.96254 2.18245C7.16219 2.2949 7.34605 2.45474 7.8769 2.93251L8.05355 3.0915L7.88508 3.25997Z" stroke="white" stroke-width="1.5"/>
</svg>
