<svg width="16" height="16" viewBox="0 0 16 16" fill="none" xmlns="http://www.w3.org/2000/svg">
<g clip-path="url(#clip0_101_3710)">
<path d="M9.07954 12.2091L10.8205 13.8005C11.6681 14.5754 12.092 14.9628 12.4529 14.9799C12.7663 14.9947 13.0685 14.8615 13.2691 14.6202C13.5 14.3423 13.5 13.7681 13.5 12.6196V2.35C13.5 1.78995 13.5 1.50992 13.391 1.29601C13.2951 1.10785 13.1422 0.954867 12.954 0.858993C12.7401 0.75 12.4601 0.75 11.9 0.75H4.1C3.53995 0.75 3.25992 0.75 3.04601 0.858993C2.85785 0.954867 2.70487 1.10785 2.60899 1.29601C2.5 1.50992 2.5 1.78995 2.5 2.35V12.6196C2.5 13.7681 2.5 14.3423 2.73093 14.6202C2.93149 14.8615 3.2337 14.9947 3.54714 14.9799C3.90804 14.9628 4.33187 14.5754 5.17954 13.8005L6.92046 12.2091C7.3015 11.8607 7.49202 11.6866 7.70808 11.6206C7.89836 11.5626 8.10164 11.5626 8.29192 11.6206C8.50798 11.6866 8.6985 11.8607 9.07954 12.2091Z" stroke="white" stroke-width="1.5" stroke-linecap="round" stroke-linejoin="round"/>
</g>
<defs>
<clipPath id="clip0_101_3710">
<rect width="16" height="16" fill="white"/>
</clipPath>
</defs>
</svg>
