<svg width="16" height="16" viewBox="0 0 16 16" fill="none" xmlns="http://www.w3.org/2000/svg">
<g clip-path="url(#clip0_101_3698)">
<path d="M0.75 11.2V8.84537C0.75 8.0759 0.75482 7.81341 0.812168 7.57454L0.0828902 7.39945L0.812168 7.57454C0.867285 7.34495 0.958195 7.12548 1.08156 6.92417L0.442079 6.53229L1.08156 6.92417C1.20992 6.71471 1.39212 6.52569 1.93622 5.98159L5.13622 2.78159C5.73899 2.17881 6.15959 1.75904 6.51345 1.45864C6.86061 1.16392 7.09388 1.02841 7.30471 0.959911C7.75661 0.81308 8.24339 0.81308 8.69529 0.959911C8.90612 1.02841 9.13939 1.16392 9.48655 1.45864C9.84041 1.75904 10.261 2.17881 10.8638 2.78159L14.0638 5.98159L14.0638 5.9816C14.6079 6.52569 14.7901 6.71471 14.9184 6.92417C15.0418 7.12548 15.1327 7.34495 15.1878 7.57454C15.2452 7.81341 15.25 8.0759 15.25 8.84537V11.2C15.25 12.0525 15.2494 12.6467 15.2116 13.1093C15.1745 13.5632 15.1054 13.824 15.0048 14.0215C14.789 14.4448 14.4448 14.7891 14.0215 15.0048C13.824 15.1054 13.5632 15.1745 13.1093 15.2116C12.6467 15.2494 12.0525 15.25 11.2 15.25H4.8C3.94755 15.25 3.35331 15.2494 2.89068 15.2116C2.4368 15.1745 2.17604 15.1054 1.97852 15.0048C1.55516 14.7891 1.21095 14.4448 0.995235 14.0215C0.894596 13.824 0.825465 13.5632 0.788382 13.1093C0.750583 12.6467 0.75 12.0525 0.75 11.2Z" stroke="white" stroke-width="1.5"/>
</g>
<defs>
<clipPath id="clip0_101_3698">
<rect width="16" height="16" fill="white"/>
</clipPath>
</defs>
</svg>
