<svg width="50" height="50" viewBox="0 0 50 50" fill="none" xmlns="http://www.w3.org/2000/svg">
<g clip-path="url(#clip0_84_3738)">
<path d="M50.0097 30.603V23.404C50.0097 18.3634 50.0097 15.8431 49.0287 13.9178C48.1658 12.2243 46.7889 10.8474 45.0954 9.98448C43.1701 9.0035 40.6498 9.0035 35.6091 9.0035H29.9409C29.6281 9.0035 29.4718 9.0035 29.3193 8.97985C29.184 8.95884 29.0511 8.92399 28.9229 8.87583C28.7785 8.8216 28.6422 8.74483 28.3698 8.59128L25.2925 6.85707C24.0664 6.1661 23.4533 5.82062 22.8034 5.57657C22.2264 5.35988 21.6286 5.20303 21.0195 5.10851C20.3335 5.00206 19.6298 5.00206 18.2224 5.00206H14.4005C9.35987 5.00206 6.83955 5.00206 4.91427 5.98303C3.22075 6.84593 1.84387 8.2228 0.980978 9.91632C0 11.8416 0 14.3619 0 19.4026V30.603C0 35.6436 0 38.164 0.980978 40.0892C1.84387 41.7828 3.22075 43.1596 4.91427 44.0225C6.83955 45.0035 9.35988 45.0035 14.4005 45.0035H35.6091C40.6498 45.0035 43.1701 45.0035 45.0954 44.0225C46.7889 43.1596 48.1658 41.7828 49.0287 40.0892C50.0097 38.164 50.0097 35.6436 50.0097 30.603Z" fill="#0A69AE"/>
<path d="M50 29.0029V23.404C50 18.3634 50 15.843 49.019 13.9178C48.1561 12.2242 46.7793 10.8474 45.0857 9.98446C43.1605 9.00349 40.6401 9.00349 35.5995 9.00349H30.0266C29.6458 9.00349 29.4554 9.00349 29.272 9.03801C29.1092 9.06865 28.9509 9.11939 28.8007 9.18906C28.6314 9.26756 28.4764 9.37823 28.1666 9.59955L28.1666 9.59956L25.7561 11.3213C24.3617 12.3173 23.6645 12.8153 22.9026 13.1686C22.2265 13.4821 21.514 13.7104 20.7816 13.8483C19.9563 14.0037 19.0995 14.0037 17.3859 14.0037H14.4005C9.35988 14.0037 6.83955 14.0037 4.91427 14.9846C3.22075 15.8475 1.84387 17.2244 0.980978 18.9179C0 20.8432 0 23.3635 0 28.4042V30.603C0 35.6436 0 38.1639 0.980978 40.0892C1.84387 41.7827 3.22075 43.1596 4.91427 44.0225C6.83955 45.0035 9.35988 45.0035 14.4005 45.0035H33.9994C39.6001 45.0035 42.4005 45.0035 44.5397 43.9135C46.4214 42.9547 47.9513 41.4249 48.91 39.5432C50 37.404 50 34.6036 50 29.0029Z" fill="#3EA9F5"/>
<g clip-path="url(#clip1_84_3738)">
<path d="M26.456 33.3565L26.456 24.5106C26.456 23.4565 26.456 22.9294 26.6726 22.6564C26.861 22.419 27.147 22.2798 27.4501 22.278C27.7986 22.2759 28.2134 22.601 29.0431 23.2513L30.2 24.1581M26.456 33.3565C26.456 35.2193 24.9661 36.7294 23.128 36.7294C21.29 36.7294 19.8 35.2193 19.8 33.3565C19.8 31.4936 21.29 29.9835 23.128 29.9835C24.9661 29.9835 26.456 31.4936 26.456 33.3565Z" stroke="white" stroke-width="1.5" stroke-linecap="round"/>
</g>
</g>
<defs>
<clipPath id="clip0_84_3738">
<rect width="50" height="50.0019" fill="white" transform="translate(0 0.00185394)"/>
</clipPath>
<clipPath id="clip1_84_3738">
<rect width="16" height="16" fill="white" transform="translate(17 21.5009)"/>
</clipPath>
</defs>
</svg>
