<svg width="50" height="50" viewBox="0 0 50 50" fill="none" xmlns="http://www.w3.org/2000/svg">
<g clip-path="url(#clip0_82_3629)">
<path d="M50.0097 30.6011V23.4022C50.0097 18.3615 50.0097 15.8412 49.0287 13.9159C48.1658 12.2224 46.7889 10.8455 45.0954 9.98263C43.1701 9.00165 40.6498 9.00165 35.6091 9.00165H29.9409C29.6281 9.00165 29.4718 9.00165 29.3193 8.97799C29.184 8.95699 29.0511 8.92213 28.9229 8.87398C28.7785 8.81975 28.6422 8.74297 28.3698 8.58942L25.2925 6.85522C24.0664 6.16425 23.4533 5.81876 22.8034 5.57472C22.2264 5.35802 21.6286 5.20118 21.0195 5.10666C20.3335 5.0002 19.6298 5.0002 18.2224 5.0002H14.4005C9.35987 5.0002 6.83955 5.0002 4.91427 5.98118C3.22075 6.84407 1.84387 8.22095 0.980978 9.91447C0 11.8397 0 14.3601 0 19.4007V30.6011C0 35.6418 0 38.1621 0.980978 40.0874C1.84387 41.7809 3.22075 43.1578 4.91427 44.0207C6.83955 45.0016 9.35988 45.0016 14.4005 45.0016H35.6091C40.6498 45.0016 43.1701 45.0016 45.0954 44.0207C46.7889 43.1578 48.1658 41.7809 49.0287 40.0874C50.0097 38.1621 50.0097 35.6418 50.0097 30.6011Z" fill="#0A69AE"/>
<path d="M50 29.001V23.4022C50 18.3615 50 15.8412 49.019 13.9159C48.1561 12.2224 46.7793 10.8455 45.0857 9.98261C43.1605 9.00163 40.6401 9.00163 35.5995 9.00163H30.0266C29.6458 9.00163 29.4554 9.00163 29.272 9.03616C29.1092 9.0668 28.9509 9.11754 28.8007 9.1872C28.6314 9.26571 28.4764 9.37637 28.1666 9.5977L28.1666 9.59771L25.7561 11.3195C24.3617 12.3155 23.6645 12.8135 22.9026 13.1667C22.2265 13.4803 21.514 13.7086 20.7816 13.8465C19.9563 14.0018 19.0995 14.0018 17.3859 14.0018H14.4005C9.35988 14.0018 6.83955 14.0018 4.91427 14.9828C3.22075 15.8457 1.84387 17.2226 0.980978 18.9161C0 20.8414 0 23.3617 0 28.4024V30.6011C0 35.6418 0 38.1621 0.980978 40.0874C1.84387 41.7809 3.22075 43.1578 4.91427 44.0207C6.83955 45.0016 9.35988 45.0016 14.4005 45.0016H33.9994C39.6001 45.0016 42.4005 45.0016 44.5397 43.9117C46.4214 42.9529 47.9513 41.423 48.91 39.5413C50 37.4021 50 34.6018 50 29.001Z" fill="#3EA9F5"/>
<g clip-path="url(#clip1_82_3629)">
<path d="M25 22.249V32.499M25 32.499L21 28.4355M25 32.499L29 28.4355" stroke="white" stroke-width="1.5" stroke-linecap="round" stroke-linejoin="round"/>
<path d="M21 36.749H29" stroke="white" stroke-width="1.5" stroke-linecap="round"/>
</g>
</g>
<defs>
<clipPath id="clip0_82_3629">
<rect width="50" height="50.0019" fill="white"/>
</clipPath>
<clipPath id="clip1_82_3629">
<rect width="16" height="16" fill="white" transform="translate(17 21.499)"/>
</clipPath>
</defs>
</svg>
