<svg width="50" height="50" viewBox="0 0 50 50" fill="none" xmlns="http://www.w3.org/2000/svg">
<g clip-path="url(#clip0_82_3733)">
<path d="M50.0097 30.6011V23.4022C50.0097 18.3615 50.0097 15.8412 49.0287 13.9159C48.1658 12.2224 46.7889 10.8455 45.0954 9.98263C43.1701 9.00165 40.6498 9.00165 35.6091 9.00165H29.9409C29.6281 9.00165 29.4718 9.00165 29.3193 8.97799C29.184 8.95699 29.0511 8.92213 28.9229 8.87398C28.7785 8.81975 28.6422 8.74297 28.3698 8.58942L25.2925 6.85522C24.0664 6.16425 23.4533 5.81876 22.8034 5.57472C22.2264 5.35802 21.6286 5.20118 21.0195 5.10666C20.3335 5.0002 19.6298 5.0002 18.2224 5.0002H14.4005C9.35987 5.0002 6.83955 5.0002 4.91427 5.98118C3.22075 6.84407 1.84387 8.22095 0.980978 9.91447C0 11.8397 0 14.3601 0 19.4007V30.6011C0 35.6418 0 38.1621 0.980978 40.0874C1.84387 41.7809 3.22075 43.1578 4.91427 44.0207C6.83955 45.0016 9.35988 45.0016 14.4005 45.0016H35.6091C40.6498 45.0016 43.1701 45.0016 45.0954 44.0207C46.7889 43.1578 48.1658 41.7809 49.0287 40.0874C50.0097 38.1621 50.0097 35.6418 50.0097 30.6011Z" fill="#0A69AE"/>
<path d="M50 29.001V23.4022C50 18.3615 50 15.8412 49.019 13.9159C48.1561 12.2224 46.7793 10.8455 45.0857 9.98261C43.1605 9.00163 40.6401 9.00163 35.5995 9.00163H30.0266C29.6458 9.00163 29.4554 9.00163 29.272 9.03616C29.1092 9.0668 28.9509 9.11754 28.8007 9.1872C28.6314 9.26571 28.4764 9.37637 28.1666 9.5977L28.1666 9.59771L25.7561 11.3195C24.3617 12.3155 23.6645 12.8135 22.9026 13.1667C22.2265 13.4803 21.514 13.7086 20.7816 13.8465C19.9563 14.0018 19.0995 14.0018 17.3859 14.0018H14.4005C9.35988 14.0018 6.83955 14.0018 4.91427 14.9828C3.22075 15.8457 1.84387 17.2226 0.980978 18.9161C0 20.8414 0 23.3617 0 28.4024V30.6011C0 35.6418 0 38.1621 0.980978 40.0874C1.84387 41.7809 3.22075 43.1578 4.91427 44.0207C6.83955 45.0016 9.35988 45.0016 14.4005 45.0016H33.9994C39.6001 45.0016 42.4005 45.0016 44.5397 43.9117C46.4214 42.9529 47.9513 41.423 48.91 39.5413C50 37.4021 50 34.6018 50 29.001Z" fill="#3EA9F5"/>
<g clip-path="url(#clip1_82_3733)">
<path d="M26.0795 33.7081L27.8205 35.2995C28.6681 36.0744 29.092 36.4618 29.4529 36.4789C29.7663 36.4937 30.0685 36.3605 30.2691 36.1192C30.5 35.8413 30.5 35.2671 30.5 34.1186V23.849C30.5 23.2889 30.5 23.0089 30.391 22.795C30.2951 22.6068 30.1422 22.4539 29.954 22.358C29.7401 22.249 29.4601 22.249 28.9 22.249H21.1C20.5399 22.249 20.2599 22.249 20.046 22.358C19.8578 22.4539 19.7049 22.6068 19.609 22.795C19.5 23.0089 19.5 23.2889 19.5 23.849V34.1186C19.5 35.2671 19.5 35.8413 19.7309 36.1192C19.9315 36.3605 20.2337 36.4937 20.5471 36.4789C20.908 36.4618 21.3319 36.0744 22.1795 35.2995L23.9205 33.7081C24.3015 33.3597 24.492 33.1856 24.7081 33.1196C24.8984 33.0616 25.1016 33.0616 25.2919 33.1196C25.508 33.1856 25.6985 33.3597 26.0795 33.7081Z" stroke="white" stroke-width="1.5" stroke-linecap="round" stroke-linejoin="round"/>
</g>
</g>
<defs>
<clipPath id="clip0_82_3733">
<rect width="50" height="50.0019" fill="white"/>
</clipPath>
<clipPath id="clip1_82_3733">
<rect width="16" height="16" fill="white" transform="translate(17 21.499)"/>
</clipPath>
</defs>
</svg>
