<svg width="16" height="16" viewBox="0 0 16 16" fill="none" xmlns="http://www.w3.org/2000/svg">
<g clip-path="url(#clip0_94_3858)">
<path d="M0.749805 6.34998C0.335591 6.34998 -0.000195265 6.01419 -0.000195265 5.59998C-0.000195265 5.18576 0.335591 4.84998 0.749805 4.84998V6.34998ZM3.5498 6.34998H0.749805V4.84998H3.5498V6.34998Z" fill="#FFBE0D"/>
<path d="M0.749805 11.15C0.335591 11.15 -0.000195265 10.8142 -0.000195265 10.4C-0.000195265 9.98581 0.335591 9.65002 0.749805 9.65002V11.15ZM3.5498 11.15H0.749805V9.65002H3.5498V11.15Z" fill="#FFBE0D"/>
<path d="M15.2497 6.34998C15.6639 6.34998 15.9997 6.01419 15.9997 5.59998C15.9997 5.18576 15.6639 4.84998 15.2497 4.84998V6.34998ZM12.4497 6.34998H15.2497V4.84998H12.4497V6.34998Z" fill="#FFBE0D"/>
<path d="M15.2497 11.15C15.6639 11.15 15.9997 10.8142 15.9997 10.4C15.9997 9.98581 15.6639 9.65002 15.2497 9.65002V11.15ZM12.4497 11.15H15.2497V9.65002H12.4497V11.15Z" fill="#FFBE0D"/>
<path d="M9.64941 0.749988C9.64941 0.335774 9.9852 -1.21775e-05 10.3994 -1.21593e-05C10.8136 -1.21412e-05 11.1494 0.335774 11.1494 0.749988L9.64941 0.749988ZM9.64941 3.54999L9.64941 0.749988L11.1494 0.749988L11.1494 3.54999L9.64941 3.54999Z" fill="#FFBE0D"/>
<path d="M4.84937 0.749927C4.84937 0.335713 5.18515 -7.32126e-05 5.59937 -7.31945e-05C6.01358 -7.31764e-05 6.34937 0.335713 6.34937 0.749927L4.84937 0.749927ZM4.84937 3.54993L4.84937 0.749927L6.34937 0.749927L6.34937 3.54993L4.84937 3.54993Z" fill="#FFBE0D"/>
<path d="M9.64941 15.25C9.64941 15.6642 9.9852 16 10.3994 16C10.8136 16 11.1494 15.6642 11.1494 15.25L9.64941 15.25ZM9.64941 12.45L9.64941 15.25L11.1494 15.25L11.1494 12.45L9.64941 12.45Z" fill="#FFBE0D"/>
<path d="M4.84937 15.25C4.84937 15.6642 5.18515 16 5.59937 16C6.01358 16 6.34937 15.6642 6.34937 15.25L4.84937 15.25ZM4.84937 12.45L4.84937 15.25L6.34937 15.25L6.34937 12.45L4.84937 12.45Z" fill="#FFBE0D"/>
<rect x="3.1499" y="3.15002" width="9.7" height="9.7" rx="2.25" fill="#136522" stroke="#197D2B" stroke-width="1.5"/>
</g>
<defs>
<clipPath id="clip0_94_3858">
<rect width="16" height="16" fill="white"/>
</clipPath>
</defs>
</svg>
