<svg width="16" height="16" viewBox="0 0 16 16" fill="none" xmlns="http://www.w3.org/2000/svg">
<g clip-path="url(#clip0_94_3829)">
<path d="M-0.000244141 13.667V11.6666C-0.000244141 11.4825 0.14901 11.3333 0.33309 11.3333C1.62175 11.3333 2.66642 10.2887 2.66642 9.00001C2.66642 7.71134 1.62175 6.66667 0.33309 6.66667C0.148995 6.66667 -0.000244141 6.51743 -0.000244141 6.33334V4.66667C-0.000244141 3.5621 0.895187 2.66667 1.99976 2.66667H4.33308C4.51718 2.66667 4.66642 2.51743 4.66642 2.33333C4.66642 1.04467 5.71109 0 6.99976 0C8.28842 0 9.33309 1.04467 9.33309 2.33333C9.33309 2.51738 9.48229 2.66658 9.66633 2.66658L11.3331 2.66662C12.4377 2.66665 13.3331 3.56208 13.3331 4.66665V6.33334C13.3331 6.51743 13.4823 6.66667 13.6664 6.66667C14.9551 6.66667 15.9998 7.71134 15.9998 9.00001C15.9998 10.2887 14.9551 11.3333 13.6664 11.3333C13.4823 11.3333 13.3331 11.4825 13.3331 11.6666V14C13.3331 15.1046 12.4377 16 11.3331 16H9.66642C9.48233 16 9.33309 15.8508 9.33309 15.6667C9.33309 14.378 8.28842 13.3333 6.99976 13.3333C5.71109 13.3333 4.66642 14.378 4.66642 15.6667C4.66642 15.8508 4.51718 16 4.33309 16H2.33281C1.0443 16 -0.000244141 14.9555 -0.000244141 13.667Z" fill="url(#paint0_linear_94_3829)"/>
</g>
<defs>
<linearGradient id="paint0_linear_94_3829" x1="7.99976" y1="0" x2="7.99976" y2="16" gradientUnits="userSpaceOnUse">
<stop stop-color="#5FC955"/>
<stop offset="1" stop-color="#50C495"/>
</linearGradient>
<clipPath id="clip0_94_3829">
<rect width="16" height="16" fill="white"/>
</clipPath>
</defs>
</svg>
