<svg width="16" height="16" viewBox="0 0 16 16" fill="none" xmlns="http://www.w3.org/2000/svg">
<path d="M3.32007 11.4176C3.32007 13.0942 4.66106 14.4533 6.31527 14.4533C7.96947 14.4533 9.31046 13.0942 9.31046 11.4176C9.31046 9.74108 7.96947 8.38196 6.31527 8.38196C4.66106 8.38196 3.32007 9.74107 3.32007 11.4176Z" fill="#FF2C60"/>
<path d="M9.31046 11.4176L9.31046 3.45632C9.31046 2.50766 9.31046 2.03333 9.5054 1.78762C9.67496 1.57388 9.93233 1.4486 10.2052 1.44699C10.5188 1.44515 10.8921 1.73775 11.6388 2.32296L12.6801 3.13911M9.31046 11.4176C9.31046 13.0942 7.96947 14.4533 6.31527 14.4533C4.66106 14.4533 3.32007 13.0942 3.32007 11.4176C3.32007 9.74107 4.66106 8.38196 6.31527 8.38196C7.96947 8.38196 9.31046 9.74108 9.31046 11.4176Z" stroke="#FF2C60" stroke-width="2" stroke-linecap="round"/>
</svg>
