<svg width="16" height="16" viewBox="0 0 16 16" fill="none" xmlns="http://www.w3.org/2000/svg">
<g clip-path="url(#clip0_94_3744)">
<path d="M1 3V13C1 14.6569 2.34315 16 4 16H12C13.6569 16 15 14.6569 15 13V6.24264C15 5.44699 14.6839 4.68393 14.1213 4.12132L10.8787 0.87868C10.3161 0.316071 9.55301 0 8.75736 0H4C2.34315 0 1 1.34315 1 3Z" fill="#AEB9FF"/>
<mask id="mask0_94_3744" style="mask-type:alpha" maskUnits="userSpaceOnUse" x="1" y="0" width="14" height="16">
<path d="M1 3V13C1 14.6569 2.34315 16 4 16H12C13.6569 16 15 14.6569 15 13V6.24264C15 5.44699 14.6839 4.68393 14.1213 4.12132L10.8787 0.87868C10.3161 0.316071 9.55301 0 8.75736 0H4C2.34315 0 1 1.34315 1 3Z" fill="#D9D9D9"/>
</mask>
<g mask="url(#mask0_94_3744)">
<path d="M11.7777 12.8889H5.66661C4.31658 12.8889 3.22217 13.9833 3.22217 15.3333V15.3333C3.22217 16.6834 4.31658 17.7778 5.66661 17.7778H11.1666V17.7778C11.5041 17.7778 11.7777 17.5042 11.7777 17.1667V12.8889ZM11.7777 12.8889V11.6667C11.7777 10.3166 10.6833 9.22223 9.33328 9.22223H5.0555" stroke="#49469A" stroke-width="2" stroke-linecap="round"/>
<path d="M10.05 1.53492L13.4651 4.95C12.6719 4.94999 12.1381 4.94897 11.7265 4.91534C11.3245 4.8825 11.1323 4.82386 11.0055 4.75926C10.6762 4.59148 10.4085 4.32377 10.2407 3.99448C10.1761 3.8677 10.1175 3.6755 10.0847 3.27353C10.051 2.86188 10.05 2.32809 10.05 1.53492Z" stroke="#AEB9FF" stroke-width="2.1"/>
<path d="M10.05 1.53492L13.4651 4.95C12.6719 4.94999 12.1381 4.94897 11.7265 4.91534C11.3245 4.8825 11.1323 4.82386 11.0055 4.75926C10.6762 4.59148 10.4085 4.32377 10.2407 3.99448C10.1761 3.8677 10.1175 3.6755 10.0847 3.27353C10.051 2.86188 10.05 2.32809 10.05 1.53492Z" stroke="black" stroke-opacity="0.2" stroke-width="2.1"/>
</g>
</g>
<defs>
<clipPath id="clip0_94_3744">
<rect width="16" height="16" fill="white"/>
</clipPath>
</defs>
</svg>
