<svg width="16" height="16" viewBox="0 0 16 16" fill="none" xmlns="http://www.w3.org/2000/svg">
<g clip-path="url(#clip0_79_3775)">
<g clip-path="url(#clip1_79_3775)">
<rect width="16" height="16" rx="4" fill="#6CB8FF"/>
<rect x="3" y="3" width="5" height="5" rx="2.5" fill="#FFCF4D"/>
<path d="M3.5 11.5L0.182333 14.8177C0.114038 14.886 0.0798898 14.9201 0.043705 14.9519C0.0115471 14.9802 -0.0218067 15.0071 -0.0562649 15.0325C-0.0950375 15.0611 -0.13566 15.0872 -0.216905 15.1394L-3.32095 17.1349C-4.52266 17.9074 -5.12352 18.2937 -5.29922 18.7542C-5.45401 19.1599 -5.42811 19.5997 -5.22678 19.9844C-4.99824 20.4211 -4.34786 20.7383 -3.04709 21.3726C-1.52802 22.1133 -0.209708 22.7903 0 23C0.350911 23.3509 10.2194 24.2406 16.9123 24.7912C17.8077 24.8649 18.2554 24.9017 18.6031 24.749C18.9079 24.6152 19.1609 24.3822 19.3193 24.0893C19.5 23.7553 19.5 23.3046 19.5 22.4031V16.4941C19.5 16.1272 19.5 15.9438 19.4586 15.7712C19.4218 15.6181 19.3612 15.4718 19.279 15.3376C19.1862 15.1862 19.0565 15.0565 18.7971 14.7971L13.1971 9.19706C12.603 8.60303 12.306 8.30602 11.9635 8.19474C11.6623 8.09685 11.3377 8.09685 11.0365 8.19474C10.694 8.30602 10.397 8.60303 9.80295 9.19705L7.5 11.5C6.94772 12.0523 6.05229 12.0523 5.5 11.5C4.94771 10.9477 4.05229 10.9477 3.5 11.5Z" fill="url(#paint0_linear_79_3775)"/>
</g>
</g>
<defs>
<linearGradient id="paint0_linear_79_3775" x1="6.25" y1="7.5" x2="6.25" y2="25" gradientUnits="userSpaceOnUse">
<stop stop-color="#51FF6B"/>
<stop offset="1" stop-color="#309940"/>
</linearGradient>
<clipPath id="clip0_79_3775">
<rect width="16" height="16" fill="white"/>
</clipPath>
<clipPath id="clip1_79_3775">
<rect width="16" height="16" rx="4" fill="white"/>
</clipPath>
</defs>
</svg>
