<svg width="129" height="128" viewBox="0 0 129 128" fill="none" xmlns="http://www.w3.org/2000/svg">
<path d="M128.025 74.2399V66.5602C128.025 52.2222 128.025 45.0532 125.234 39.5768C122.78 34.7596 118.863 30.8431 114.046 28.3887C108.57 25.5983 101.401 25.5983 87.0629 25.5983H77.0943C76.1305 25.5983 75.6486 25.5983 75.184 25.5118C74.7717 25.4351 74.3704 25.3079 73.9891 25.1333C73.5595 24.9365 73.1655 24.6591 72.3774 24.1042L65.87 19.5217C62.3239 17.0246 60.5509 15.776 58.6176 14.8906C56.9017 14.1047 55.0959 13.5327 53.2405 13.1873C51.15 12.7981 48.9814 12.7981 44.6444 12.7981H40.9619C26.6239 12.7981 19.4549 12.7981 13.9785 15.5885C9.16131 18.0429 5.24483 21.9594 2.79036 26.7766C0 32.253 0 39.422 0 53.7599V74.2399C0 88.5779 0 95.7469 2.79036 101.223C5.24483 106.041 9.16131 109.957 13.9785 112.411C19.4549 115.202 26.6239 115.202 40.9619 115.202H87.0629C101.401 115.202 108.57 115.202 114.046 112.411C118.863 109.957 122.78 106.041 125.234 101.223C128.025 95.7469 128.025 88.5779 128.025 74.2399Z" fill="#0A69AE"/>
<path d="M128 74.2401V62.4637C128 49.5596 128 43.1075 125.489 38.1788C123.28 33.8434 119.755 30.3186 115.419 28.1096C110.491 25.5983 104.039 25.5983 91.1346 25.5983H76.8681C75.8933 25.5983 75.4059 25.5983 74.9364 25.6867C74.5197 25.7651 74.1144 25.895 73.7297 26.0734C73.2963 26.2743 72.8997 26.5576 72.1065 27.1242L72.1064 27.1243L65.9357 31.532C62.366 34.0819 60.5811 35.3568 58.6307 36.2612C56.8998 37.0638 55.0759 37.6483 53.2009 38.0013C51.0881 38.399 48.8947 38.399 44.5078 38.399H36.8653C23.9613 38.399 17.5092 38.399 12.5805 40.9103C8.24511 43.1193 4.72031 46.6441 2.5113 50.9795C0 55.9082 0 62.3603 0 75.2644V78.3363C0 91.2404 0 97.6924 2.5113 102.621C4.72031 106.957 8.24511 110.481 12.5805 112.69C17.5092 115.202 23.9613 115.202 36.8654 115.202H87.0385C101.376 115.202 108.545 115.202 114.022 112.411C118.839 109.957 122.755 106.04 125.21 101.223C128 95.747 128 88.578 128 74.2401Z" fill="#3EA9F5"/>
</svg>
