<svg width="16" height="16" viewBox="0 0 16 16" fill="none" xmlns="http://www.w3.org/2000/svg">
<g clip-path="url(#clip0_94_3874)">
<g opacity="0.5">
<path d="M0 3V13C0 14.6569 1.34315 16 3 16H11C12.6569 16 14 14.6569 14 13V6.24264C14 5.44699 13.6839 4.68393 13.1213 4.12132L9.87868 0.87868C9.31607 0.316071 8.55301 0 7.75736 0H3C1.34315 0 0 1.34315 0 3Z" fill="#A7FF4F"/>
<mask id="mask0_94_3874" style="mask-type:alpha" maskUnits="userSpaceOnUse" x="0" y="0" width="14" height="16">
<path d="M0 3V13C0 14.6569 1.34315 16 3 16H11C12.6569 16 14 14.6569 14 13V6.24264C14 5.44699 13.6839 4.68393 13.1213 4.12132L9.87868 0.87868C9.31607 0.316071 8.55301 0 7.75736 0H3C1.34315 0 0 1.34315 0 3Z" fill="#D9D9D9"/>
</mask>
<g mask="url(#mask0_94_3874)">
<path d="M9.05 1.53492L12.4651 4.95C11.6719 4.94999 11.1381 4.94897 10.7265 4.91534C10.3245 4.8825 10.1323 4.82386 10.0055 4.75926C9.67623 4.59148 9.40852 4.32377 9.24074 3.99448C9.17614 3.8677 9.1175 3.6755 9.08466 3.27353C9.05103 2.86188 9.05001 2.32809 9.05 1.53492Z" stroke="#A7FF4F" stroke-width="2.1"/>
<path d="M9.05 1.53492L12.4651 4.95C11.6719 4.94999 11.1381 4.94897 10.7265 4.91534C10.3245 4.8825 10.1323 4.82386 10.0055 4.75926C9.67623 4.59148 9.40852 4.32377 9.24074 3.99448C9.17614 3.8677 9.1175 3.6755 9.08466 3.27353C9.05103 2.86188 9.05001 2.32809 9.05 1.53492Z" stroke="black" stroke-opacity="0.2" stroke-width="2.1"/>
</g>
</g>
<path d="M7.125 15.625V16.375H8.625V15.625H7.125ZM15.125 10.55L15.6553 11.0803C15.9482 10.7874 15.9482 10.3126 15.6553 10.0197L15.125 10.55ZM13.4803 7.84467C13.1874 7.55178 12.7126 7.55178 12.4197 7.84467C12.1268 8.13756 12.1268 8.61244 12.4197 8.90533L13.4803 7.84467ZM12.4197 12.1947C12.1268 12.4876 12.1268 12.9624 12.4197 13.2553C12.7126 13.5482 13.1874 13.5482 13.4803 13.2553L12.4197 12.1947ZM8.625 15.625V14.55H7.125V15.625H8.625ZM11.875 11.3H15.125V9.8H11.875V11.3ZM15.6553 10.0197L13.4803 7.84467L12.4197 8.90533L14.5947 11.0803L15.6553 10.0197ZM14.5947 10.0197L12.4197 12.1947L13.4803 13.2553L15.6553 11.0803L14.5947 10.0197ZM8.625 14.55C8.625 13.8376 8.62558 13.3483 8.65657 12.9691C8.68684 12.5986 8.74235 12.3996 8.81574 12.2555L7.47923 11.5745C7.28014 11.9653 7.1994 12.3837 7.16155 12.8469C7.12442 13.3014 7.125 13.8623 7.125 14.55H8.625ZM11.875 9.8C11.1873 9.8 10.6264 9.79942 10.1719 9.83655C9.70867 9.8744 9.29027 9.95514 8.89953 10.1542L9.58052 11.4907C9.72456 11.4173 9.92358 11.3618 10.2941 11.3316C10.6733 11.3006 11.1626 11.3 11.875 11.3V9.8ZM8.81574 12.2555C8.98352 11.9262 9.25123 11.6585 9.58052 11.4907L8.89953 10.1542C8.288 10.4658 7.79082 10.963 7.47923 11.5745L8.81574 12.2555Z" fill="#A7FF4F"/>
</g>
<defs>
<clipPath id="clip0_94_3874">
<rect width="16" height="16" fill="white"/>
</clipPath>
</defs>
</svg>
