<svg width="16" height="16" viewBox="0 0 16 16" fill="none" xmlns="http://www.w3.org/2000/svg">
<mask id="mask0_94_3825" style="mask-type:alpha" maskUnits="userSpaceOnUse" x="0" y="0" width="16" height="16">
<path d="M6.13518 14.964L2.77518 13.0973L2.77517 13.0973C2.05632 12.6979 1.69689 12.4982 1.43517 12.2142C1.20363 11.963 1.0284 11.6652 0.921212 11.3408C0.800049 10.974 0.800049 10.5629 0.800049 9.74053V6.25947C0.800049 5.43713 0.800049 5.02595 0.921212 4.65924C1.0284 4.33481 1.20363 4.03702 1.43517 3.78576C1.69689 3.50175 2.05632 3.30207 2.77518 2.90271L2.77518 2.90271L6.13518 1.03604L6.13518 1.03604C6.81583 0.657899 7.15616 0.46883 7.51657 0.394705C7.83555 0.3291 8.16455 0.3291 8.48353 0.394705C8.84394 0.46883 9.18427 0.657899 9.86492 1.03604L13.2249 2.9027C13.9438 3.30207 14.3032 3.50175 14.5649 3.78576C14.7965 4.03702 14.9717 4.33481 15.0789 4.65924C15.2 5.02595 15.2 5.43713 15.2 6.25947V9.74053C15.2 10.5629 15.2 10.974 15.0789 11.3408C14.9717 11.6652 14.7965 11.963 14.5649 12.2142C14.3032 12.4982 13.9438 12.6979 13.2249 13.0973L9.86492 14.964L9.86491 14.964C9.18427 15.3421 8.84394 15.5312 8.48353 15.6053C8.16455 15.6709 7.83555 15.6709 7.51657 15.6053C7.15615 15.5312 6.81583 15.3421 6.13518 14.964Z" fill="#D9D9D9"/>
</mask>
<g mask="url(#mask0_94_3825)">
<path d="M8.00005 0L15.2 4L8.00005 8L0.800049 4L8.00005 0Z" fill="#EE823E"/>
<path d="M8.00005 15.9999L0.800049 11.9999V3.99994L8.00005 7.99994V15.9999Z" fill="#C66937"/>
<path d="M7.99971 15.9999L15.1997 11.9999V3.99994L7.99971 7.99994V15.9999Z" fill="#9C5528"/>
</g>
</svg>
