<svg width="16" height="16" viewBox="0 0 16 16" fill="none" xmlns="http://www.w3.org/2000/svg">
<path d="M16.0031 9.27996V8.31999C16.0031 6.52774 16.0031 5.63162 15.6543 4.94707C15.3475 4.34492 14.8579 3.85536 14.2558 3.54855C13.5712 3.19976 12.6751 3.19976 10.8829 3.19976H9.63678C9.51631 3.19976 9.45607 3.19976 9.398 3.18894C9.34646 3.17935 9.2963 3.16346 9.24864 3.14163C9.19493 3.11704 9.14568 3.08235 9.04718 3.01299L8.23375 2.44018C7.79049 2.12804 7.56886 1.97197 7.32719 1.86129C7.11272 1.76306 6.88698 1.69156 6.65506 1.64838C6.39375 1.59973 6.12268 1.59973 5.58055 1.59973H5.12023C3.32798 1.59973 2.43186 1.59973 1.74731 1.94853C1.14516 2.25534 0.655604 2.7449 0.348795 3.34704C0 4.03159 0 4.92771 0 6.71996V9.27996C0 11.0722 0 11.9683 0.348795 12.6529C0.655604 13.255 1.14516 13.7446 1.74731 14.0514C2.43186 14.4002 3.32799 14.4002 5.12024 14.4002H10.8829C12.6751 14.4002 13.5712 14.4002 14.2558 14.0514C14.8579 13.7446 15.3475 13.255 15.6543 12.6529C16.0031 11.9683 16.0031 11.0722 16.0031 9.27996Z" fill="#A25B14"/>
<path d="M16 9.28V7.80794C16 6.19493 16 5.38842 15.6861 4.77233C15.41 4.23041 14.9694 3.78981 14.4274 3.51368C13.8113 3.19977 13.0048 3.19977 11.3918 3.19977H9.60852C9.48666 3.19977 9.42573 3.19977 9.36704 3.21082C9.31496 3.22062 9.2643 3.23686 9.21622 3.25915C9.16204 3.28427 9.11246 3.31969 9.01331 3.39051L9.0133 3.39052L8.24196 3.94149C7.79575 4.26021 7.57264 4.41958 7.32884 4.53263C7.11247 4.63295 6.88449 4.70602 6.65011 4.75014C6.38601 4.79986 6.11183 4.79986 5.56348 4.79986H4.60817C2.99516 4.79986 2.18865 4.79986 1.57257 5.11377C1.03064 5.3899 0.590038 5.8305 0.313913 6.37242C0 6.98851 0 7.79502 0 9.40803V9.79202C0 11.405 0 12.2115 0.313913 12.8276C0.590038 13.3696 1.03064 13.8102 1.57257 14.0863C2.18865 14.4002 2.99516 14.4002 4.60817 14.4002H10.8798C12.672 14.4002 13.5682 14.4002 14.2527 14.0514C14.8548 13.7446 15.3444 13.255 15.6512 12.6529C16 11.9684 16 11.0722 16 9.28Z" fill="#F5A93E"/>
<path d="M10.25 5.46368C10.25 5.87789 10.5858 6.21368 11 6.21368C11.4142 6.21368 11.75 5.87789 11.75 5.46368H10.25ZM10.25 3.22968V5.46368H11.75V3.22968H10.25Z" fill="black" fill-opacity="0.5"/>
<path d="M11.75 12.1657C11.75 11.7514 11.4142 11.4157 11 11.4157C10.5858 11.4157 10.25 11.7514 10.25 12.1657H11.75ZM11.75 14.3997V12.1657H10.25V14.3997H11.75Z" fill="black" fill-opacity="0.5"/>
<path d="M11 9.37311V8.25611" stroke="black" stroke-opacity="0.5" stroke-width="1.5" stroke-linecap="round"/>
</svg>
