<svg width="16" height="16" viewBox="0 0 16 16" fill="none" xmlns="http://www.w3.org/2000/svg">
<g clip-path="url(#clip0_79_3722)">
<path d="M1 3V13C1 14.6569 2.34315 16 4 16H12C13.6569 16 15 14.6569 15 13V6.24264C15 5.44699 14.6839 4.68393 14.1213 4.12132L10.8787 0.87868C10.3161 0.316071 9.55301 0 8.75736 0H4C2.34315 0 1 1.34315 1 3Z" fill="white"/>
<mask id="mask0_79_3722" style="mask-type:alpha" maskUnits="userSpaceOnUse" x="1" y="0" width="14" height="16">
<path d="M1 3V13C1 14.6569 2.34315 16 4 16H12C13.6569 16 15 14.6569 15 13V6.24264C15 5.44699 14.6839 4.68393 14.1213 4.12132L10.8787 0.87868C10.3161 0.316071 9.55301 0 8.75736 0H4C2.34315 0 1 1.34315 1 3Z" fill="#D9D9D9"/>
</mask>
<g mask="url(#mask0_79_3722)">
<path d="M10.05 1.53492L13.4651 4.95C12.6719 4.94999 12.1381 4.94897 11.7265 4.91534C11.3245 4.8825 11.1323 4.82386 11.0055 4.75926C10.6762 4.59148 10.4085 4.32377 10.2407 3.99448C10.1761 3.8677 10.1175 3.6755 10.0847 3.27353C10.051 2.86188 10.05 2.32809 10.05 1.53492Z" stroke="white" stroke-width="2.1"/>
<path d="M10.05 1.53492L13.4651 4.95C12.6719 4.94999 12.1381 4.94897 11.7265 4.91534C11.3245 4.8825 11.1323 4.82386 11.0055 4.75926C10.6762 4.59148 10.4085 4.32377 10.2407 3.99448C10.1761 3.8677 10.1175 3.6755 10.0847 3.27353C10.051 2.86188 10.05 2.32809 10.05 1.53492Z" stroke="black" stroke-opacity="0.2" stroke-width="2.1"/>
<path d="M3 9H10" stroke="black" stroke-opacity="0.5" stroke-linecap="round"/>
<path d="M3 7H8" stroke="black" stroke-opacity="0.5" stroke-linecap="round"/>
<path d="M3 11H13" stroke="black" stroke-opacity="0.5" stroke-linecap="round"/>
<path d="M3 13H8" stroke="black" stroke-opacity="0.5" stroke-linecap="round"/>
</g>
</g>
<defs>
<clipPath id="clip0_79_3722">
<rect width="16" height="16" fill="white"/>
</clipPath>
</defs>
</svg>
