<svg width="16" height="16" viewBox="0 0 16 16" fill="none" xmlns="http://www.w3.org/2000/svg">
<g clip-path="url(#clip0_94_3792)">
<path d="M1 3V13C1 14.6569 2.34315 16 4 16H12C13.6569 16 15 14.6569 15 13V6.24264C15 5.44699 14.6839 4.68393 14.1213 4.12132L10.8787 0.87868C10.3161 0.316071 9.55301 0 8.75736 0H4C2.34315 0 1 1.34315 1 3Z" fill="#FFDE59"/>
<mask id="mask0_94_3792" style="mask-type:alpha" maskUnits="userSpaceOnUse" x="1" y="0" width="14" height="16">
<path d="M1 3V13C1 14.6569 2.34315 16 4 16H12C13.6569 16 15 14.6569 15 13V6.24264C15 5.44699 14.6839 4.68393 14.1213 4.12132L10.8787 0.87868C10.3161 0.316071 9.55301 0 8.75736 0H4C2.34315 0 1 1.34315 1 3Z" fill="#D9D9D9"/>
</mask>
<g mask="url(#mask0_94_3792)">
<path d="M10.05 1.53492L13.4651 4.95C12.6719 4.94999 12.1381 4.94897 11.7265 4.91534C11.3245 4.8825 11.1323 4.82386 11.0055 4.75926C10.6762 4.59148 10.4085 4.32377 10.2407 3.99448C10.1761 3.8677 10.1175 3.6755 10.0847 3.27353C10.051 2.86188 10.05 2.32809 10.05 1.53492Z" stroke="#FFDE59" stroke-width="2.1"/>
<path d="M10.05 1.53492L13.4651 4.95C12.6719 4.94999 12.1381 4.94897 11.7265 4.91534C11.3245 4.8825 11.1323 4.82386 11.0055 4.75926C10.6762 4.59148 10.4085 4.32377 10.2407 3.99448C10.1761 3.8677 10.1175 3.6755 10.0847 3.27353C10.051 2.86188 10.05 2.32809 10.05 1.53492Z" stroke="black" stroke-opacity="0.2" stroke-width="2.1"/>
<path d="M4.375 12.5L5.92189 11.2409C6.44405 10.8159 6.70513 10.6034 6.79995 10.3476C6.88311 10.1233 6.88311 9.87666 6.79995 9.65237C6.70513 9.39662 6.44405 9.18412 5.92189 8.7591L4.375 7.5" stroke="#5B3B00" stroke-linecap="round" stroke-linejoin="round"/>
<path d="M8.625 12.5H11.625" stroke="#5B3B00" stroke-linecap="round" stroke-linejoin="round"/>
</g>
</g>
<defs>
<clipPath id="clip0_94_3792">
<rect width="16" height="16" fill="white"/>
</clipPath>
</defs>
</svg>
